<?xml version="1.0" standalone="no"?>
<!DOCTYPE svg PUBLIC "-//W3C//DTD SVG 1.1//EN" "http://www.w3.org/Graphics/SVG/1.1/DTD/svg11.dtd" >
<svg xmlns="http://www.w3.org/2000/svg" xmlns:xlink="http://www.w3.org/1999/xlink" version="1.1">
<metadata>
Created by FontForge 20170731 at Mon Jun  8 16:25:35 2015
 By Aleksey,,,
Copyright (c) 2014, Neelakash Kshetrimayum (github.com/Neelakash/sitara). Copyright 2013, Google Corporation.
</metadata>
<defs>
<font id="Sitara-Regular" horiz-adv-x="573" >
  <font-face 
    font-family="Sitara"
    font-weight="400"
    font-stretch="normal"
    units-per-em="2048"
    panose-1="0 0 0 0 0 0 0 0 0 0"
    ascent="1638"
    descent="-410"
    bbox="-979 -936 4468 2333"
    underline-thickness="0"
    underline-position="0"
    unicode-range="U+000D-FEFF"
  />
<missing-glyph horiz-adv-x="1065" 
d="M932 932v-932h-799v932h799zM866 866h-666v-799h666v799z" />
    <glyph glyph-name=".notdef" horiz-adv-x="1065" 
d="M932 932v-932h-799v932h799zM866 866h-666v-799h666v799z" />
    <glyph glyph-name=".null" horiz-adv-x="0" 
 />
    <glyph glyph-name="nonmarkingreturn" horiz-adv-x="682" 
 />
    <glyph glyph-name="NULL" horiz-adv-x="600" 
 />
    <glyph glyph-name="NULL" horiz-adv-x="600" 
 />
    <glyph glyph-name="CR" unicode="&#xd;" horiz-adv-x="600" 
 />
    <glyph glyph-name="space" unicode=" " horiz-adv-x="532" 
 />
    <glyph glyph-name="exclam" unicode="!" horiz-adv-x="682" 
d="M387 412h-94l-72 1050h238zM211 125q0 40 10 66.5t28 42.5q17 16 40.5 23t50.5 7q26 0 49.5 -7t41.5 -23q17 -16 27.5 -42.5t10.5 -66.5q0 -39 -10.5 -66t-27.5 -43q-18 -16 -41.5 -23t-49.5 -7q-27 0 -50.5 7t-40.5 23q-18 16 -28 43t-10 66z" />
    <glyph glyph-name="quotedbl" unicode="&#x22;" horiz-adv-x="836" 
d="M657 981h-94l-61 481h217zM272 981h-94l-61 481h217z" />
    <glyph glyph-name="numbersign" unicode="#" horiz-adv-x="1145" 
d="M758 938h-285l-76 -401h285zM881 938l-76 -401h233v-121h-258l-78 -416h-122l77 416h-284l-78 -416h-123l78 416h-168v121h190l78 401h-244v121h267l73 403h125l-75 -403h284l76 403h123l-76 -403h160v-121h-182z" />
    <glyph glyph-name="dollar" unicode="$" horiz-adv-x="1145" 
d="M354 1090q0 -43 10.5 -75.5t31.5 -57.5t51.5 -45t70.5 -38v429q-40 -9 -71 -28.5t-51 -46.5q-21 -28 -31.5 -63t-10.5 -75zM813 399q0 41 -10 73.5t-33 60.5t-59.5 52t-89.5 48v-455q92 16 142 75t50 146zM518 1556h103v-155q92 -2 156.5 -20.5t105.5 -48.5
q41 -31 59.5 -72t18.5 -89q0 -66 -44 -99.5t-118 -33.5q0 45 -7.5 91t-26.5 83t-54.5 63t-89.5 32v-478q92 -40 163 -80t119 -86t73 -103.5t25 -129.5q0 -153 -99.5 -239t-280.5 -105v-248h-103v244q-51 0 -103 5t-101 15t-95 26t-84 38v315h86q0 -57 21.5 -110.5
t61.5 -95.5q39 -43 93.5 -70.5t120.5 -32.5v506q-96 43 -162.5 85.5t-107.5 88.5t-59.5 100.5t-18.5 120.5q0 69 24.5 125t69.5 98q45 41 109.5 66.5t144.5 34.5v159z" />
    <glyph glyph-name="percent" unicode="%" horiz-adv-x="1835" 
d="M764 1030q0 -102 -21 -186.5t-63 -144.5t-105 -93t-147 -33q-87 0 -151 33t-105 93t-60.5 144.5t-19.5 186.5t19.5 186t60.5 144q41 59 105 91t153 32q84 0 146.5 -32t104.5 -91q41 -60 62 -144t21 -186zM1212 1462h134l-730 -1462h-135zM276 1030q0 -87 8 -157t26 -118
t47 -73t71 -25t71 25t47 73q17 48 24.5 118t7.5 157t-7.5 155t-24.5 116q-18 47 -46 71.5t-70 24.5t-71.5 -24.5t-47.5 -71.5q-19 -48 -27 -116t-8 -155zM1743 436q0 -102 -21 -186.5t-63 -144.5t-105 -92.5t-147 -32.5q-87 0 -151.5 32.5t-104.5 92.5t-60 144.5t-20 186.5
t19.5 186t60.5 144q41 59 105 91t153 32q84 0 146.5 -32t104.5 -91q41 -60 62 -144t21 -186zM1255 436q0 -87 8 -157t26 -118t47 -73t71 -25t71 25t46 73t24.5 118t7.5 157t-7.5 155t-24.5 116q-17 47 -45 71.5t-70 24.5t-71.5 -24.5t-47.5 -71.5q-19 -48 -27 -116t-8 -155z
" />
    <glyph glyph-name="ampersand" unicode="&#x26;" horiz-adv-x="1520" 
d="M813 1190q0 41 -10 76.5t-32 60.5t-59.5 40t-88.5 15q-90 0 -139.5 -53.5t-49.5 -140.5q0 -39 8 -73t26 -67q17 -34 44 -70t66 -79q60 26 104.5 55.5t73.5 63.5t43 76t14 96zM580 94q60 0 111.5 12.5t94.5 34.5t79 52.5t65 66.5l-453 485q-47 -26 -84.5 -57.5
t-63.5 -72.5q-27 -42 -41 -94t-14 -118q0 -75 22.5 -132.5t62.5 -96.5q40 -40 96 -60t125 -20zM1501 86v-86h-327l-170 180q-37 -42 -81.5 -78.5t-98.5 -63.5t-119.5 -42.5t-143.5 -15.5q-122 0 -214 31t-152 88q-60 56 -90.5 135.5t-30.5 175.5q0 87 23.5 151.5t66.5 113.5
q42 49 102.5 86t134.5 68q-39 46 -68.5 88.5t-48.5 84.5t-29.5 86t-10.5 94q0 68 22 123t69 95t121 61.5t175 21.5q98 0 167.5 -23t112.5 -63t62.5 -93t19.5 -112q0 -66 -19 -117t-60 -94q-42 -43 -108 -81.5t-159 -78.5l373 -395q14 46 23 93.5t15 93.5q5 45 7 88.5t2 80.5
v80h369v-86h-19q-34 0 -67 -4t-61 -18q-28 -15 -51 -42.5t-36 -74.5q-18 -66 -41.5 -143t-58.5 -154l190 -203q15 -15 31 -25t38 -16q21 -6 50.5 -8t71.5 -2h18z" />
    <glyph glyph-name="quotesingle" unicode="'" horiz-adv-x="451" 
d="M272 981h-94l-61 481h217z" />
    <glyph glyph-name="parenleft" unicode="(" horiz-adv-x="709" 
d="M330 649q0 -122 9.5 -241t41.5 -225t95 -197t167 -154v-94q-140 56 -240.5 136.5t-163.5 190.5t-92.5 255t-29.5 329t29.5 328t92.5 254t163.5 189.5t240.5 135.5v-92q-104 -63 -167 -153.5t-95 -195.5t-41.5 -224.5t-9.5 -241.5z" />
    <glyph glyph-name="parenright" unicode=")" horiz-adv-x="709" 
d="M379 649q0 122 -9.5 241.5t-41.5 224.5q-33 105 -95.5 195.5t-166.5 153.5v92q140 -56 240.5 -135.5t163.5 -189.5t92.5 -254t29.5 -328t-29.5 -329t-92.5 -255t-163.5 -190.5t-240.5 -136.5v94q104 63 166.5 154t95.5 197q32 106 41.5 225t9.5 241z" />
    <glyph glyph-name="asterisk" unicode="*" horiz-adv-x="1024" 
d="M84 1063l344 102l-344 103l72 162l315 -199l-53 325h178l-57 -323l317 192l72 -159l-346 -101l346 -100l-72 -158l-317 191l57 -324h-178l51 324l-313 -195z" />
    <glyph glyph-name="plus" unicode="+" horiz-adv-x="1145" 
d="M1012 793v-121h-379v-379h-123v379h-377v121h377v378h123v-378h379z" />
    <glyph glyph-name="comma" unicode="," horiz-adv-x="512" 
d="M397 86q0 -65 -18 -126.5t-58 -112.5t-104 -93t-156 -69v86q101 32 148 78t47 106q0 20 -11 34t-28 24q-8 5 -17 10t-19 10q-19 10 -36 24t-28 35q-5 10 -8 22.5t-3 28.5q0 59 38.5 90t95.5 31q32 0 60 -11.5t50 -33.5t34.5 -56t12.5 -77z" />
    <glyph glyph-name="hyphen" unicode="-" horiz-adv-x="635" 
d="M584 635v-154h-533v154h533z" />
    <glyph glyph-name="period" unicode="." horiz-adv-x="586" 
d="M164 125q0 40 10 66.5t28 42.5q17 16 40.5 23t50.5 7q26 0 49.5 -7t41.5 -23q17 -16 27.5 -42.5t10.5 -66.5q0 -39 -10.5 -66t-27.5 -43q-18 -16 -41.5 -23t-49.5 -7q-27 0 -50.5 7t-40.5 23q-18 16 -28 43t-10 66z" />
    <glyph glyph-name="zero" unicode="0" horiz-adv-x="1145" 
d="M1053 733q0 -168 -29.5 -307.5t-89.5 -238.5t-150.5 -153t-210.5 -54q-125 0 -216.5 54t-149.5 153t-86.5 239t-28.5 309t28.5 307.5t86.5 236.5t150 151t218 53q119 0 209 -53t150 -151t89.5 -237t29.5 -309zM305 733q0 -151 14.5 -271t45.5 -202t82.5 -126t125.5 -44
q75 0 126.5 44t82.5 126t44.5 202t13.5 271t-13.5 271t-44.5 201t-82 124t-125 43q-75 0 -126.5 -43t-83.5 -124t-46 -201t-14 -271z" />
    <glyph glyph-name="one" unicode="1" horiz-adv-x="1145" 
d="M977 86v-86h-780v86h137q35 0 66 5t53 21q22 15 35.5 44t13.5 77v1076q-39 -48 -74 -87t-67 -67t-62.5 -43.5t-60.5 -15.5q-45 0 -74 30.5t-29 79.5q31 8 62.5 19.5t67.5 30.5q35 18 76.5 44.5t92.5 63.5l144 106h131v-1237q0 -48 13 -77t36 -44q23 -16 53.5 -21t65.5 -5
h100z" />
    <glyph glyph-name="two" unicode="2" horiz-adv-x="1145" 
d="M944 1141q0 -72 -23 -140t-67 -139q-44 -72 -107.5 -149t-144.5 -166l-346 -383h473q46 0 76 13t49 34t29.5 48.5t17.5 57.5l8 37h86l-10 -354h-881v150l342 395q81 95 137 170.5t90 141.5t49 130t15 133q0 59 -12.5 107t-37.5 82t-65 52.5t-94 18.5q-69 0 -113 -25
t-69 -67t-34 -97.5t-9 -115.5q-37 0 -69 6t-56 22q-24 15 -37.5 40.5t-13.5 64.5q0 59 25.5 109.5t76.5 87.5q50 37 125 57.5t174 20.5q96 0 173.5 -24.5t131.5 -68.5q54 -45 82.5 -108t28.5 -141z" />
    <glyph glyph-name="three" unicode="3" horiz-adv-x="1145" 
d="M508 90q60 0 115.5 17t97.5 56t67 102t25 155q0 65 -25.5 117.5t-73.5 89.5t-117 57.5t-155 20.5h-65v104h65q68 0 127 22.5t102 63.5t68 100t25 131q0 60 -12 107t-38 80q-27 33 -68.5 50t-100.5 17q-69 0 -113.5 -25t-69.5 -67t-34 -97.5t-9 -115.5q-37 0 -69 6t-56 22
q-24 15 -37.5 40.5t-13.5 64.5q0 59 25.5 109.5t76.5 87.5t126 57.5t174 20.5q96 0 175.5 -22t136.5 -63q56 -42 87 -102.5t31 -138.5q0 -69 -24.5 -130t-68.5 -110t-104 -84.5t-131 -52.5q38 -4 81 -13.5t85 -27.5t80.5 -45t68.5 -66q29 -39 46.5 -90.5t17.5 -119.5
q0 -81 -22 -146.5t-60 -113.5q-39 -49 -90.5 -83t-108.5 -55t-118.5 -30.5t-120.5 -9.5q-101 0 -174 18.5t-120 49.5q-48 31 -70.5 72.5t-22.5 86.5q0 62 35 96.5t94 34.5q0 -54 17.5 -99.5t50.5 -78.5t81.5 -51.5t110.5 -18.5z" />
    <glyph glyph-name="four" unicode="4" horiz-adv-x="1145" 
d="M1116 516v-115h-254v-168q0 -48 14 -77t36 -44q22 -16 53 -21t65 -5h27v-86h-617v86h58q35 0 66 5t53 21q22 15 35.5 44t13.5 77v168h-631v84l633 977h194v-946h254zM182 516h484v379q0 45 1.5 99t2.5 110t3.5 111.5t6.5 103.5q-7 -14 -20 -37.5t-29 -52.5t-35 -61
t-37 -62q-10 -16 -18.5 -30t-16.5 -27t-15 -24.5t-13 -20.5z" />
    <glyph glyph-name="five" unicode="5" horiz-adv-x="1145" 
d="M489 100q63 0 116.5 18t93.5 58q39 40 61 107t22 163q0 81 -22 141t-63 100t-98 59.5t-128 19.5q-53 0 -91.5 -4t-67.5 -10q-30 -7 -52 -15t-41 -16l-49 14l66 725h684l10 -309h-86l-8 61q-3 22 -8.5 38t-17.5 26t-32.5 15t-52.5 5h-397l-39 -450q31 11 90 22t149 11
q99 0 184.5 -27t148.5 -81t98.5 -136t35.5 -189q0 -104 -33.5 -190t-96.5 -147t-156 -95t-209 -34q-113 0 -188 19.5t-119 49.5t-62 66.5t-18 70.5q0 57 31.5 89t97.5 32q0 -44 15.5 -82t46.5 -65q30 -28 76.5 -44t108.5 -16z" />
    <glyph glyph-name="six" unicode="6" horiz-adv-x="1145" 
d="M659 1384q-153 0 -232.5 -152t-90.5 -450q25 21 55.5 40.5t66.5 34.5q36 14 78.5 23t92.5 9q93 0 169.5 -29t130.5 -83q53 -54 82 -132t29 -176q0 -107 -29.5 -197.5t-85.5 -154.5q-57 -64 -139 -100.5t-186 -36.5q-101 0 -188.5 43t-150.5 134t-99.5 235t-36.5 345
q0 96 14.5 189.5t43.5 176.5t73 153t104 121q59 50 134 78t165 28q86 0 149.5 -18t105.5 -48t62.5 -69t20.5 -80q0 -59 -40 -91t-117 -32q0 50 -9.5 93.5t-31.5 76.5q-22 32 -56 50.5t-84 18.5zM588 784q-40 0 -77 -10.5t-69 -26.5q-33 -16 -60 -38t-48 -43
q2 -153 21.5 -262.5t54.5 -178.5t85.5 -101t110.5 -32q110 0 167.5 86t57.5 271q0 174 -63 254.5t-180 80.5z" />
    <glyph glyph-name="seven" unicode="7" horiz-adv-x="1145" 
d="M1047 1401l-504 -1401h-154l483 1296h-538q-54 0 -84.5 -26.5t-34.5 -77.5l-8 -102h-86l10 370h916v-59z" />
    <glyph glyph-name="eight" unicode="8" horiz-adv-x="1145" 
d="M94 367q0 74 23.5 130t65.5 99t99.5 78t123.5 67q-57 33 -106.5 71.5t-84.5 84.5t-54.5 101t-19.5 118q0 71 25 137t78 117t138 82t202 31q96 0 171.5 -26.5t126.5 -73.5t78 -111.5t27 -141.5q0 -66 -20 -117.5t-56 -91.5t-87 -73t-113 -64q75 -36 138 -77t108 -89
t69.5 -104.5t24.5 -122.5q0 -96 -35.5 -173t-98.5 -130t-155 -80.5t-203 -27.5q-114 0 -201.5 30.5t-145.5 82.5t-88 122.5t-30 151.5zM805 1135q0 47 -12.5 92t-39.5 81q-28 35 -72.5 56.5t-109.5 21.5q-57 0 -101.5 -18.5t-74.5 -50.5q-30 -33 -45.5 -78t-15.5 -98
q0 -54 18 -98.5t52 -80.5t86 -67.5t120 -63.5q57 29 95 59.5t60 67.5q22 36 31 79.5t9 97.5zM569 74q66 0 121 20.5t94 56.5q38 36 59 86t21 109q0 51 -19 96t-62 87q-43 41 -111.5 80.5t-167.5 82.5q-96 -51 -153.5 -134.5t-57.5 -199.5q0 -63 18 -115.5t52 -89.5t86 -58
t120 -21z" />
    <glyph glyph-name="nine" unicode="9" horiz-adv-x="1145" 
d="M553 684q50 1 91.5 15t73.5 36t55.5 52t37.5 63v4q-2 134 -22 232t-55 161t-83.5 93t-107.5 30q-108 0 -168 -95.5t-60 -275.5q0 -84 15 -144t45 -98t74.5 -55.5t103.5 -17.5zM467 90q169 0 250.5 152.5t91.5 459.5q-22 -27 -51.5 -52t-66.5 -44t-83 -31t-100 -12
q-89 0 -163.5 26.5t-127.5 77.5q-54 51 -83.5 129.5t-29.5 182.5q0 110 30 203.5t87 159.5q56 66 138 103.5t184 37.5q104 0 191.5 -40t150.5 -124t99 -214.5t36 -309.5q0 -107 -13.5 -210t-41.5 -193t-73 -166.5t-106 -131.5t-141.5 -86t-179.5 -31q-87 0 -144.5 15.5
t-90.5 40.5q-34 25 -48 57t-14 64q0 38 19 64t42 34q14 -32 34.5 -61.5t50.5 -51.5q29 -22 67 -35.5t86 -13.5z" />
    <glyph glyph-name="colon" unicode=":" horiz-adv-x="588" 
d="M166 969q0 40 10 66.5t28 42.5q17 16 40.5 23t50.5 7q26 0 49.5 -7t41.5 -23q17 -16 27.5 -42.5t10.5 -66.5q0 -39 -10.5 -66t-27.5 -43q-18 -16 -41.5 -23.5t-49.5 -7.5q-27 0 -50.5 7.5t-40.5 23.5q-18 16 -28 43t-10 66zM166 125q0 40 10 66.5t28 42.5q17 16 40.5 23
t50.5 7q26 0 49.5 -7t41.5 -23q17 -16 27.5 -42.5t10.5 -66.5q0 -39 -10.5 -66t-27.5 -43q-18 -16 -41.5 -23t-49.5 -7q-27 0 -50.5 7t-40.5 23q-18 16 -28 43t-10 66z" />
    <glyph glyph-name="semicolon" unicode=";" horiz-adv-x="512" 
d="M129 969q0 40 10 66.5t28 42.5q17 16 40.5 23t50.5 7q26 0 49.5 -7t41.5 -23q17 -16 27.5 -42.5t10.5 -66.5q0 -39 -10.5 -66t-27.5 -43q-18 -16 -41.5 -23.5t-49.5 -7.5q-27 0 -50.5 7.5t-40.5 23.5q-18 16 -28 43t-10 66zM397 86q0 -65 -18 -126.5t-58 -112.5t-104 -93
t-156 -69v86q101 32 148 78t47 106q0 20 -11 34t-28 24q-8 5 -17 10t-19 10q-19 10 -36 24t-28 35q-5 10 -8 22.5t-3 28.5q0 59 38.5 90t95.5 31q32 0 60 -11.5t50 -33.5t34.5 -56t12.5 -77z" />
    <glyph glyph-name="less" unicode="&#x3c;" horiz-adv-x="1145" 
d="M1012 362v-137l-879 471v72l879 473v-137l-688 -373z" />
    <glyph glyph-name="equal" unicode="=" horiz-adv-x="1145" 
d="M133 872v121h879v-121h-879zM133 469v121h879v-121h-879z" />
    <glyph glyph-name="greater" unicode="&#x3e;" horiz-adv-x="1145" 
d="M1012 768v-72l-879 -471v137l688 369l-688 373v137z" />
    <glyph glyph-name="question" unicode="?" horiz-adv-x="1024" 
d="M522 643v-231h-125v311q89 36 149.5 84t97.5 103q36 55 51.5 116t15.5 121q0 53 -13 96.5t-40 74.5q-27 30 -69.5 47t-101.5 17q-63 0 -107 -21t-71 -57t-39 -83.5t-12 -100.5q-37 0 -68 9t-53 25t-35.5 41t-13.5 58q0 49 22.5 91t70.5 73q47 31 119 48.5t171 17.5
q96 0 178.5 -25t142.5 -72q60 -48 94 -117.5t34 -156.5q0 -84 -26.5 -153t-77.5 -126t-125 -104t-169 -86zM328 125q0 40 10 66.5t28 42.5q17 16 40.5 23t50.5 7q26 0 49.5 -7t41.5 -23q17 -16 27.5 -42.5t10.5 -66.5q0 -39 -10.5 -66t-27.5 -43q-18 -16 -41.5 -23t-49.5 -7
q-27 0 -50.5 7t-40.5 23q-18 16 -28 43t-10 66z" />
    <glyph glyph-name="at" unicode="@" horiz-adv-x="1886" 
d="M1778 803q0 -147 -36.5 -267t-93.5 -204t-129 -129t-143 -45q-90 0 -151 49.5t-90 136.5h-11q-21 -40 -47.5 -74t-59.5 -59q-34 -25 -76 -39t-93 -14q-62 0 -118.5 21t-98.5 64q-43 43 -68.5 109t-25.5 156q0 54 12.5 119t39.5 128q26 63 68 122.5t99 105.5
q57 45 133.5 72.5t169.5 27.5q66 0 113.5 -18t78.5 -43l82 43h49l-104 -522q-1 -12 -3 -24l-4 -24q-3 -20 -5 -44t-2 -45q0 -36 10.5 -62.5t27.5 -43.5q17 -18 39.5 -26t47.5 -8q45 0 92 36.5t85 105.5t62.5 170.5t24.5 230.5q0 134 -43 237t-119 172t-183 104.5t-235 35.5
q-99 0 -196 -28t-183 -82t-159.5 -133t-126.5 -179t-83 -222.5t-30 -262.5q0 -170 49 -291t133 -197q83 -76 194 -111.5t234 -35.5q84 0 159 14.5t141 38.5q65 24 120.5 54.5t99.5 62.5l48 -74q-51 -38 -114 -74.5t-136 -64.5t-158 -46t-180 -18q-164 0 -302.5 45.5
t-237.5 137.5t-155.5 230.5t-56.5 323.5q0 144 31.5 276t91.5 245q59 113 144 205t190 156t230 99t265 35q171 0 301.5 -51t217.5 -139t130.5 -209.5t43.5 -259.5zM727 479q0 -107 43.5 -160t112.5 -53q51 0 89.5 22.5t64.5 58.5t42 82t25 93l78 416q-13 29 -45.5 45
t-69.5 16q-60 0 -110 -26.5t-87 -69.5t-64.5 -99t-44.5 -113q-18 -57 -26 -112.5t-8 -99.5z" />
    <glyph glyph-name="bracketleft" unicode="[" horiz-adv-x="735" 
d="M662 -176v-86h-457v1818h457v-86h-89q-34 0 -64.5 -5t-53.5 -20q-23 -16 -36 -45t-13 -77v-1352q0 -48 13 -77t36 -44q23 -16 53.5 -21t64.5 -5h89z" />
    <glyph glyph-name="backslash" unicode="\" horiz-adv-x="590" 
d="M590 -248h-121l-469 1804h119z" />
    <glyph glyph-name="bracketright" unicode="]" horiz-adv-x="737" 
d="M532 1556v-1818h-456v86h88q35 0 66 5t53 21q22 15 35.5 44t13.5 77v1352q0 48 -13.5 77t-35.5 45q-22 15 -53 20t-66 5h-88v86h456z" />
    <glyph glyph-name="asciicircum" unicode="^" horiz-adv-x="1145" 
d="M242 545h-138l431 917h71l432 -917h-137l-332 729z" />
    <glyph glyph-name="underscore" unicode="_" horiz-adv-x="940" 
d="M-10 -170h960v-121h-960v121z" />
    <glyph glyph-name="grave" unicode="`" horiz-adv-x="1182" 
d="M791 1268v-27h-78q-41 28 -89 69.5t-93 85.5t-82 84.5t-56 67.5v21h219q16 -34 37.5 -74.5t45.5 -80.5t49 -78.5t47 -67.5z" />
    <glyph glyph-name="braceleft" unicode="{" horiz-adv-x="877" 
d="M774 -174v-88h-135q-72 0 -127.5 21t-92.5 59t-56 92.5t-19 122.5v356q0 63 -18.5 104t-51.5 66q-33 24 -77 34.5t-95 12.5v86q51 2 95 12t77 35q33 24 51.5 65t18.5 103v357q0 140 74.5 216t220.5 76h135v-88h-61q-90 0 -129 -54t-39 -161v-350q0 -99 -57 -166t-171 -86
v-2q117 -20 172.5 -86.5t55.5 -167.5v-354q0 -104 39 -159.5t129 -55.5h61z" />
    <glyph glyph-name="bar" unicode="|" horiz-adv-x="1145" 
d="M510 1556h123v-2048h-123v2048z" />
    <glyph glyph-name="braceright" unicode="}" horiz-adv-x="877" 
d="M238 -262h-136v88h62q90 0 129 55.5t39 159.5v354q0 101 55 167.5t172 86.5v2q-113 19 -170 86t-57 166v350q0 107 -39 161t-129 54h-62v88h136q144 0 219 -76t75 -216v-357q0 -62 19 -103t52 -65q32 -25 76 -35t95 -12v-86q-51 -2 -95 -12.5t-76 -34.5q-33 -25 -52 -66
t-19 -104v-356q0 -68 -19 -122.5t-56 -92.5t-92 -59t-127 -21z" />
    <glyph glyph-name="asciitilde" unicode="~" horiz-adv-x="1149" 
d="M776 551q-30 0 -62 12.5t-63 31.5t-60 41.5t-52 43.5t-45 40.5t-43 34.5q-22 15 -44 24t-45 9q-60 0 -89 -58.5t-40 -178.5h-120q6 63 18.5 127.5t40.5 115.5t76 83t123 32q34 0 68 -13t66 -33t60.5 -44t52.5 -45q22 -20 43 -38.5t42 -32.5q20 -14 41 -22.5t42 -8.5
q57 0 84 62t41 175h123q-7 -63 -21 -127.5t-42 -115.5t-75.5 -83t-119.5 -32z" />
    <glyph glyph-name="nbsp" unicode="&#xa0;" horiz-adv-x="532" 
 />
    <glyph glyph-name="cent" unicode="&#xa2;" horiz-adv-x="1145" 
d="M360 741q0 -182 55 -291.5t169 -140.5v897q-49 -9 -90 -37.5t-71 -82.5t-46.5 -139.5t-16.5 -205.5zM686 0h-102v180q-93 10 -170.5 46t-133.5 102t-87 168t-31 243q0 151 33 258t90 174t134.5 100.5t164.5 41.5v149h102v-149q59 -5 118 -19.5t106 -39.5t76.5 -62.5
t29.5 -85.5q0 -71 -46 -100t-136 -29q0 42 -9 80.5t-27 69.5q-18 30 -46 51t-66 28v-909q42 0 84.5 6t81.5 16q39 9 73 20.5t58 22.5v-112q-53 -28 -130 -50t-167 -24v-176z" />
    <glyph glyph-name="multiply" unicode="&#xd7;" horiz-adv-x="1145" 
d="M997 393l-86 -86l-340 340l-340 -340l-86 88l340 340l-340 338l86 86l340 -340l340 342l86 -88l-340 -340z" />
    <glyph glyph-name="divide" unicode="&#xf7;" horiz-adv-x="1145" 
d="M469 1120q0 32 8 54t22 35t33 18.5t41 5.5t41 -5.5t34 -18.5q14 -13 22 -35t8 -54q0 -31 -8 -52.5t-22 -34.5q-15 -13 -34 -19t-41 -6t-41 6t-33 19t-22 34.5t-8 52.5zM133 793h879v-121h-879v121zM469 344q0 32 8 54t22 35t33 18.5t41 5.5t41 -5.5t34 -18.5
q14 -13 22 -35t8 -54q0 -31 -8 -53t-22 -35q-15 -13 -34 -19t-41 -6q-45 0 -74.5 25t-29.5 88z" />
    <glyph glyph-name="slash" unicode="&#x142;" horiz-adv-x="590" 
d="M471 1556h119l-469 -1804h-121z" />
    <glyph glyph-name="dCandraBinduInverted" unicode="&#x900;" horiz-adv-x="0" 
d="M296 1628q0 -33 -11 -47.5t-30 -24.5q-46 146 -113 205.5t-146 59.5q-84 0 -153 -60t-100 -187q-50 21 -70 44t-20 62q0 90 86.5 182t220.5 92q153 0 244.5 -115t91.5 -211zM-98 1583q0 40 29 69t69 29t68.5 -29t28.5 -69t-28.5 -68.5t-68.5 -28.5t-69 28.5t-29 68.5z
" />
    <glyph glyph-name="dCandraBindu" unicode="&#x901;" horiz-adv-x="0" 
d="M98 1857q0 -40 -29 -69t-69 -29t-68.5 29t-28.5 69t28.5 68.5t68.5 28.5t69 -28.5t29 -68.5zM-303 1812q0 33 11 47.5t30 24.5q46 -146 113 -205.5t146 -59.5q84 0 153 60t100 187q50 -21 70 -44t20 -62q0 -90 -86.5 -182t-220.5 -92q-153 0 -244.5 115t-91.5 211z" />
    <glyph glyph-name="dAnusvara" unicode="&#x902;" horiz-adv-x="0" 
d="M98 1557q0 -40 -29 -69t-69 -29t-68.5 29t-28.5 69t28.5 68.5t68.5 28.5t69 -28.5t29 -68.5z" />
    <glyph glyph-name="dVisarga" unicode="&#x903;" 
d="M182 908q0 45 32 77t77 32t77.5 -32t32.5 -77t-32.5 -77t-77.5 -32t-77 32t-32 77zM182 238q0 45 32 77t77 32t77.5 -32t32.5 -77t-32.5 -77t-77.5 -32t-77 32t-32 77z" />
    <glyph glyph-name="dAshort" unicode="&#x904;" horiz-adv-x="1550" 
d="M1606 1206l-6 -9h-258v-1209l-9 -7l-151 38v586q-37 -17 -70 -24.5t-67 -7.5t-71.5 7t-74.5 20q31 -51 47 -105.5t16 -111.5q0 -138 -91.5 -229.5t-249.5 -91.5q-281 0 -411 235.5t-130 366.5q0 53 19.5 71t54.5 21q40 -277 157.5 -404.5t266.5 -127.5q113 0 181 63
t68 161q0 76 -41 141t-107 94q-44 -18 -98.5 -31t-117.5 -20l-81 157l6 10q187 10 272.5 72.5t85.5 167.5q0 91 -55.5 138t-143.5 47q-104 0 -164 -59.5t-60 -147.5q-66 0 -106 33t-40 86q0 73 78.5 136t225.5 63q181 0 296 -103.5t115 -261.5q0 -69 -26 -124t-86 -106
q45 -23 91 -33.5t86 -10.5q96 0 160.5 54.5t64.5 156.5v290h-163l-56 124l6 9h225q9 24 13.5 46t4.5 38q0 72 -77 97.5t-220 46.5q-179 26 -377 85.5t-198 234.5q0 25 5 43.5t13 34.5q72 -121 175.5 -157.5t275.5 -66.5q225 -40 358 -103t167 -299h216z" />
    <glyph glyph-name="dA" unicode="&#x905;" horiz-adv-x="1550" 
d="M177 1136q0 73 78.5 136t225.5 63q181 0 296 -103.5t115 -261.5q0 -69 -26 -124t-86 -106q45 -23 91 -33.5t86 -10.5q96 0 160.5 54.5t64.5 156.5v290h-163l-56 124l6 9h581l56 -124l-6 -9h-258v-1209l-9 -7l-151 38v586q-37 -17 -70 -24.5t-67 -7.5t-71.5 7t-74.5 20
q31 -51 47 -105.5t16 -111.5q0 -138 -91.5 -229.5t-249.5 -91.5q-281 0 -411 235.5t-130 366.5q0 53 19.5 71t54.5 21q40 -277 157.5 -404.5t266.5 -127.5q113 0 181 63t68 161q0 76 -41 141t-107 94q-44 -18 -98.5 -31t-117.5 -20l-81 157l6 10q187 10 272.5 72.5
t85.5 167.5q0 91 -55.5 138t-143.5 47q-104 0 -164 -59.5t-60 -147.5q-66 0 -106 33t-40 86z" />
    <glyph glyph-name="dAa" unicode="&#x906;" horiz-adv-x="2033" 
d="M2089 1206l-6 -9h-258v-1209l-9 -7l-151 38v1178h-323v-1209l-9 -7l-151 38v586q-37 -17 -70 -24.5t-67 -7.5t-71.5 7t-74.5 20q31 -51 47 -105.5t16 -111.5q0 -138 -91.5 -229.5t-249.5 -91.5q-281 0 -411 235.5t-130 366.5q0 53 19.5 71t54.5 21q40 -277 157.5 -404.5
t266.5 -127.5q113 0 181 63t68 161q0 76 -41 141t-107 94q-44 -18 -98.5 -31t-117.5 -20l-81 157l6 10q187 10 272.5 72.5t85.5 167.5q0 91 -55.5 138t-143.5 47q-104 0 -164 -59.5t-60 -147.5q-66 0 -106 33t-40 86q0 73 78.5 136t225.5 63q181 0 296 -103.5t115 -261.5
q0 -69 -26 -124t-86 -106q45 -23 91 -33.5t86 -10.5q96 0 160.5 54.5t64.5 156.5v290h-163l-56 124l6 9h1064z" />
    <glyph glyph-name="dI" unicode="&#x907;" horiz-adv-x="1006" 
d="M794 885h-405q-73 0 -103 -27t-30 -68q0 -46 30.5 -73t81.5 -27q46 0 130 15.5t133 15.5q114 0 184.5 -99t70.5 -194q0 -116 -108.5 -192.5t-286.5 -86.5q46 -78 94 -105t119 -27q31 0 53.5 4.5t44.5 11.5q11 -21 16.5 -40t5.5 -35q0 -47 -36 -74t-90 -27
q-78 0 -159.5 68t-135.5 225q-118 10 -183 66t-65 125q0 56 36 81t75 25q51 0 87.5 -36.5t66.5 -99.5q162 -1 260 49t98 121q0 29 -17.5 51t-51.5 22q-28 0 -118.5 -11t-134.5 -11q-135 0 -238.5 121.5t-103.5 223.5q0 63 47 106t146 43h333q4 0 6 2t2 6v163h-648l-56 124
l6 9h1056l56 -124l-6 -9h-254v-304z" />
    <glyph glyph-name="dIi" unicode="&#x908;" horiz-adv-x="1006" 
d="M794 885h-405q-73 0 -103 -27t-30 -68q0 -46 30.5 -73t81.5 -27q46 0 130 15.5t133 15.5q114 0 184.5 -99t70.5 -194q0 -116 -108.5 -192.5t-286.5 -86.5q46 -78 94 -105t119 -27q31 0 53.5 4.5t44.5 11.5q11 -21 16.5 -40t5.5 -35q0 -47 -36 -74t-90 -27
q-78 0 -159.5 68t-135.5 225q-118 10 -183 66t-65 125q0 56 36 81t75 25q51 0 87.5 -36.5t66.5 -99.5q162 -1 260 49t98 121q0 29 -17.5 51t-51.5 22q-28 0 -118.5 -11t-134.5 -11q-135 0 -238.5 121.5t-103.5 223.5q0 63 47 106t146 43h333q4 0 6 2t2 6v163h-648l-56 124
l6 9h666q-57 54 -91.5 122.5t-34.5 140.5q0 104 72 182.5t191 78.5q100 0 164 -54.5t64 -121.5q0 -7 -1 -15t-3 -15q-43 37 -89 52t-86 15q-82 0 -128 -49.5t-46 -125.5q0 -62 30.5 -114.5t83.5 -95.5h264l56 -124l-6 -9h-254v-304z" />
    <glyph glyph-name="dU" unicode="&#x909;" horiz-adv-x="1118" 
d="M1168 1197h-342q55 -67 79.5 -126t24.5 -118q0 -63 -28 -116t-92 -101q89 -62 143 -150.5t54 -191.5q0 -135 -94.5 -229.5t-259.5 -94.5q-296 0 -435 251.5t-139 386.5q0 47 18 70.5t59 27.5q46 -287 170 -430.5t284 -143.5q112 0 185.5 63.5t73.5 167.5q0 83 -47 139.5
t-119 84.5q-47 -16 -104 -24t-122 -8l-68 164l6 9q180 1 278 56t98 147q0 59 -43.5 112.5t-133.5 53.5h-614l-56 124l6 9h1168l56 -124z" />
    <glyph glyph-name="dUu" unicode="&#x90a;" horiz-adv-x="1518" 
d="M826 1197q55 -67 79.5 -126t24.5 -118q0 -63 -28 -116t-92 -101q20 -13 38.5 -26.5t34.5 -27.5q73 77 131.5 112t126.5 35q134 0 231.5 -114.5t97.5 -286.5q0 -138 -60.5 -220t-134.5 -82q-42 0 -79.5 25t-57.5 62q88 40 144.5 122t56.5 185q0 82 -37 132.5t-100 50.5
q-54 0 -109.5 -40.5t-115.5 -119.5q14 -34 22 -71.5t8 -76.5q0 -136 -94.5 -230.5t-259.5 -94.5q-296 0 -435 251.5t-139 386.5q0 47 18 70.5t59 27.5q46 -287 170 -430.5t284 -143.5q112 0 185.5 63.5t73.5 167.5q0 83 -47 139.5t-119 84.5q-47 -16 -104 -24t-122 -8
l-68 164l6 9q180 1 278 56t98 147q0 59 -43.5 112.5t-133.5 53.5h-614l-56 124l6 9h1568l56 -124l-6 -9h-742z" />
    <glyph glyph-name="dRvocalic" unicode="&#x90b;" horiz-adv-x="1711" 
d="M954 1197v-484q83 7 152.5 30.5t129.5 64.5q-22 35 -32.5 64.5t-10.5 55.5q0 48 33 82.5t90 34.5q69 0 115 -48.5t46 -108.5q0 -39 -20 -78t-57 -75q95 -119 141.5 -208t46.5 -169q0 -101 -62 -161.5t-140 -60.5q-60 0 -99.5 36.5t-46.5 97.5q83 0 150.5 38.5t67.5 115.5
q0 33 -23.5 86t-107.5 168q-72 -46 -169 -76.5t-204 -34.5v-579l-9 -7l-151 38v503q-132 -93 -238 -179.5t-213 -184.5l-122 118v12q116 104 242.5 201.5t277.5 196.5q-137 103 -215.5 148t-133.5 45t-105.5 -40.5t-92.5 -113.5q-48 30 -74 64t-26 70q0 54 59.5 107
t170.5 53q78 0 167.5 -48.5t302.5 -207.5v434h-794l-56 124l6 9h1761l56 -124l-6 -9h-807z" />
    <glyph glyph-name="dLvocalic" unicode="&#x90c;" horiz-adv-x="1411" 
d="M1074 1197v-300q103 -31 174.5 -127.5t71.5 -229.5q0 -66 -25 -124t-96 -145q-72 -89 -133 -155t-61 -119q0 -31 22.5 -46t58.5 -15q56 0 130 37t115 114q28 -10 56.5 -41.5t28.5 -71.5q0 -60 -69.5 -112t-165.5 -52q-122 0 -213.5 80.5t-91.5 166.5q0 72 57.5 147
t104.5 129q77 88 118.5 156t41.5 137q0 72 -41.5 109t-102.5 36q-78 -1 -172.5 -75t-170.5 -255l-10 -3l-133 84q17 47 37.5 88.5t42.5 75.5q-51 52 -102.5 77t-100.5 25q-84 0 -135.5 -61t-51.5 -153q0 -117 90 -267.5t263 -272.5q-7 -19 -23 -30.5t-35 -11.5
q-86 0 -268.5 200.5t-182.5 432.5q0 130 75 214.5t206 84.5q78 0 155 -37.5t164 -129.5q51 59 108.5 95t113.5 49v296h-924l-56 124l6 9h1461l56 -124l-6 -9h-387z" />
    <glyph glyph-name="dEcandra" unicode="&#x90d;" horiz-adv-x="1126" 
d="M205 1812q0 33 11 47.5t30 24.5q46 -146 113 -205.5t146 -59.5q84 0 153 60t100 187q50 -21 70 -44t20 -62q0 -90 -86.5 -182t-220.5 -92q-153 0 -244.5 115t-91.5 211zM908 1197v-490q0 -75 -33.5 -119t-89.5 -44q-40 0 -77 21.5t-68 55.5q54 21 81 64.5t27 95.5v416
h-464l-1 -526q0 -99 91.5 -142.5t267.5 -125.5q266 -123 345 -204.5t79 -160.5q0 -83 -46.5 -131t-101.5 -48q-42 0 -80 24.5t-59 57.5q71 37 100.5 75.5t29.5 84.5q0 37 -37 66.5t-186 98.5q-310 142 -436.5 234t-126.5 287v410h-123l-56 124l6 9h1176l56 -124l-6 -9h-268z
" />
    <glyph glyph-name="dEshort" unicode="&#x90e;" horiz-adv-x="1126" 
d="M785 544q-40 0 -77 21.5t-68 55.5q54 21 81 64.5t27 95.5v416h-464l-1 -526q0 -99 91.5 -142.5t267.5 -125.5q266 -123 345 -204.5t79 -160.5q0 -83 -46.5 -131t-101.5 -48q-42 0 -80 24.5t-59 57.5q71 37 100.5 75.5t29.5 84.5q0 37 -37 66.5t-186 98.5
q-310 142 -436.5 234t-126.5 287v410h-123l-56 124l6 9h804q9 24 13.5 46t4.5 39q0 72 -77.5 96.5t-219.5 46.5q-178 27 -366.5 86.5t-188.5 233.5q0 25 5 43.5t13 34.5q69 -121 168 -157.5t263 -66.5q229 -41 360 -103.5t165 -298.5h232l56 -124l-6 -9h-268v-490
q0 -75 -33.5 -119t-89.5 -44z" />
    <glyph glyph-name="dE" unicode="&#x90f;" horiz-adv-x="1126" 
d="M908 1197v-490q0 -75 -33.5 -119t-89.5 -44q-40 0 -77 21.5t-68 55.5q54 21 81 64.5t27 95.5v416h-464l-1 -526q0 -99 91.5 -142.5t267.5 -125.5q266 -123 345 -204.5t79 -160.5q0 -83 -46.5 -131t-101.5 -48q-42 0 -80 24.5t-59 57.5q71 37 100.5 75.5t29.5 84.5
q0 37 -37 66.5t-186 98.5q-310 142 -436.5 234t-126.5 287v410h-123l-56 124l6 9h1176l56 -124l-6 -9h-268z" />
    <glyph glyph-name="dAi" unicode="&#x910;" horiz-adv-x="1126" 
d="M785 544q-40 0 -77 21.5t-68 55.5q54 21 81 64.5t27 95.5v416h-464l-1 -526q0 -99 91.5 -142.5t267.5 -125.5q266 -123 345 -204.5t79 -160.5q0 -83 -46.5 -131t-101.5 -48q-42 0 -80 24.5t-59 57.5q71 37 100.5 75.5t29.5 84.5q0 37 -37 66.5t-186 98.5
q-312 143 -437.5 234.5t-125.5 286.5v410h-123l-56 124l6 9h812q-202 256 -305.5 348.5t-190.5 92.5q-55 0 -93.5 -26.5t-63.5 -76.5q-43 14 -71 46t-28 74q0 53 49 93.5t138 40.5q101 0 243.5 -105t438.5 -487h247l56 -124l-6 -9h-268v-490q0 -75 -33.5 -119t-89.5 -44z
" />
    <glyph glyph-name="dOcandra" unicode="&#x911;" horiz-adv-x="2033" 
d="M1178 1812q0 33 11 47.5t30 24.5q46 -146 113 -205.5t146 -59.5q84 0 153 60t100 187q50 -21 70 -44t20 -62q0 -90 -86.5 -182t-220.5 -92q-153 0 -244.5 115t-91.5 211zM2089 1206l-6 -9h-258v-1209l-9 -7l-151 38v1178h-323v-1209l-9 -7l-151 38v586q-37 -17 -70 -24.5
t-67 -7.5t-71.5 7t-74.5 20q31 -51 47 -105.5t16 -111.5q0 -138 -91.5 -229.5t-249.5 -91.5q-281 0 -411 235.5t-130 366.5q0 53 19.5 71t54.5 21q40 -277 157.5 -404.5t266.5 -127.5q113 0 181 63t68 161q0 76 -41 141t-107 94q-44 -18 -98.5 -31t-117.5 -20l-81 157l6 10
q187 10 272.5 72.5t85.5 167.5q0 91 -55.5 138t-143.5 47q-104 0 -164 -59.5t-60 -147.5q-66 0 -106 33t-40 86q0 73 78.5 136t225.5 63q181 0 296 -103.5t115 -261.5q0 -69 -26 -124t-86 -106q45 -23 91 -33.5t86 -10.5q96 0 160.5 54.5t64.5 156.5v290h-163l-56 124l6 9
h1064z" />
    <glyph glyph-name="dOshort" unicode="&#x912;" horiz-adv-x="2033" 
d="M2089 1206l-6 -9h-258v-1209l-9 -7l-151 38v1178h-323v-1209l-9 -7l-151 38v586q-37 -17 -70 -24.5t-67 -7.5t-71.5 7t-74.5 20q31 -51 47 -105.5t16 -111.5q0 -138 -91.5 -229.5t-249.5 -91.5q-281 0 -411 235.5t-130 366.5q0 53 19.5 71t54.5 21q40 -277 157.5 -404.5
t266.5 -127.5q113 0 181 63t68 161q0 76 -41 141t-107 94q-44 -18 -98.5 -31t-117.5 -20l-81 157l6 10q187 10 272.5 72.5t85.5 167.5q0 91 -55.5 138t-143.5 47q-104 0 -164 -59.5t-60 -147.5q-66 0 -106 33t-40 86q0 73 78.5 136t225.5 63q181 0 296 -103.5t115 -261.5
q0 -69 -26 -124t-86 -106q45 -23 91 -33.5t86 -10.5q96 0 160.5 54.5t64.5 156.5v290h-163l-56 124l6 9h712q9 24 13.5 46t4.5 38q0 72 -77 97.5t-220 46.5q-179 26 -377 85.5t-198 234.5q0 25 5 43.5t13 34.5q72 -121 175.5 -157.5t275.5 -66.5q225 -40 358 -103t167 -299
h212z" />
    <glyph glyph-name="dO" unicode="&#x913;" horiz-adv-x="2033" 
d="M2089 1206l-6 -9h-258v-1209l-9 -7l-151 38v1178h-323v-1209l-9 -7l-151 38v586q-37 -17 -70 -24.5t-67 -7.5t-71.5 7t-74.5 20q31 -51 47 -105.5t16 -111.5q0 -138 -91.5 -229.5t-249.5 -91.5q-281 0 -411 235.5t-130 366.5q0 53 19.5 71t54.5 21q40 -277 157.5 -404.5
t266.5 -127.5q113 0 181 63t68 161q0 76 -41 141t-107 94q-44 -18 -98.5 -31t-117.5 -20l-81 157l6 10q187 10 272.5 72.5t85.5 167.5q0 91 -55.5 138t-143.5 47q-104 0 -164 -59.5t-60 -147.5q-66 0 -106 33t-40 86q0 73 78.5 136t225.5 63q181 0 296 -103.5t115 -261.5
q0 -69 -26 -124t-86 -106q45 -23 91 -33.5t86 -10.5q96 0 160.5 54.5t64.5 156.5v290h-163l-56 124l6 9h705q-221 278 -320 359.5t-177 81.5q-55 0 -93.5 -26.5t-63.5 -76.5q-42 13 -70.5 45t-28.5 72q0 49 49.5 93t141.5 44q96 0 239 -104t439 -488h243z" />
    <glyph glyph-name="dAu" unicode="&#x914;" horiz-adv-x="2033" 
d="M2089 1206l-6 -9h-258v-1209l-9 -7l-151 38v1178h-323v-1209l-9 -7l-151 38v586q-37 -17 -70 -24.5t-67 -7.5t-71.5 7t-74.5 20q31 -51 47 -105.5t16 -111.5q0 -138 -91.5 -229.5t-249.5 -91.5q-281 0 -411 235.5t-130 366.5q0 53 19.5 71t54.5 21q40 -277 157.5 -404.5
t266.5 -127.5q113 0 181 63t68 161q0 76 -41 141t-107 94q-44 -18 -98.5 -31t-117.5 -20l-81 157l6 10q187 10 272.5 72.5t85.5 167.5q0 91 -55.5 138t-143.5 47q-104 0 -164 -59.5t-60 -147.5q-66 0 -106 33t-40 86q0 73 78.5 136t225.5 63q181 0 296 -103.5t115 -261.5
q0 -69 -26 -124t-86 -106q45 -23 91 -33.5t86 -10.5q96 0 160.5 54.5t64.5 156.5v290h-163l-56 124l6 9h698q-143 128 -272 193.5t-202 65.5q-48 0 -81 -27.5t-52 -73.5q-58 15 -85 45.5t-27 69.5q0 55 45 92t111 37q99 0 253.5 -79.5t317.5 -207.5q-92 275 -147.5 347
t-106.5 72q-36 0 -63 -17.5t-47 -45.5q-39 14 -66 39.5t-27 64.5q0 43 37 80t110 37q91 0 203 -122.5t242 -569.5h223z" />
    <glyph glyph-name="dKa" unicode="&#x915;" horiz-adv-x="1542" 
d="M733 632q0 84 -67 147.5t-172 63.5q-111 0 -178.5 -72t-67.5 -174q0 -105 68.5 -172t169.5 -67q96 0 171.5 58.5t75.5 151.5v64zM893 1197v-364q48 47 103.5 73t122.5 26q136 0 236.5 -106t100.5 -297q0 -157 -65 -243t-136 -86q-39 0 -75.5 24.5t-59.5 62.5
q103 54 157 149.5t54 189.5q0 85 -41 132t-107 47q-92 0 -191 -86.5t-99 -222.5v-508l-9 -7l-151 38v260q-47 -33 -91.5 -46.5t-87.5 -13.5q-154 0 -304.5 132t-150.5 316q0 136 91.5 228t231.5 92q70 0 153.5 -31t157.5 -110v351h-733l-56 124l6 9h1592l56 -124l-6 -9h-699
z" />
    <glyph glyph-name="dKha" unicode="&#x916;" horiz-adv-x="1566" 
d="M1198 651q0 72 -60.5 135.5t-158.5 63.5q-93 0 -147 -60.5t-54 -144.5q0 -98 65 -152.5t147 -54.5q85 0 146.5 53t61.5 124v36zM1358 1197v-1209l-9 -7l-151 38v343q-43 -25 -78 -35.5t-72 -10.5q-144 0 -277 120t-133 281q0 116 77 192.5t201 76.5q77 0 148 -34
t134 -103v348h-776q42 -92 68.5 -183t26.5 -181q0 -135 -64.5 -224t-190.5 -126q118 -160 294 -261.5t407 -135.5q-13 -47 -45.5 -68.5t-86.5 -21.5q-213 0 -483 236.5t-270 421.5q0 60 34.5 92.5t97.5 32.5q30 0 63 -7.5t67 -20.5q23 30 33 70t10 91q0 60 -14 134t-46 151
h-323l-56 124l6 9h1616l56 -124l-6 -9h-258z" />
    <glyph glyph-name="dGa" unicode="&#x917;" horiz-adv-x="1242" 
d="M1035 1197v-1209l-9 -7l-151 38v1178h-435v-673q0 -81 -22.5 -121t-66.5 -40q-78 0 -169 95.5t-91 151.5q0 22 18.5 39t60.5 17h115v531h-284l-56 124l6 9h1291l56 -124l-6 -9h-257z" />
    <glyph glyph-name="dGha" unicode="&#x918;" horiz-adv-x="1261" 
d="M1054 1197v-1209l-9 -7l-151 38v270q-57 -34 -115.5 -51t-120.5 -17q-168 0 -283.5 106.5t-115.5 243.5q0 45 14 89.5t39 82.5q-101 62 -158.5 135t-57.5 177q0 38 9.5 71.5t31.5 70.5h-137l-56 124l6 9h1311l56 -124l-6 -9h-257zM894 1197h-430q-93 0 -152.5 -64
t-59.5 -142q0 -57 33.5 -100.5t93.5 -75.5q41 36 94 63t113 40l112 -130l-4 -11q-147 -39 -225 -113.5t-78 -156.5q0 -67 49.5 -111.5t135.5 -44.5q98 0 207.5 65.5t110.5 193.5v587z" />
    <glyph glyph-name="dNga" unicode="&#x919;" horiz-adv-x="1192" 
d="M911 766q0 39 28 67t68 28q39 0 67 -28t28 -67q0 -40 -28 -68t-67 -28q-40 0 -68 28t-28 68zM842 1197v-304l-8 -8h-375q-80 0 -111.5 -27.5t-31.5 -70.5q0 -48 32.5 -77.5t95.5 -29.5q44 0 113.5 10.5t109.5 10.5q107 0 195 -97.5t88 -236.5q0 -125 -80.5 -196.5
t-220.5 -71.5q-246 0 -398.5 171.5t-159.5 264.5q-2 28 9 49t33 32q91 -182 213.5 -271.5t248.5 -89.5q100 0 175 49.5t75 125.5q0 46 -29.5 77.5t-79.5 31.5q-30 0 -101.5 -8.5t-110.5 -8.5q-124 0 -232 108.5t-108 234.5q0 75 47 118t146 43h303q4 0 6 2t2 6v163h-688
l-56 124l6 9h1242l56 -124l-6 -9h-400z" />
    <glyph glyph-name="dCa" unicode="&#x91a;" horiz-adv-x="1321" 
d="M1114 1197v-1209l-9 -7l-151 38v312q-62 -41 -126 -60.5t-131 -19.5q-183 0 -300.5 116t-117.5 259q0 54 19 104t57 100h-237l-56 124l6 9h678l56 -124l-6 -9h-55q-150 0 -240 -82.5t-90 -182.5q0 -81 60 -136.5t161 -55.5q129 0 225.5 87t96.5 200v537h-954l-56 124l6 9
h1371l56 -124l-6 -9h-257z" />
    <glyph glyph-name="dCha" unicode="&#x91b;" horiz-adv-x="1370" 
d="M1061 1197v-155q93 -35 142.5 -129.5t49.5 -218.5q0 -239 -164 -436t-399 -197q-181 0 -301.5 115.5t-120.5 249.5q0 40 12.5 82t34.5 76q-101 51 -150.5 124t-49.5 150q0 101 73 165.5t177 64.5q69 0 113.5 -34t76.5 -107q-159 0 -226.5 -41.5t-67.5 -107.5
q0 -46 30.5 -81t95.5 -63q39 29 89.5 48.5t108.5 25.5l111 -129l-4 -10q-148 -24 -220 -89t-72 -142q0 -75 61 -118t150 -43q122 0 232.5 75t182.5 186q-134 104 -193 205.5t-59 189.5q0 76 39 130t108 72v142h-922l-56 124l6 9h1421l56 -124l-6 -9h-359zM1076 539
q25 58 39 120.5t14 120.5q0 77 -24 114.5t-70 37.5q-52 0 -86.5 -42t-34.5 -99t39 -120t123 -132z" />
    <glyph glyph-name="dJa" unicode="&#x91c;" horiz-adv-x="1427" 
d="M1220 1197v-1209l-9 -7l-151 38v771h-333q62 -68 91.5 -140.5t29.5 -143.5q0 -126 -82 -202.5t-206 -76.5q-245 0 -354 237t-110 362q-1 51 18 72t63 25q37 -278 128.5 -406t211.5 -128q78 0 135.5 49t57.5 140q0 82 -54 147t-156 65l-56 124l6 9h610v274h-1054l-56 124
l6 9h1471l56 -124l-6 -9h-257z" />
    <glyph glyph-name="dJha" unicode="&#x91d;" horiz-adv-x="1504" 
d="M776 893l-8 -8h-375q-73 0 -103 -27t-30 -68q0 -46 30 -73t84 -27q42 0 127.5 11.5t131.5 11.5q35 0 66 -9t59 -22q40 -21 77.5 -28.5t70.5 -7.5q101 0 165.5 55t64.5 156v340h-360v-304zM1296 1197v-1209l-9 -7l-151 38v539q-36 -19 -67 -27t-66 -8t-71 6.5t-70 16.5
q16 -35 22 -61.5t6 -50.5q0 -124 -109 -199t-286 -86q46 -78 94 -105t118 -27q32 0 54.5 4.5t44.5 11.5q11 -21 16.5 -40t5.5 -35q0 -47 -36 -74t-90 -27q-78 0 -159.5 68t-135.5 225q-118 10 -183 66t-65 125q0 56 36 81t75 25q51 0 87.5 -36.5t66.5 -99.5
q157 -1 257.5 47.5t100.5 124.5q0 30 -17 53t-53 23q-26 0 -117.5 -9.5t-133.5 -9.5q-136 0 -239.5 117.5t-103.5 219.5q0 63 47 106t146 43h303q4 0 6 2t2 6v163h-618l-56 124l6 9h1550l56 -124l-6 -9h-258z" />
    <glyph glyph-name="dNya" unicode="&#x91e;" horiz-adv-x="1537" 
d="M1330 1197v-1209l-9 -7l-151 38v472q-16 -4 -28.5 -6t-23.5 -2q-46 0 -88.5 22t-81.5 60q-4 -163 -93.5 -266.5t-250.5 -103.5q-254 0 -377.5 211t-123.5 337q0 41 16 64t60 23q38 -242 136.5 -357.5t235.5 -115.5q115 0 192.5 73t77.5 193q0 96 -51.5 157.5t-133.5 61.5
q-43 0 -91 -24t-87 -95q-51 13 -76 46t-25 70q0 57 53.5 106t144.5 49q113 0 214 -80.5t148 -199.5q36 -38 68 -53t65 -15q44 0 82 29.5t38 111.5v410h-1170l-56 124l6 9h1587l56 -124l-6 -9h-257z" />
    <glyph glyph-name="dTta" unicode="&#x91f;" horiz-adv-x="1058" 
d="M842 1197v-370l-8 -8h-221q-171 0 -267.5 -86t-96.5 -215q0 -117 80.5 -206.5t231.5 -89.5q118 0 209.5 59t130.5 154q48 -15 71.5 -45t23.5 -69q0 -90 -107 -160t-255 -70q-225 0 -379 158.5t-154 342.5q0 155 119 264.5t337 109.5h123q4 0 6 2t2 6v223h-688l-56 124
l6 9h1108l56 -124l-6 -9h-266z" />
    <glyph glyph-name="dTtha" unicode="&#x920;" horiz-adv-x="1138" 
d="M792 1197v-312q107 -69 180 -177.5t73 -236.5q0 -165 -122 -277.5t-301 -112.5q-220 0 -377.5 159.5t-157.5 347.5q0 153 113.5 265.5t312.5 112.5h117q4 0 6 2t2 6v223h-638l-56 124l6 9h1188l56 -124l-6 -9h-396zM904 542q0 107 -74.5 192t-243.5 85q-170 0 -263.5 -89
t-93.5 -213q0 -123 87.5 -214t230.5 -91q142 0 249.5 93t107.5 237z" />
    <glyph glyph-name="dDda" unicode="&#x921;" horiz-adv-x="1052" 
d="M862 1197v-304l-8 -8h-395q-80 0 -111.5 -27.5t-31.5 -70.5q0 -48 32.5 -77.5t95.5 -29.5q44 0 113.5 10.5t109.5 10.5q107 0 195 -97.5t88 -236.5q0 -125 -80.5 -196.5t-220.5 -71.5q-246 0 -398.5 171.5t-159.5 264.5q-2 28 9 49t33 32q91 -182 213.5 -271.5
t248.5 -89.5q100 0 175 49.5t75 125.5q0 46 -29.5 77.5t-79.5 31.5q-30 0 -101.5 -8.5t-110.5 -8.5q-124 0 -232 108.5t-108 234.5q0 75 47 118t146 43h323q4 0 6 2t2 6v163h-708l-56 124l6 9h1102l56 -124l-6 -9h-240z" />
    <glyph glyph-name="dDdha" unicode="&#x922;" horiz-adv-x="1057" 
d="M841 1197v-360l-8 -8h-221q-171 0 -267.5 -89t-96.5 -221q0 -124 87 -225.5t249 -101.5q22 0 48 2.5t51 8.5q-74 75 -104.5 137t-30.5 122q0 90 54.5 141.5t135.5 51.5q110 0 186.5 -85t76.5 -198q0 -133 -104.5 -222t-255.5 -89q-215 0 -375 167.5t-160 364.5
q0 160 119 271.5t336 111.5h118q4 0 6 2t2 6v213h-688l-56 124l6 9h1108l56 -124l-6 -9h-266zM900 425q0 48 -28.5 77t-69.5 29q-47 0 -81.5 -36.5t-34.5 -92.5q0 -36 17 -77.5t56 -90.5q64 33 102.5 85t38.5 106z" />
    <glyph glyph-name="dNna" unicode="&#x923;" horiz-adv-x="1421" 
d="M1214 1197v-1209l-9 -7l-151 38v1178h-245v-566q0 -122 -80.5 -201t-200.5 -79q-151 0 -275 119.5t-124 284.5v442h-129l-56 124l6 9h1471l56 -124l-6 -9h-257zM289 1197v-527q0 -98 50.5 -147.5t122.5 -49.5q80 0 136 59.5t56 167.5v497h-365z" />
    <glyph glyph-name="dTa" unicode="&#x924;" horiz-adv-x="1191" 
d="M984 1197v-1209l-9 -7l-151 38v759h-386q-111 0 -157 -62.5t-46 -151.5q0 -128 80 -276.5t218 -267.5q-7 -19 -22 -28.5t-31 -9.5q-80 0 -237 207t-157 440q0 134 70.5 214t209.5 80h458v274h-824l-56 124l6 9h1241l56 -124l-6 -9h-257z" />
    <glyph glyph-name="dTha" unicode="&#x925;" horiz-adv-x="1341" 
d="M78 1186q0 93 68 147t161 54q142 0 260 -118.5t118 -284.5q0 -130 -87.5 -230t-265.5 -163q77 -106 171 -148t173 -42q120 0 209 77t89 202v517h-194l-56 124l6 9h611l56 -124l-6 -9h-257v-1209l-9 -7l-151 38v297q-51 -37 -105.5 -56t-120.5 -19q-152 0 -309 108
t-294 351l5 10q202 57 298.5 146t96.5 208q0 93 -50.5 144.5t-124.5 51.5q-60 0 -101 -33t-41 -91q0 -51 39 -99.5t132 -85.5q-7 -11 -23 -20t-46 -9q-88 0 -170 80t-82 184z" />
    <glyph glyph-name="dDa" unicode="&#x926;" horiz-adv-x="1058" 
d="M834 819h-221q-171 0 -267.5 -86.5t-96.5 -214.5q0 -114 79 -206.5t227 -92.5q46 0 89.5 10t78.5 28q-22 28 -33 53.5t-11 53.5q0 55 37 95t97 40q69 0 110.5 -50t41.5 -110q0 -43 -20 -82t-50 -67q82 -91 108.5 -147.5t26.5 -102.5q0 -65 -34.5 -103.5t-84.5 -38.5
q-42 0 -74.5 27.5t-51.5 76.5q54 14 86.5 42.5t32.5 64.5q0 24 -17.5 55.5t-59.5 75.5q-42 -22 -94.5 -35.5t-112.5 -13.5q-213 0 -363 159t-150 344q0 143 108.5 257.5t346.5 114.5h118q4 0 6 2t2 6v223h-688l-56 124l6 9h1108l56 -124l-6 -9h-266v-370z" />
    <glyph glyph-name="dDha" unicode="&#x927;" horiz-adv-x="1315" 
d="M1108 1197v-1209l-9 -7l-151 38v268q-57 -34 -114 -50t-120 -16q-180 0 -300.5 111t-120.5 248q0 54 19.5 108.5t54.5 95.5q-134 84 -200.5 181t-66.5 188q0 94 65 164t174 70q110 0 183 -70.5t73 -156.5q0 -49 -20 -61t-34 -12q-11 90 -57 124t-91 34q-58 0 -97.5 -43.5
t-39.5 -106.5q0 -62 44 -125.5t143 -120.5q41 27 91 45t106 24l111 -129l-4 -11q-157 -24 -239.5 -94t-82.5 -160q0 -75 55 -124t151 -49q101 0 209 63.5t108 195.5v587h-194l-56 124l6 9h611l56 -124l-6 -9h-257z" />
    <glyph glyph-name="dNa" unicode="&#x928;" horiz-adv-x="1123" 
d="M916 1197v-1209l-9 -7l-151 38v689h-396v-145q0 -42 -17 -60.5t-38 -18.5q-57 0 -152.5 99t-95.5 180q0 55 53 72.5t128 17.5h518v344h-754l-56 124l6 9h1171l56 -124l-6 -9h-257z" />
    <glyph glyph-name="dNnna" unicode="&#x929;" horiz-adv-x="1117" 
d="M910 1197v-1209l-9 -7l-151 38v689h-396v-145q0 -42 -17 -60.5t-38 -18.5q-57 0 -152.5 99t-95.5 180q0 55 53 72.5t128 17.5h518v344h-754l-56 124l6 9h1171l56 -124l-6 -9h-257zM302 77q0 39 28 67t68 28q39 0 67 -28t28 -67q0 -40 -28 -68t-67 -28q-40 0 -68 28
t-28 68z" />
    <glyph glyph-name="dPa" unicode="&#x92a;" horiz-adv-x="1110" 
d="M902 1197v-1209l-9 -7l-151 38v402q-56 -36 -111.5 -53t-110.5 -17q-151 0 -272 120.5t-121 283.5v442h-129l-56 124l6 9h1162l56 -124l-6 -9h-258zM287 1197v-527q0 -96 46.5 -146.5t126.5 -50.5q107 0 194.5 80.5t87.5 196.5v447h-455z" />
    <glyph glyph-name="dPha" unicode="&#x92b;" horiz-adv-x="1483" 
d="M292 1197v-537q0 -87 38.5 -132t107.5 -45q92 0 170.5 69t78.5 168v477h-395zM1068 942q130 0 230.5 -97.5t100.5 -287.5q0 -155 -65 -241t-136 -86q-39 0 -75.5 24.5t-59.5 62.5q101 51 156 143.5t55 186.5q0 81 -38.5 124.5t-104.5 43.5q-93 0 -188.5 -83t-95.5 -214
v-530l-9 -7l-151 38v398q-50 -29 -98 -42.5t-92 -13.5q-142 0 -253.5 114t-111.5 270v452h-129l-56 124l6 9h1530l56 -124l-6 -9h-686v-348q48 47 103 70t118 23z" />
    <glyph glyph-name="dBa" unicode="&#x92c;" horiz-adv-x="1160" 
d="M953 1197v-1209l-9 -7l-151 38v278q-63 -43 -126 -60.5t-115 -17.5q-166 0 -319.5 132t-153.5 315q0 145 105.5 243t263.5 98q89 0 179.5 -36.5t165.5 -115.5v342h-793l-56 124l6 9h1210l56 -124l-6 -9h-257zM793 618v34q0 90 -79 150.5t-194 60.5q-34 0 -68 -6.5
t-62 -19.5l324 -395q36 34 57.5 79.5t21.5 96.5zM228 597q0 -104 70 -175.5t183 -71.5q35 0 73 8t69 24l-327 392q-32 -35 -50 -80.5t-18 -96.5z" />
    <glyph glyph-name="dBha" unicode="&#x92d;" horiz-adv-x="1383" 
d="M320 934q-88 0 -170 80t-82 184q0 79 54 134t144 55q134 0 236.5 -120t102.5 -294v-310h411v534h-282l-56 124l6 9h699l56 -124l-6 -9h-257v-1209l-9 -7l-151 38v499h-411v-145q0 -42 -17 -60.5t-38 -18.5q-57 0 -152.5 99t-95.5 180q0 51 44 69t101 20v407
q0 103 -30 147t-86 44q-51 0 -82 -30.5t-31 -81.5t39 -99.5t132 -85.5q-7 -11 -23 -20t-46 -9z" />
    <glyph glyph-name="dMa" unicode="&#x92e;" horiz-adv-x="1196" 
d="M989 1197v-1209l-9 -7l-151 38v489h-461v-145q0 -42 -17 -60.5t-38 -18.5q-57 0 -152.5 99t-95.5 179q0 35 31 61.5t114 28.5v545h-210l-56 124l6 9h1246l56 -124l-6 -9h-257zM829 653v544h-461v-544h461z" />
    <glyph glyph-name="dYa" unicode="&#x92f;" horiz-adv-x="1248" 
d="M1041 -12l-9 -7l-151 38v315q-51 -37 -105.5 -55t-117.5 -18q-151 0 -299 114t-277 365l5 10q167 47 231 110t64 157q0 49 -12.5 96.5t-30.5 83.5h-339l-56 124l6 9h1298l56 -124l-6 -9h-257v-1209zM440 1197q36 -66 59 -135.5t23 -135.5q0 -107 -65 -180t-190 -118
q67 -113 154 -160t168 -47q113 0 202.5 74t89.5 195v507h-441z" />
    <glyph glyph-name="dRa" unicode="&#x930;" horiz-adv-x="866" 
d="M916 1197h-355q37 -85 61.5 -170.5t24.5 -164.5q0 -125 -83.5 -231t-308.5 -147q96 -146 211.5 -243t266.5 -175q-7 -31 -35 -49.5t-59 -18.5q-133 0 -347 252.5t-214 402.5q0 52 34.5 89t100.5 37q37 0 85 -13.5t99 -42.5q61 33 88.5 85t27.5 130q0 53 -12.5 121.5
t-38.5 137.5h-462l-56 124l6 9h916l56 -124z" />
    <glyph glyph-name="dRra" unicode="&#x931;" horiz-adv-x="866" 
d="M916 1197h-355q37 -85 61.5 -170.5t24.5 -164.5q0 -125 -83.5 -231t-308.5 -147q96 -146 211.5 -243t266.5 -175q-7 -31 -35 -49.5t-59 -18.5q-133 0 -347 252.5t-214 402.5q0 52 34.5 89t100.5 37q37 0 85 -13.5t99 -42.5q61 33 88.5 85t27.5 130q0 53 -12.5 121.5
t-38.5 137.5h-462l-56 124l6 9h916l56 -124zM76 77q0 39 28 67t68 28q39 0 67 -28t28 -67q0 -40 -28 -68t-67 -28q-40 0 -68 28t-28 68z" />
    <glyph glyph-name="dLa" unicode="&#x932;" horiz-adv-x="1411" 
d="M1204 1197v-1209l-9 -7l-151 38v774q-137 -37 -213 -122.5t-115 -229.5l-11 -4l-142 95q13 46 32 87.5t44 78.5q-50 51 -98.5 75.5t-96.5 24.5q-78 0 -127 -58t-49 -149q0 -125 96 -284.5t267 -282.5q-7 -19 -23 -30.5t-35 -11.5q-88 0 -275 218t-187 456q0 129 72 209.5
t196 80.5q76 0 153 -39t164 -138q65 69 154.5 109.5t193.5 49.5v269h-1044l-56 124l6 9h1461l56 -124l-6 -9h-257z" />
    <glyph glyph-name="dLla" unicode="&#x933;" horiz-adv-x="1437" 
d="M1080 1197v-310q125 -37 218 -155t93 -262q0 -137 -86.5 -230t-214.5 -93q-90 0 -179 53t-182 161q-52 -93 -111.5 -148.5t-154.5 -55.5q-151 0 -276 130.5t-125 299.5q0 137 89 230t225 93q89 0 179.5 -46t186.5 -140q46 74 88.5 115.5t99.5 54.5v303h-924l-56 124l6 9
h1481l56 -124l-6 -9h-407zM1247 547q0 96 -52 159t-142 63q-66 0 -121.5 -59.5t-156.5 -260.5q60 -83 121.5 -122t126.5 -39q99 0 161.5 76t62.5 183zM695 641q-60 63 -123 95.5t-129 32.5q-107 0 -172 -75.5t-65 -182.5q0 -97 53 -160t140 -63q86 0 139.5 78.5t156.5 274.5
z" />
    <glyph glyph-name="dLlla" unicode="&#x934;" horiz-adv-x="1431" 
d="M1074 1197v-310q125 -37 218 -155t93 -262q0 -137 -86.5 -230t-214.5 -93q-90 0 -179 53t-182 161q-52 -93 -111.5 -148.5t-154.5 -55.5q-151 0 -276 130.5t-125 299.5q0 137 89 230t225 93q89 0 179.5 -46t186.5 -140q46 74 88.5 115.5t99.5 54.5v303h-924l-56 124l6 9
h1481l56 -124l-6 -9h-407zM1241 547q0 96 -52 159t-142 63q-66 0 -121.5 -59.5t-156.5 -260.5q60 -83 121.5 -122t126.5 -39q99 0 161.5 76t62.5 183zM689 641q-60 63 -123 95.5t-129 32.5q-107 0 -172 -75.5t-65 -182.5q0 -97 53 -160t140 -63q86 0 139.5 78.5t156.5 274.5
zM666 -26q0 39 28 67t68 28q39 0 67 -28t28 -67q0 -40 -28 -68t-67 -28q-40 0 -68 28t-28 68z" />
    <glyph glyph-name="dVa" unicode="&#x935;" horiz-adv-x="1160" 
d="M953 1197v-1209l-9 -7l-151 38v278q-63 -43 -126 -60.5t-115 -17.5q-166 0 -319.5 132t-153.5 315q0 145 105.5 243t263.5 98q89 0 179.5 -36.5t165.5 -115.5v342h-793l-56 124l6 9h1210l56 -124l-6 -9h-257zM793 652q0 90 -79 150.5t-194 60.5q-131 0 -211.5 -77
t-80.5 -189q0 -104 70 -175.5t183 -71.5q116 0 214 76.5t98 191.5v34z" />
    <glyph glyph-name="dSha" unicode="&#x936;" horiz-adv-x="1493" 
d="M707 986q0 111 -48 165t-123 54q-74 0 -110 -45.5t-36 -111.5q0 -84 61 -155.5t198 -140.5q28 55 43 114.5t15 119.5zM847 905q0 -139 -87.5 -302t-297.5 -248q59 -127 133 -173.5t155 -46.5q43 0 77 10t68 26q12 -23 17 -44t5 -37q0 -48 -37.5 -81.5t-107.5 -33.5
q-86 0 -193 74t-209 287q-128 2 -205 61t-77 134q0 51 35 82.5t87 31.5q50 0 100 -31t90 -97q61 28 112.5 70.5t88.5 89.5q-189 84 -275 186.5t-86 224.5q0 31 5.5 58.5t15.5 50.5h-259l-56 124l6 9h1541l56 -124l-6 -9h-257v-1209l-9 -7l-151 38v1178h-390
q54 -65 82.5 -136.5t28.5 -155.5z" />
    <glyph glyph-name="dSsa" unicode="&#x937;" horiz-adv-x="1112" 
d="M904 1197v-1209l-9 -7l-151 38v402q-56 -36 -111.5 -53t-110.5 -17q-151 0 -272 120.5t-121 283.5v442h-129l-56 124l6 9h1162l56 -124l-6 -9h-258zM293 1197l428 -556q12 25 17.5 52t5.5 57v447h-451zM289 670q0 -96 46.5 -146.5t126.5 -50.5q54 0 106 22.5t92 61.5
l-371 475v-362z" />
    <glyph glyph-name="dSa" unicode="&#x938;" horiz-adv-x="1364" 
d="M508 1197q43 -92 68 -176.5t25 -169.5q0 -51 -12 -96.5t-43 -94.5q53 -17 105.5 -25.5t92.5 -8.5q110 0 180.5 57.5t71.5 146.5v367h-488zM1156 1197v-1209l-9 -7l-151 38v523q-45 -22 -86.5 -30.5t-82.5 -8.5q-78 0 -167 25t-170 63q-40 -36 -95.5 -62.5t-135.5 -44.5
q93 -143 210 -241.5t268 -176.5q-7 -31 -35 -49.5t-59 -18.5q-133 0 -347 252.5t-214 402.5q0 52 34.5 89t100.5 37q33 0 75.5 -11t88.5 -35q45 33 65.5 81.5t20.5 117.5q0 59 -14.5 127.5t-44.5 137.5h-404l-56 124l6 9h1410l56 -124l-6 -9h-258z" />
    <glyph glyph-name="dHa" unicode="&#x939;" horiz-adv-x="1006" 
d="M802 1197v-314l-8 -8h-415q-76 0 -108 -36t-32 -79q0 -34 17 -65t48 -58q49 31 107.5 46.5t117.5 15.5q160 0 264.5 -98.5t104.5 -236.5q0 -93 -44.5 -143.5t-103.5 -50.5q-31 0 -61.5 18.5t-60.5 69.5q81 37 120.5 81t39.5 93q0 55 -48 89.5t-140 34.5q-137 0 -217 -74
t-80 -178q0 -138 145 -237t410 -99q0 -42 -34.5 -66.5t-119.5 -24.5q-216 0 -383.5 144t-167.5 335q0 66 22.5 123.5t59.5 99.5q-69 56 -105 127t-36 134q0 73 50 124.5t153 51.5h343q4 0 6 2t2 6v173h-648l-56 124l6 9h1056l56 -124l-6 -9h-254z" />
    <glyph glyph-name="dOesign" unicode="&#x93a;" horiz-adv-x="0" 
d="M61 1251l-134 28v329l9 7l134 -28v-329z" />
    <glyph glyph-name="dOoesign" unicode="&#x93b;" 
d="M629 1206l-6 -9h-257v-1209l-9 -7l-151 38v1178h-206l-56 124l6 9h265v278l9 7l134 -28v-257h215z" />
    <glyph glyph-name="dNukta" unicode="&#x93c;" horiz-adv-x="0" 
d="M-96 -23q0 39 28 67t68 28q39 0 67 -28t28 -67q0 -40 -28 -68t-67 -28q-40 0 -68 28t-28 68z" />
    <glyph glyph-name="dAvagraha" unicode="&#x93d;" horiz-adv-x="979" 
d="M840 1197h-322q-116 0 -174.5 -47t-58.5 -108q0 -135 205 -195t324 -241q33 -50 49 -103.5t16 -108.5q0 -126 -79 -210.5t-224 -84.5q-206 0 -326 147.5t-120 271.5q0 31 13 60.5t61 37.5q26 -192 119.5 -276.5t206.5 -84.5q103 0 168.5 59t65.5 147q0 172 -208.5 224.5
t-353.5 257.5q-22 31 -40.5 73t-18.5 95q0 106 80.5 162.5t211.5 56.5h355l56 -124z" />
    <glyph glyph-name="dAasign" unicode="&#x93e;" 
d="M357 -19l-151 38v1178h-206l-56 124l6 9h623l56 -124l-6 -9h-257v-1209z" />
    <glyph glyph-name="dIsign" unicode="&#x93f;" 
d="M63 1581q0 134 108 229.5t318 95.5q250 0 509.5 -152.5t455.5 -448.5l-85 -53q-148 230 -376 362t-453 132q-165 0 -252 -66.5t-87 -167.5q0 -50 22.5 -96t68.5 -86h281l56 -124l-6 -9h-257v-1209l-9 -7l-151 38v1178h-206l-56 124l6 9h220q-51 57 -79 118.5t-28 132.5z
" />
    <glyph glyph-name="dIisign" unicode="&#x940;" 
d="M357 -19l-151 38v1178h-206l-56 124l6 9h274q-127 250 -252.5 343t-239.5 93q-96 0 -146 -49.5t-50 -119.5q0 -77 60 -158t181 -142l-156 2q-144 97 -195 189.5t-51 169.5q0 108 76.5 180t219.5 72q152 0 323 -119t335 -461h244l56 -124l-6 -9h-257v-1209z" />
    <glyph glyph-name="dUsign" unicode="&#x941;" horiz-adv-x="0" 
d="M-221 -104q0 51 59 92.5t142 41.5q121 0 209 -91.5t88 -211.5q0 -110 -77 -176t-198 -66q-234 0 -382.5 187.5t-148.5 253.5q0 21 13.5 38t32.5 22q78 -172 185 -263.5t242 -91.5q101 0 160 46.5t59 114.5q0 51 -32 81t-83 30q-42 0 -81 -23.5t-82 -77.5q-54 4 -80 33
t-26 61z" />
    <glyph glyph-name="dUusign" unicode="&#x942;" horiz-adv-x="0" 
d="M-305 -196q0 104 73.5 167t185.5 63q195 0 368.5 -163.5t173.5 -212.5q0 -10 -7.5 -23.5t-23.5 -20.5q-120 135 -233 204.5t-226 68.5q-90 1 -143.5 -39.5t-53.5 -105.5q0 -48 28.5 -78t77.5 -31q41 1 81 24.5t81 71.5q54 -4 80 -33t26 -61q0 -48 -59.5 -88t-138.5 -40
q-119 0 -204.5 92t-85.5 205z" />
    <glyph glyph-name="dRvocalicsign" unicode="&#x943;" horiz-adv-x="0" 
d="M80 -11v-11q-151 -41 -206.5 -92t-55.5 -98q0 -36 29 -71t95 -35q71 0 149 41t123 88q27 -9 50.5 -38.5t23.5 -63.5q0 -65 -86.5 -105t-176.5 -40q-144 0 -235 92t-91 194q0 78 63.5 143.5t208.5 104.5z" />
    <glyph glyph-name="dRrvocalicsign" unicode="&#x944;" horiz-adv-x="0" 
d="M12 -579q55 0 126 37.5t113 106.5q31 -12 54.5 -35.5t23.5 -56.5q0 -56 -70 -108t-172 -52q-120 0 -205.5 74t-85.5 164q0 22 7.5 47t27.5 48q-67 34 -102.5 86.5t-35.5 109.5q0 66 60 137t221 114l106 -104v-11q-171 -47 -219.5 -102t-48.5 -92q0 -31 20 -50.5t57 -19.5
q35 0 78 23t129 81l88 -99l-3 -11q-156 -74 -206 -123.5t-50 -90.5q0 -34 23.5 -53.5t63.5 -19.5z" />
    <glyph glyph-name="dEcandrasign" unicode="&#x945;" horiz-adv-x="0" 
d="M-303 1812q0 33 11 47.5t30 24.5q46 -146 113 -205.5t146 -59.5q84 0 153 60t100 187q50 -21 70 -44t20 -62q0 -90 -86.5 -182t-220.5 -92q-153 0 -244.5 115t-91.5 211z" />
    <glyph glyph-name="dEshortsign" unicode="&#x946;" horiz-adv-x="0" 
d="M-70 1311v19q9 24 13.5 46t4.5 39q0 72 -77.5 96.5t-219.5 46.5q-178 27 -366.5 86.5t-188.5 233.5q0 25 5 43.5t13 34.5q69 -121 168 -157.5t263 -66.5q229 -41 360 -103.5t165 -298.5v-19h-140z" />
    <glyph glyph-name="dEsign" unicode="&#x947;" horiz-adv-x="0" 
d="M-58 1330q-221 278 -320 359.5t-177 81.5q-55 0 -93.5 -26.5t-63.5 -76.5q-43 14 -71 46t-28 74q0 53 49 93.5t138 40.5q101 0 243.5 -105t438.5 -487v-58h-116v58z" />
    <glyph glyph-name="dAisign" unicode="&#x948;" horiz-adv-x="0" 
d="M-522 1905q0 43 37 80t110 37q91 0 203 -122.5t242 -569.5v-48h-143v48q-143 128 -272 193.5t-202 65.5q-48 0 -81 -27.5t-52 -73.5q-58 15 -85 45.5t-27 69.5q0 55 45 92t111 37q99 0 253.5 -79.5t317.5 -207.5q-92 275 -147.5 347t-106.5 72q-36 0 -63 -17.5t-47 -45.5
q-39 14 -66 39.5t-27 64.5z" />
    <glyph glyph-name="dOcandrasign" unicode="&#x949;" horiz-adv-x="483" 
d="M-372 1812q0 33 11 47.5t30 24.5q46 -146 113 -205.5t146 -59.5q84 0 153 60t100 187q50 -21 70 -44t20 -62q0 -90 -86.5 -182t-220.5 -92q-153 0 -244.5 115t-91.5 211zM267 -19l-151 38v1178h-206l-56 124l6 9h623l56 -124l-6 -9h-257v-1209z" />
    <glyph glyph-name="dOshortsign" unicode="&#x94a;" 
d="M629 1206l-6 -9h-257v-1209l-9 -7l-151 38v1178h-206l-56 124l6 9h271q9 24 13.5 46t4.5 38q0 72 -77 97.5t-220 46.5q-179 26 -377 85.5t-198 234.5q0 25 5 43.5t13 34.5q72 -121 175.5 -157.5t275.5 -66.5q225 -40 358 -103t167 -299h212z" />
    <glyph glyph-name="dOsign" unicode="&#x94b;" 
d="M366 1197v-1209l-9 -7l-151 38v1178h-206l-56 124l6 9h264q-221 278 -320 359.5t-177 81.5q-55 0 -93.5 -26.5t-63.5 -76.5q-43 14 -71 46t-28 74q0 53 49 93.5t138 40.5q101 0 243.5 -105t438.5 -487h243l56 -124l-6 -9h-257z" />
    <glyph glyph-name="dAusign" unicode="&#x94c;" 
d="M629 1206l-6 -9h-257v-1209l-9 -7l-151 38v1178h-206l-56 124l6 9h257q-143 128 -272 193.5t-202 65.5q-48 0 -81 -27.5t-52 -73.5q-58 15 -85 45.5t-27 69.5q0 55 45 92t111 37q99 0 253.5 -79.5t317.5 -207.5q-92 275 -147.5 347t-106.5 72q-36 0 -63 -17.5t-47 -45.5
q-39 14 -66 39.5t-27 64.5q0 43 37 80t110 37q91 0 203 -122.5t242 -569.5h223z" />
    <glyph glyph-name="dVirama" unicode="&#x94d;" horiz-adv-x="0" 
d="M-230 -178q0 38 39 62t111 24q46 0 107.5 -15t141.5 -64q131 -80 219 -184t88 -141q0 -10 -7.5 -23t-23.5 -20q-153 175 -263 228.5t-198 53.5q-43 0 -81.5 -7t-65.5 -14q-32 24 -49.5 49.5t-17.5 50.5z" />
    <glyph glyph-name="dAwsign" unicode="&#x94f;" 
d="M366 1197v-1209l-9 -7l-151 38v1178h-206l-56 124l6 9h269q5 18 7.5 35t2.5 27q0 56 -81 70.5t-286 25.5q-242 13 -373.5 73t-131.5 187q0 25 5 43.5t13 34.5q51 -104 149 -141t282 -54q222 -21 305 -41t150 -101q-26 107 -94.5 146.5t-212.5 75.5q-159 40 -261 79
t-102 154q0 26 6 49t17 40q30 -78 97 -107t193 -66q234 -69 330.5 -151.5t125.5 -378.5h213l56 -124l-6 -9h-257z" />
    <glyph glyph-name="dOm" unicode="&#x950;" horiz-adv-x="1788" 
d="M1236 1467q0 -40 -29 -69t-69 -29t-68.5 29t-28.5 69t28.5 68.5t68.5 28.5t69 -28.5t29 -68.5zM835 1422q0 33 11 47.5t30 24.5q47 -146 117 -205.5t152 -59.5q81 0 147 60t96 187q52 -23 72.5 -51t20.5 -78q0 -87 -84 -169t-216 -82q-160 0 -253 115t-93 211zM1198 557
q0 8 1.5 15.5t3.5 14.5q63 -64 111.5 -84.5t92.5 -20.5q84 0 140.5 66t56.5 161q0 79 -39.5 126.5t-99.5 47.5q-136 0 -215.5 -176.5t-245.5 -176.5q-30 0 -60.5 8.5t-60.5 24.5q24 -43 36.5 -89.5t12.5 -97.5q0 -143 -92.5 -233.5t-249.5 -90.5q-280 0 -410 232.5
t-130 369.5q0 53 18.5 70.5t55.5 21.5q47 -277 161 -404.5t263 -127.5q113 0 181 63t68 161q0 69 -34 129t-89 93q-52 -22 -113.5 -36.5t-127.5 -21.5l-81 157l6 10q202 11 295 78.5t93 179.5q0 93 -55.5 140t-142.5 47q-106 0 -165.5 -62t-59.5 -155q-66 0 -106 33t-40 88
q0 75 78.5 141t227.5 66q179 0 294 -103.5t115 -261.5q0 -79 -30 -138.5t-84 -102.5q34 -29 71 -38.5t63 -9.5q165 0 232.5 176t245.5 176q124 0 236 -113t112 -276q0 -131 -78 -213t-197 -82q-125 0 -195 76t-70 142z" />
    <glyph glyph-name="dUdatta" unicode="&#x951;" horiz-adv-x="0" 
d="M61 1481l-134 28v429l9 7l134 -28v-429z" />
    <glyph glyph-name="dAnudatta" unicode="&#x952;" horiz-adv-x="0" 
d="M-520 -293l-46 104l6 9h560l46 -104l-6 -9h-560z" />
    <glyph glyph-name="dGrave" unicode="&#x953;" horiz-adv-x="0" 
d="M102 1497l-305 366l2 12l88 55l305 -366l-2 -12z" />
    <glyph glyph-name="dAcute" unicode="&#x954;" horiz-adv-x="0" 
d="M-59 1497l-88 55l-2 12l305 366l88 -55l2 -12z" />
    <glyph glyph-name="dEcandralongsign" unicode="&#x955;" horiz-adv-x="0" 
d="M-303 1952q0 33 11 47.5t30 24.5q46 -146 113 -205.5t146 -59.5q84 0 153 60t100 187q50 -21 70 -44t20 -62q0 -90 -86.5 -182t-220.5 -92q-153 0 -244.5 115t-91.5 211zM-256 1422l-36 94l5 12h610l37 -97l-6 -9h-610z" />
    <glyph glyph-name="dUesign" unicode="&#x956;" horiz-adv-x="0" 
d="M-419 -151q0 17 8 28.5t18 18.5q75 -102 177 -154.5t209 -52.5q110 0 201.5 52.5t141.5 148.5q40 -14 61.5 -41.5t21.5 -62.5q0 -81 -107 -154t-264 -73q-204 0 -335.5 110t-131.5 180z" />
    <glyph glyph-name="dUuesign" unicode="&#x957;" horiz-adv-x="0" 
d="M-419 -151q0 17 8 28.5t18 18.5q75 -102 177 -154.5t209 -52.5q110 0 201.5 52.5t141.5 148.5q40 -14 61.5 -41.5t21.5 -62.5q0 -81 -107 -154t-264 -73q-204 0 -335.5 110t-131.5 180zM419 -527q0 -68 -87 -122.5t-234 -54.5q-229 0 -373 116.5t-144 186.5
q0 16 7.5 27.5t18.5 19.5q74 -99 190.5 -159t256.5 -60q106 0 184.5 35.5t125.5 98.5q28 -16 41.5 -39.5t13.5 -48.5z" />
    <glyph glyph-name="dQa" unicode="&#x958;" horiz-adv-x="1542" 
d="M733 632q0 84 -67 147.5t-172 63.5q-111 0 -178.5 -72t-67.5 -174q0 -105 68.5 -172t169.5 -67q96 0 171.5 58.5t75.5 151.5v64zM893 1197v-364q48 47 103.5 73t122.5 26q136 0 236.5 -106t100.5 -297q0 -157 -65 -243t-136 -86q-39 0 -75.5 24.5t-59.5 62.5
q103 54 157 149.5t54 189.5q0 85 -41 132t-107 47q-92 0 -191 -86.5t-99 -222.5v-508l-9 -7l-151 38v260q-47 -33 -91.5 -46.5t-87.5 -13.5q-154 0 -304.5 132t-150.5 316q0 136 91.5 228t231.5 92q70 0 153.5 -31t157.5 -110v351h-733l-56 124l6 9h1592l56 -124l-6 -9h-699
zM303 -23q0 39 28 67t68 28q39 0 67 -28t28 -67q0 -40 -28 -68t-67 -28q-40 0 -68 28t-28 68z" />
    <glyph glyph-name="dKhha" unicode="&#x959;" horiz-adv-x="1566" 
d="M1198 651q0 72 -60.5 135.5t-158.5 63.5q-93 0 -147 -60.5t-54 -144.5q0 -98 65 -152.5t147 -54.5q85 0 146.5 53t61.5 124v36zM1358 1197v-1209l-9 -7l-151 38v343q-43 -25 -78 -35.5t-72 -10.5q-144 0 -277 120t-133 281q0 116 77 192.5t201 76.5q77 0 148 -34
t134 -103v348h-776q42 -92 68.5 -183t26.5 -181q0 -135 -64.5 -224t-190.5 -126q118 -160 294 -261.5t407 -135.5q-13 -47 -45.5 -68.5t-86.5 -21.5q-213 0 -483 236.5t-270 421.5q0 60 34.5 92.5t97.5 32.5q30 0 63 -7.5t67 -20.5q23 30 33 70t10 91q0 60 -14 134t-46 151
h-323l-56 124l6 9h1616l56 -124l-6 -9h-258zM216 -23q0 39 28 67t68 28q39 0 67 -28t28 -67q0 -40 -28 -68t-67 -28q-40 0 -68 28t-28 68z" />
    <glyph glyph-name="dGhha" unicode="&#x95a;" horiz-adv-x="1241" 
d="M1034 1197v-1209l-9 -7l-151 38v1178h-435v-673q0 -81 -22.5 -121t-66.5 -40q-78 0 -169 95.5t-91 151.5q0 22 18.5 39t60.5 17h115v531h-284l-56 124l6 9h1291l56 -124l-6 -9h-257zM416 77q0 39 28 67t68 28q39 0 67 -28t28 -67q0 -40 -28 -68t-67 -28q-40 0 -68 28
t-28 68z" />
    <glyph glyph-name="dZa" unicode="&#x95b;" horiz-adv-x="1423" 
d="M1216 1197v-1209l-9 -7l-151 38v771h-333q62 -68 91.5 -140.5t29.5 -143.5q0 -126 -82 -202.5t-206 -76.5q-245 0 -354 237t-110 362q-1 51 18 72t63 25q37 -278 128.5 -406t211.5 -128q78 0 135.5 49t57.5 140q0 82 -54 147t-156 65l-56 124l6 9h610v274h-1056l-56 124
l6 9h1473l56 -124l-6 -9h-257zM438 -43q0 39 28 67t68 28q39 0 67 -28t28 -67q0 -40 -28 -68t-67 -28q-40 0 -68 28t-28 68z" />
    <glyph glyph-name="dDddha" unicode="&#x95c;" horiz-adv-x="1052" 
d="M862 1197v-304l-8 -8h-395q-80 0 -111.5 -27.5t-31.5 -70.5q0 -48 32.5 -77.5t95.5 -29.5q44 0 113.5 10.5t109.5 10.5q107 0 195 -97.5t88 -236.5q0 -125 -80.5 -196.5t-220.5 -71.5q-246 0 -398.5 171.5t-159.5 264.5q-2 28 9 49t33 32q91 -182 213.5 -271.5
t248.5 -89.5q100 0 175 49.5t75 125.5q0 46 -29.5 77.5t-79.5 31.5q-30 0 -101.5 -8.5t-110.5 -8.5q-124 0 -232 108.5t-108 234.5q0 75 47 118t146 43h323q4 0 6 2t2 6v163h-708l-56 124l6 9h1102l56 -124l-6 -9h-240zM496 -123q0 39 28 67t68 28q39 0 67 -28t28 -67
q0 -40 -28 -68t-67 -28q-40 0 -68 28t-28 68z" />
    <glyph glyph-name="dRha" unicode="&#x95d;" horiz-adv-x="1058" 
d="M842 1197v-360l-8 -8h-221q-171 0 -267.5 -89t-96.5 -221q0 -124 87 -225.5t249 -101.5q22 0 48 2.5t51 8.5q-74 75 -104.5 137t-30.5 122q0 90 54.5 141.5t135.5 51.5q110 0 186.5 -85t76.5 -198q0 -133 -104.5 -222t-255.5 -89q-215 0 -375 167.5t-160 364.5
q0 160 119 271.5t336 111.5h118q4 0 6 2t2 6v213h-688l-56 124l6 9h1108l56 -124l-6 -9h-266zM901 425q0 48 -28.5 77t-69.5 29q-47 0 -81.5 -36.5t-34.5 -92.5q0 -36 17 -77.5t56 -90.5q64 33 102.5 85t38.5 106zM506 -123q0 39 28 67t68 28q39 0 67 -28t28 -67
q0 -40 -28 -68t-67 -28q-40 0 -68 28t-28 68z" />
    <glyph glyph-name="dFa" unicode="&#x95e;" horiz-adv-x="1480" 
d="M289 1197v-537q0 -87 38.5 -132t107.5 -45q92 0 170.5 69t78.5 168v477h-395zM1065 942q130 0 230.5 -97.5t100.5 -287.5q0 -155 -65 -241t-136 -86q-39 0 -75.5 24.5t-59.5 62.5q101 51 156 143.5t55 186.5q0 81 -38.5 124.5t-104.5 43.5q-93 0 -188.5 -83t-95.5 -214
v-530l-9 -7l-151 38v398q-50 -29 -98 -42.5t-92 -13.5q-142 0 -253.5 114t-111.5 270v452h-129l-56 124l6 9h1530l56 -124l-6 -9h-686v-348q48 47 103 70t118 23zM266 77q0 39 28 67t68 28q39 0 67 -28t28 -67q0 -40 -28 -68t-67 -28q-40 0 -68 28t-28 68z" />
    <glyph glyph-name="dYya" unicode="&#x95f;" horiz-adv-x="1248" 
d="M1041 -12l-9 -7l-151 38v315q-51 -37 -105.5 -55t-117.5 -18q-151 0 -299 114t-277 365l5 10q167 47 231 110t64 157q0 49 -12.5 96.5t-30.5 83.5h-339l-56 124l6 9h1298l56 -124l-6 -9h-257v-1209zM440 1197q36 -66 59 -135.5t23 -135.5q0 -107 -65 -180t-190 -118
q67 -113 154 -160t168 -47q113 0 202.5 74t89.5 195v507h-441zM216 77q0 39 28 67t68 28q39 0 67 -28t28 -67q0 -40 -28 -68t-67 -28q-40 0 -68 28t-28 68z" />
    <glyph glyph-name="dRrvocalic" unicode="&#x960;" horiz-adv-x="1771" 
d="M954 1197v-484q83 7 152.5 30.5t129.5 64.5q-22 35 -32.5 64.5t-10.5 55.5q0 48 33 82.5t90 34.5q69 0 115 -48.5t46 -108.5q0 -42 -23.5 -84t-65.5 -79q40 -81 76.5 -150t71.5 -129l-2 -8q-129 -77 -174 -128t-45 -94t30 -68t74 -25q58 0 130 42t112 102q27 -10 56 -41
t29 -72q0 -60 -69 -112t-168 -52q-137 0 -230 96.5t-93 200.5q0 66 46.5 122t150.5 119q-17 33 -35 67.5t-37 73.5q-71 -42 -163 -70t-194 -32v-579l-9 -7l-151 38v503q-132 -93 -238 -179.5t-213 -184.5l-122 118v12q116 104 242.5 201.5t277.5 196.5q-137 103 -215.5 148
t-133.5 45t-105.5 -40.5t-92.5 -113.5q-48 30 -74 64t-26 70q0 54 59.5 107t170.5 53q78 0 167.5 -48.5t302.5 -207.5v434h-794l-56 124l6 9h1821l56 -124l-6 -9h-867z" />
    <glyph glyph-name="dLlvocalic" unicode="&#x961;" horiz-adv-x="1411" 
d="M1179 -291q57 0 131 39.5t114 104.5q29 -11 53.5 -34.5t24.5 -57.5q0 -56 -70 -108t-174 -52q-122 0 -205.5 73t-83.5 165q0 24 7.5 46.5t26.5 47.5q-66 31 -106.5 83t-40.5 112q0 69 49.5 117.5t122.5 117.5q90 85 130 149t40 124q0 64 -40 99.5t-101 35.5
q-86 0 -179.5 -77.5t-166.5 -252.5l-10 -3l-133 84q16 46 35.5 85.5t41.5 74.5q-51 54 -101.5 80t-100.5 26q-81 0 -133 -60.5t-52 -153.5q0 -117 90 -267.5t263 -272.5q-7 -19 -23 -30.5t-35 -11.5q-86 0 -268.5 200.5t-182.5 432.5q0 130 75 214.5t208 84.5
q77 0 152.5 -36.5t165.5 -129.5q50 60 108.5 95t112.5 48v296h-924l-56 124l6 9h1461l56 -124l-6 -9h-387v-300q100 -29 173 -122.5t73 -216.5q0 -91 -40 -148t-92 -108q-95 -93 -149 -145t-54 -94q0 -20 15 -36.5t49 -16.5q35 0 85.5 22.5t134.5 73.5l88 -99l-3 -11
q-161 -80 -208.5 -134.5t-47.5 -89.5q0 -32 23.5 -47.5t57.5 -15.5z" />
    <glyph glyph-name="dLvocalicsign" unicode="&#x962;" horiz-adv-x="0" 
d="M-566 -257q0 81 50 134t137 53q47 0 95 -20.5t105 -72.5q41 49 89.5 66t84.5 17q84 0 149.5 -67t65.5 -173q0 -38 -14.5 -73.5t-60.5 -92.5q-46 -56 -83 -97t-37 -72q0 -16 11.5 -24.5t30.5 -8.5q34 0 79.5 24.5t70.5 73.5q22 -7 42.5 -29t20.5 -50q0 -39 -43.5 -71
t-103.5 -32q-82 0 -142.5 56.5t-60.5 112.5q0 42 32.5 86t68.5 86q46 54 72.5 95t26.5 84q0 39 -21 57.5t-57 18.5q-48 0 -110.5 -47.5t-87.5 -201.5l-11 -6l-98 51q7 48 18.5 87t27.5 69q-31 25 -62.5 37t-61.5 12q-51 0 -83.5 -32.5t-32.5 -83.5q0 -66 57.5 -154
t161.5 -156q-4 -16 -17.5 -26t-28.5 -10q-53 0 -166.5 120t-113.5 260z" />
    <glyph glyph-name="dLlvocalicsign" unicode="&#x963;" horiz-adv-x="0" 
d="M-566 -257q0 81 50 134t137 53q47 0 95 -20.5t105 -72.5q41 49 89.5 66t84.5 17q84 0 149.5 -63.5t65.5 -153.5q0 -49 -23 -88t-72 -81q-34 -30 -77 -68t-43 -77q0 -14 9 -26.5t31 -12.5t56 16t88 52l53 -79l-4 -11q-102 -46 -133 -78.5t-31 -55.5q0 -22 17 -34t43 -12
q34 0 80 22t71 68q22 -13 36 -33.5t14 -41.5q0 -39 -43.5 -69t-103.5 -30q-86 0 -144 58.5t-58 115.5q0 13 4.5 27.5t17.5 35.5q-43 20 -70.5 55.5t-27.5 82.5q0 40 24 72.5t77 77.5q50 43 84.5 76.5t34.5 83.5q0 38 -21 56.5t-57 18.5q-48 0 -110.5 -45.5t-87.5 -193.5
l-10 -6l-99 41q7 48 18.5 87t27.5 69q-31 25 -62.5 37t-61.5 12q-51 0 -83.5 -32.5t-32.5 -83.5q0 -66 57.5 -154t161.5 -156q-4 -16 -17.5 -26t-28.5 -10q-53 0 -166.5 120t-113.5 260z" />
    <glyph glyph-name="dDanda" unicode="&#x964;" horiz-adv-x="860" 
d="M660 -52l-9 -7l-151 38v1351l9 7l151 -38v-1351z" />
    <glyph glyph-name="dDbldanda" unicode="&#x965;" horiz-adv-x="1230" 
d="M1030 -52l-9 -7l-151 38v1351l9 7l151 -38v-1351zM660 -52l-9 -7l-151 38v1351l9 7l151 -38v-1351z" />
    <glyph glyph-name="dZero" unicode="&#x966;" horiz-adv-x="1038" 
d="M477 1046q190 0 330.5 -146.5t140.5 -330.5q0 -163 -111.5 -268t-264.5 -105q-188 0 -335 148t-147 326q0 154 112.5 265t274.5 111zM817 641q0 117 -75 187.5t-195 70.5q-140 0 -227.5 -89t-87.5 -211q0 -110 73 -185.5t196 -75.5q128 0 222 83.5t94 219.5z" />
    <glyph glyph-name="dOne" unicode="&#x967;" horiz-adv-x="809" 
d="M324 340q54 -38 128 -93.5t125 -96.5q101 -82 136.5 -136.5t35.5 -105.5q0 -60 -33.5 -102.5t-81.5 -42.5q-37 0 -72 25.5t-53 64.5q46 28 64.5 59.5t18.5 58.5q0 22 -18 41t-77 68q-114 93 -192 152.5t-181 139.5l1 10q90 84 162.5 155t123.5 128q-113 61 -202 148.5
t-89 212.5q0 114 76.5 182.5t179.5 68.5q135 0 236.5 -108t101.5 -254q0 -128 -95 -256.5t-295 -318.5zM435 1152q-66 0 -110.5 -48t-44.5 -122q0 -61 41.5 -124.5t148.5 -125.5q59 75 83.5 134t24.5 116q0 83 -41.5 126.5t-101.5 43.5z" />
    <glyph glyph-name="dTwo" unicode="&#x968;" horiz-adv-x="1062" 
d="M831 25q34 0 63 8.5t63 27.5q22 -19 33.5 -46.5t11.5 -53.5q0 -46 -35.5 -77.5t-98.5 -31.5q-93 0 -208.5 97t-235.5 357q-9 -1 -16 -1.5t-19 -0.5q-116 0 -177.5 60.5t-61.5 127.5q0 54 37.5 88.5t92.5 34.5q49 0 95 -30t79 -89q185 76 268.5 195t83.5 234
q0 110 -64 168.5t-163 58.5q-122 0 -192 -79.5t-70 -183.5q-67 0 -106.5 32.5t-39.5 92.5q0 97 100.5 180t246.5 83q175 0 301.5 -124t126.5 -296q0 -149 -109 -292t-316 -228q79 -181 151 -246.5t159 -65.5z" />
    <glyph glyph-name="dThree" unicode="&#x969;" horiz-adv-x="945" 
d="M685 -83q36 0 65 8.5t63 27.5q21 -19 33 -46t12 -54q0 -46 -36 -77.5t-95 -31.5q-82 0 -165 75.5t-155 244.5q-118 -1 -188.5 57t-70.5 131q0 51 34 87.5t90 36.5q57 0 103 -40.5t72 -111.5q149 11 221 74t72 145q0 52 -32 103.5t-107 86.5q-52 -18 -116 -31t-139 -20
l-81 157l6 10q233 10 336.5 76.5t103.5 167.5q0 81 -56.5 126t-145.5 45q-110 0 -171.5 -65t-61.5 -162q-67 0 -106.5 33t-39.5 88q0 79 82 148t234 69q181 0 293.5 -102.5t112.5 -251.5q0 -76 -35 -135.5t-114 -108.5q82 -55 132 -135.5t50 -166.5q0 -115 -97.5 -202.5
t-293.5 -100.5q43 -86 83 -120.5t108 -34.5z" />
    <glyph glyph-name="dFour" unicode="&#x96a;" horiz-adv-x="1110" 
d="M1056 1154q-128 -169 -205.5 -274.5t-186.5 -256.5q115 -107 167.5 -187.5t52.5 -170.5q0 -126 -78 -176t-152 -50q-119 0 -218.5 96t-99.5 222q0 43 25.5 103t122.5 194q-127 102 -250.5 211.5t-123.5 230.5q0 75 51 128t119 53q49 0 80.5 -30.5t55.5 -84.5
q-66 -7 -109 -43t-43 -90q0 -61 65.5 -119.5t211.5 -177.5q86 116 163.5 219t223.5 298l127 -86zM467 291q0 -56 40 -87.5t91 -31.5q58 0 101 39.5t43 105.5q0 57 -35.5 114.5t-99.5 115.5q-81 -109 -110.5 -162.5t-29.5 -93.5z" />
    <glyph glyph-name="dFive" unicode="&#x96b;" horiz-adv-x="1047" 
d="M938 633q0 -43 -13.5 -87t-38.5 -86q76 -103 123.5 -194.5t47.5 -173.5q0 -88 -51.5 -142t-120.5 -54q-39 0 -73.5 25.5t-58.5 100.5q100 22 138 66t38 95q0 49 -27 97.5t-72 102.5q-65 -72 -153.5 -120.5t-183.5 -48.5q-146 0 -272.5 118.5t-126.5 297.5q0 134 76 303
t187 331l148 -87l1 -8q-138 -195 -206 -355t-68 -265q0 -91 49.5 -142t148.5 -51q72 0 144 34t150 127q-40 50 -61.5 95.5t-21.5 88.5q0 58 37 97.5t94 39.5q74 0 120 -62t46 -143z" />
    <glyph glyph-name="dSix" unicode="&#x96c;" horiz-adv-x="981" 
d="M888 339q0 -40 -18.5 -78.5t-49.5 -68.5q75 -93 103.5 -155t28.5 -109q0 -61 -35 -96t-85 -35q-37 0 -72 26t-58 100q67 12 92.5 38.5t25.5 60.5q0 22 -13 47.5t-55 71.5q-42 -23 -92.5 -36.5t-104.5 -13.5q-172 0 -292 120.5t-120 258.5q0 75 40.5 139t115.5 113
q-74 53 -116.5 121t-42.5 150q0 120 90.5 202.5t244.5 82.5q104 0 157 -43.5t67 -132.5q-16 5 -63 13t-96 8q-125 0 -189.5 -58.5t-64.5 -134.5q0 -46 25 -87t82 -76q52 20 114 33t133 18l91 -139l-4 -10q-269 -23 -360.5 -103t-91.5 -163q0 -88 65.5 -136t151.5 -48
q37 0 78.5 9.5t75.5 30.5q-19 27 -29 51.5t-10 52.5q0 56 37.5 96t94.5 40q66 0 107.5 -50t41.5 -110z" />
    <glyph glyph-name="dSeven" unicode="&#x96d;" horiz-adv-x="1035" 
d="M392 938q0 118 71.5 181.5t160.5 63.5q154 0 262.5 -172.5t108.5 -418.5q0 -231 -99 -344t-256 -113q-287 0 -449.5 303t-162.5 646q0 72 16 114t80 42q28 -510 163 -726.5t305 -216.5q90 0 157.5 53.5t98.5 155.5q-190 7 -323 140.5t-133 291.5zM678 1047
q-50 0 -96.5 -42.5t-46.5 -131.5q0 -117 91.5 -191t240.5 -81q2 18 3 39t1 39q0 157 -54 262.5t-139 105.5z" />
    <glyph glyph-name="dEight" unicode="&#x96e;" horiz-adv-x="987" 
d="M927 361q0 -82 -122.5 -177t-278.5 -95q-154 0 -280 108.5t-126 277.5q0 60 40 141t202 250q125 131 245.5 240t144.5 133l126 -85l1 -9q-28 -28 -155.5 -151.5t-255.5 -257.5q-122 -128 -169.5 -195t-47.5 -133q0 -81 56.5 -136t152.5 -55q107 0 204 71.5t178 193.5
q40 -30 62.5 -59t22.5 -62z" />
    <glyph glyph-name="dNine" unicode="&#x96f;" horiz-adv-x="865" 
d="M422 589q31 -36 100 -118.5t115 -143.5q51 -68 74.5 -120t23.5 -105q0 -83 -45 -127t-98 -44q-39 0 -71.5 25.5t-57.5 82.5q49 19 84.5 52t35.5 83q0 69 -72.5 158t-194.5 228q-113 129 -174.5 224t-61.5 205q0 126 77.5 203.5t204.5 77.5q155 0 271.5 -111.5
t116.5 -271.5q0 -126 -84 -208t-244 -90zM623 946q0 84 -54 139.5t-139 55.5q-78 0 -138 -53.5t-60 -163.5q0 -55 18.5 -102.5t56.5 -97.5q157 5 236.5 65t79.5 157z" />
    <glyph glyph-name="dAbbsign" unicode="&#x970;" horiz-adv-x="1038" 
d="M483 1326q163 0 279 -118.5t116 -266.5q0 -131 -92 -213t-221 -82q-161 0 -283 117.5t-122 263.5q0 125 93 212t230 87zM747 998q0 93 -60.5 145t-151.5 52q-105 0 -174 -63.5t-69 -156.5q0 -87 62 -144.5t155 -57.5q96 0 167 61.5t71 163.5z" />
    <glyph glyph-name="dHighspacingdot" unicode="&#x971;" horiz-adv-x="431" 
d="M120 1263q0 39 28 67t68 28q39 0 67 -28t28 -67q0 -40 -28 -68t-67 -28q-40 0 -68 28t-28 68z" />
    <glyph glyph-name="dAcandra" unicode="&#x972;" horiz-adv-x="1550" 
d="M925 1812q0 33 11 47.5t30 24.5q46 -146 113 -205.5t146 -59.5q84 0 153 60t100 187q50 -21 70 -44t20 -62q0 -90 -86.5 -182t-220.5 -92q-153 0 -244.5 115t-91.5 211zM177 1136q0 73 78.5 136t225.5 63q181 0 296 -103.5t115 -261.5q0 -69 -26 -124t-86 -106
q45 -23 91 -33.5t86 -10.5q96 0 160.5 54.5t64.5 156.5v290h-163l-56 124l6 9h581l56 -124l-6 -9h-258v-1209l-9 -7l-151 38v586q-37 -17 -70 -24.5t-67 -7.5t-71.5 7t-74.5 20q31 -51 47 -105.5t16 -111.5q0 -138 -91.5 -229.5t-249.5 -91.5q-281 0 -411 235.5t-130 366.5
q0 53 19.5 71t54.5 21q40 -277 157.5 -404.5t266.5 -127.5q113 0 181 63t68 161q0 76 -41 141t-107 94q-44 -18 -98.5 -31t-117.5 -20l-81 157l6 10q187 10 272.5 72.5t85.5 167.5q0 91 -55.5 138t-143.5 47q-104 0 -164 -59.5t-60 -147.5q-66 0 -106 33t-40 86z" />
    <glyph glyph-name="dOe" unicode="&#x973;" horiz-adv-x="1550" 
d="M1606 1206l-6 -9h-258v-1209l-9 -7l-151 38v586q-37 -17 -70 -24.5t-67 -7.5t-71.5 7t-74.5 20q31 -51 47 -105.5t16 -111.5q0 -138 -91.5 -229.5t-249.5 -91.5q-281 0 -411 235.5t-130 366.5q0 53 19.5 71t54.5 21q40 -277 157.5 -404.5t266.5 -127.5q113 0 181 63
t68 161q0 76 -41 141t-107 94q-44 -18 -98.5 -31t-117.5 -20l-81 157l6 10q187 10 272.5 72.5t85.5 167.5q0 91 -55.5 138t-143.5 47q-104 0 -164 -59.5t-60 -147.5q-66 0 -106 33t-40 86q0 73 78.5 136t225.5 63q181 0 296 -103.5t115 -261.5q0 -69 -26 -124t-86 -106
q45 -23 91 -33.5t86 -10.5q96 0 160.5 54.5t64.5 156.5v290h-163l-56 124l6 9h222v278l9 7l134 -28v-257h216z" />
    <glyph glyph-name="dOoe" unicode="&#x974;" horiz-adv-x="2033" 
d="M2089 1206l-6 -9h-258v-1209l-9 -7l-151 38v1178h-323v-1209l-9 -7l-151 38v586q-37 -17 -70 -24.5t-67 -7.5t-71.5 7t-74.5 20q31 -51 47 -105.5t16 -111.5q0 -138 -91.5 -229.5t-249.5 -91.5q-281 0 -411 235.5t-130 366.5q0 53 19.5 71t54.5 21q40 -277 157.5 -404.5
t266.5 -127.5q113 0 181 63t68 161q0 76 -41 141t-107 94q-44 -18 -98.5 -31t-117.5 -20l-81 157l6 10q187 10 272.5 72.5t85.5 167.5q0 91 -55.5 138t-143.5 47q-104 0 -164 -59.5t-60 -147.5q-66 0 -106 33t-40 86q0 73 78.5 136t225.5 63q181 0 296 -103.5t115 -261.5
q0 -69 -26 -124t-86 -106q45 -23 91 -33.5t86 -10.5q96 0 160.5 54.5t64.5 156.5v290h-163l-56 124l6 9h705v278l9 7l134 -28v-257h216z" />
    <glyph glyph-name="dAw" unicode="&#x975;" horiz-adv-x="2033" 
d="M2089 1206l-6 -9h-258v-1209l-9 -7l-151 38v1178h-323v-1209l-9 -7l-151 38v586q-37 -17 -70 -24.5t-67 -7.5t-71.5 7t-74.5 20q31 -51 47 -105.5t16 -111.5q0 -138 -91.5 -229.5t-249.5 -91.5q-281 0 -411 235.5t-130 366.5q0 53 19.5 71t54.5 21q40 -277 157.5 -404.5
t266.5 -127.5q113 0 181 63t68 161q0 76 -41 141t-107 94q-44 -18 -98.5 -31t-117.5 -20l-81 157l6 10q187 10 272.5 72.5t85.5 167.5q0 91 -55.5 138t-143.5 47q-104 0 -164 -59.5t-60 -147.5q-66 0 -106 33t-40 86q0 73 78.5 136t225.5 63q181 0 296 -103.5t115 -261.5
q0 -69 -26 -124t-86 -106q45 -23 91 -33.5t86 -10.5q96 0 160.5 54.5t64.5 156.5v290h-163l-56 124l6 9h710q5 18 7.5 35t2.5 27q0 56 -81 70.5t-286 25.5q-242 13 -373.5 73t-131.5 187q0 25 5 43.5t13 34.5q50 -103 147.5 -140.5t283.5 -54.5q217 -20 301 -40t144 -97
l10 5q-25 100 -94.5 139.5t-212.5 72.5q-159 37 -261 79.5t-102 154.5q0 25 6 48t17 40q30 -78 97 -107t193 -66q234 -69 330.5 -151.5t125.5 -378.5h213z" />
    <glyph glyph-name="dUe" unicode="&#x976;" horiz-adv-x="1550" 
d="M177 1136q0 73 78.5 136t225.5 63q181 0 296 -103.5t115 -261.5q0 -69 -26 -124t-86 -106q45 -23 91 -33.5t86 -10.5q96 0 160.5 54.5t64.5 156.5v290h-163l-56 124l6 9h581l56 -124l-6 -9h-258v-1209l-9 -7l-151 38v586q-37 -17 -70 -24.5t-67 -7.5t-71.5 7t-74.5 20
q31 -51 47 -105.5t16 -111.5q0 -138 -91.5 -229.5t-249.5 -91.5q-281 0 -411 235.5t-130 366.5q0 53 19.5 71t54.5 21q40 -277 157.5 -404.5t266.5 -127.5q113 0 181 63t68 161q0 76 -41 141t-107 94q-44 -18 -98.5 -31t-117.5 -20l-81 157l6 10q187 10 272.5 72.5
t85.5 167.5q0 91 -55.5 138t-143.5 47q-104 0 -164 -59.5t-60 -147.5q-66 0 -106 33t-40 86zM440 -151q0 17 8 28.5t18 18.5q75 -102 177 -154.5t209 -52.5q110 0 201.5 52.5t141.5 148.5q40 -14 61.5 -41.5t21.5 -62.5q0 -81 -107 -154t-264 -73q-204 0 -335.5 110
t-131.5 180z" />
    <glyph glyph-name="dUue" unicode="&#x977;" horiz-adv-x="2033" 
d="M2089 1206l-6 -9h-258v-1209l-9 -7l-151 38v1178h-323v-1209l-9 -7l-151 38v586q-37 -17 -70 -24.5t-67 -7.5t-71.5 7t-74.5 20q31 -51 47 -105.5t16 -111.5q0 -138 -91.5 -229.5t-249.5 -91.5q-281 0 -411 235.5t-130 366.5q0 53 19.5 71t54.5 21q40 -277 157.5 -404.5
t266.5 -127.5q113 0 181 63t68 161q0 76 -41 141t-107 94q-44 -18 -98.5 -31t-117.5 -20l-81 157l6 10q187 10 272.5 72.5t85.5 167.5q0 91 -55.5 138t-143.5 47q-104 0 -164 -59.5t-60 -147.5q-66 0 -106 33t-40 86q0 73 78.5 136t225.5 63q181 0 296 -103.5t115 -261.5
q0 -69 -26 -124t-86 -106q45 -23 91 -33.5t86 -10.5q96 0 160.5 54.5t64.5 156.5v290h-163l-56 124l6 9h1064zM362 -151q0 17 8 28.5t18 18.5q75 -102 177 -154.5t209 -52.5q110 0 201.5 52.5t141.5 148.5q40 -14 61.5 -41.5t21.5 -62.5q0 -81 -107 -154t-264 -73
q-204 0 -335.5 110t-131.5 180zM1200 -527q0 -68 -87 -122.5t-234 -54.5q-229 0 -373 116.5t-144 186.5q0 16 7.5 27.5t18.5 19.5q74 -99 190.5 -159t256.5 -60q106 0 184.5 35.5t125.5 98.5q28 -16 41.5 -39.5t13.5 -48.5z" />
    <glyph glyph-name="dZha" unicode="&#x979;" horiz-adv-x="1421" 
d="M1214 1197v-1209l-9 -7l-151 38v771h-333q62 -68 91.5 -140.5t29.5 -143.5q0 -126 -82 -202.5t-206 -76.5q-245 0 -354 237t-110 362q-1 51 18 72t63 25q37 -278 128.5 -406t211.5 -128q78 0 135.5 49t57.5 140q0 82 -54 147t-156 65l-56 124l6 9h610v274h-1054l-56 124
l6 9h1471l56 -124l-6 -9h-257zM698 37q0 34 24.5 58.5t58.5 24.5t58 -24.5t24 -58.5t-24 -58.5t-58 -24.5t-58.5 24.5t-24.5 58.5zM238 37q0 34 24.5 58.5t58.5 24.5t58 -24.5t24 -58.5t-24 -58.5t-58 -24.5t-58.5 24.5t-24.5 58.5zM475 -143q0 34 24.5 58.5t58.5 24.5
t58 -24.5t24 -58.5t-24 -58.5t-58 -24.5t-58.5 24.5t-24.5 58.5z" />
    <glyph glyph-name="dYaheavy" unicode="&#x97a;" horiz-adv-x="1248" 
d="M1041 -12l-9 -7l-151 38v315q-51 -37 -105.5 -55t-118.5 -18q-150 0 -298 114t-277 365l5 10q167 47 231 110t64 157q0 49 -12.5 96.5t-30.5 83.5h-339l-56 124l6 9h1298l56 -124l-6 -9h-257v-1209zM440 1197l430 -593q5 19 8 41t3 45v507h-441zM267 627
q65 -112 153.5 -159t169.5 -47q63 0 121.5 24.5t100.5 68.5l-291 396q-8 -108 -70.5 -172.5t-183.5 -110.5z" />
    <glyph glyph-name="dGga" unicode="&#x97b;" horiz-adv-x="1241" 
d="M1297 1206l-6 -9h-257v-1250h-896l-46 104l6 9h776v1137h-435v-673q0 -81 -22.5 -121t-66.5 -40q-78 0 -169 95.5t-91 151.5q0 22 18.5 39t60.5 17h115v531h-284l-56 124l6 9h1291z" />
    <glyph glyph-name="dJja" unicode="&#x97c;" horiz-adv-x="1421" 
d="M1477 1206l-6 -9h-257v-1250h-1066l-46 104l6 9h946v730h-333q62 -68 91.5 -140.5t29.5 -144.5q0 -125 -82 -201.5t-206 -76.5q-244 0 -353.5 236t-110.5 363q-1 49 17 71t64 26q37 -278 128.5 -406t211.5 -128q78 0 135.5 49t57.5 140q0 82 -54 147t-156 65l-56 124l6 9
h610v274h-1054l-56 124l6 9h1471z" />
    <glyph glyph-name="dGlottalstop" unicode="&#x97d;" horiz-adv-x="945" 
d="M395 1335q197 0 328.5 -120.5t131.5 -303.5q0 -157 -98 -251t-252 -132v-520l-9 -7l-151 38v640q185 15 274.5 93.5t89.5 203.5q0 122 -71.5 185t-175.5 63q-107 0 -166.5 -59.5t-59.5 -147.5q-67 0 -106.5 33t-39.5 86q0 73 78.5 136t226.5 63z" />
    <glyph glyph-name="dDdda" unicode="&#x97e;" horiz-adv-x="1052" 
d="M862 1197v-304l-8 -8h-395q-80 0 -111.5 -27.5t-31.5 -70.5q0 -48 32.5 -77.5t95.5 -29.5q44 0 113.5 10.5t109.5 10.5q107 0 195 -97.5t88 -236.5q0 -125 -80.5 -196.5t-220.5 -71.5q-246 0 -398.5 171.5t-159.5 264.5q-2 28 9 49t33 32q91 -182 213.5 -271.5
t248.5 -89.5q100 0 175 49.5t75 125.5q0 46 -29.5 77.5t-79.5 31.5q-30 0 -101.5 -8.5t-110.5 -8.5q-124 0 -232 108.5t-108 234.5q0 75 47 118t146 43h323q4 0 6 2t2 6v163h-708l-56 124l6 9h1102l56 -124l-6 -9h-240zM148 -153l-46 104l6 9h860l46 -104l-6 -9h-860z" />
    <glyph glyph-name="dBba" unicode="&#x97f;" horiz-adv-x="1160" 
d="M793 60v237q-63 -43 -126 -60.5t-115 -17.5q-166 0 -319.5 132t-153.5 315q0 145 105.5 243t263.5 98q89 0 179.5 -36.5t165.5 -115.5v342h-793l-56 124l6 9h1210l56 -124l-6 -9h-257v-1250h-815l-46 104l6 9h695zM793 618v34q0 90 -79 150.5t-194 60.5q-34 0 -68 -6.5
t-62 -19.5l324 -395q36 34 57.5 79.5t21.5 96.5zM228 597q0 -104 70 -175.5t183 -71.5q35 0 73 8t69 24l-327 392q-32 -35 -50 -80.5t-18 -96.5z" />
    <glyph glyph-name="zerowidthnonjoiner" unicode="&#x200c;" horiz-adv-x="0" 
d="M103 2056v-2548h-103v2548h103z" />
    <glyph glyph-name="endash" unicode="&#x2013;" horiz-adv-x="1024" 
d="M1034 489h-1044v121h1044v-121z" />
    <glyph glyph-name="emdash" unicode="&#x2014;" horiz-adv-x="2048" 
d="M2058 489h-2068v121h2068v-121z" />
    <glyph glyph-name="quoteright" unicode="&#x2019;" horiz-adv-x="512" 
d="M397 1284q0 -65 -18 -126.5t-58 -112.5t-104 -93t-156 -69v86q101 32 148 78t47 106q0 20 -11 34t-28 24q-8 5 -17 10t-19 10q-19 10 -36 24t-28 35q-5 10 -8 22.5t-3 28.5q0 59 38.5 90t95.5 31q32 0 60 -11.5t50 -33.5t34.5 -56t12.5 -77z" />
    <glyph glyph-name="quoteleft" unicode="&#x201b;" horiz-adv-x="512" 
d="M115 1063q0 65 18.5 126.5t58.5 112.5t104.5 93t154.5 69v-86q-101 -32 -148 -78t-47 -106q0 -20 11 -33.5t28 -23.5q8 -5 17 -10.5t19 -10.5q19 -10 36 -24t28 -34q5 -10 8 -23t3 -29q0 -59 -38.5 -90t-95.5 -31q-31 0 -59.5 12t-50.5 34t-34.5 55.5t-12.5 76.5z" />
    <glyph glyph-name="quotedblleft" unicode="&#x201c;" horiz-adv-x="922" 
d="M524 1063q0 65 18.5 126.5t58.5 112.5t104.5 93t154.5 69v-86q-99 -32 -146.5 -78t-47.5 -106q0 -20 11.5 -33.5t27.5 -23.5q8 -5 17 -10.5t19 -10.5q19 -10 35.5 -24t27.5 -34q5 -10 8 -23t3 -29q0 -59 -38 -90t-95 -31q-31 0 -60 12t-50 34q-22 22 -35 55.5t-13 76.5z
M115 1063q0 65 18.5 126.5t58.5 112.5t104.5 93t154.5 69v-86q-101 -32 -148 -78t-47 -106q0 -20 11 -33.5t28 -23.5q8 -5 17 -10.5t19 -10.5q19 -10 36 -24t28 -34q5 -10 8 -23t3 -29q0 -59 -38.5 -90t-95.5 -31q-31 0 -59.5 12t-50.5 34t-34.5 55.5t-12.5 76.5z" />
    <glyph glyph-name="quotedblright" unicode="&#x201d;" horiz-adv-x="922" 
d="M807 1284q0 -65 -18 -126.5t-58 -112.5t-104 -93t-156 -69v86q99 32 147 78t48 106q0 20 -11 34t-28 24q-8 5 -17 10t-19 10q-19 10 -36 24t-28 35q-5 10 -8 22.5t-3 28.5q0 59 38 90t95 31q32 0 60.5 -11.5t50.5 -33.5q21 -22 34 -56t13 -77zM397 1284q0 -65 -18 -126.5
t-58 -112.5t-104 -93t-156 -69v86q101 32 148 78t47 106q0 20 -11 34t-28 24q-8 5 -17 10t-19 10q-19 10 -36 24t-28 35q-5 10 -8 22.5t-3 28.5q0 59 38.5 90t95.5 31q32 0 60 -11.5t50 -33.5t34.5 -56t12.5 -77z" />
    <glyph glyph-name="ellipsis" unicode="&#x2026;" horiz-adv-x="1586" 
d="M1164 125q0 70 33.5 104.5t95.5 34.5t95.5 -34.5t33.5 -104.5t-33.5 -104.5t-95.5 -34.5q-59 0 -94 33.5t-35 105.5zM664 125q0 70 33.5 104.5t95.5 34.5t95.5 -34.5t33.5 -104.5t-33.5 -104.5t-95.5 -34.5q-59 0 -94 33.5t-35 105.5zM164 125q0 70 33.5 104.5t95.5 34.5
t95.5 -34.5t33.5 -104.5t-33.5 -104.5t-95.5 -34.5q-59 0 -94 33.5t-35 105.5z" />
    <glyph glyph-name="inr_currency" unicode="&#x20b9;" horiz-adv-x="1138" 
d="M1038 0h-29q-96 0 -157.5 7t-104.5 27t-73.5 56.5t-65.5 93.5l-277 461h-230v96h204q157 0 230 65.5t82 207.5h-516v98h515q-10 140 -84 196t-232 56h-200v98h947v-98h-341q58 -43 90 -106.5t39 -145.5h212v-98h-213q-16 -125 -99.5 -203t-198.5 -117l281 -444
q51 -81 100.5 -122.5t114.5 -41.5h6v-86z" />
    <glyph glyph-name="minus" unicode="&#x2212;" horiz-adv-x="635" 
d="M584 481h-533v154h533v-154z" />
    <glyph glyph-name="dottedcircle" unicode="&#x25cc;" horiz-adv-x="1803" 
d="M807 1268q0 40 27 66.5t66 26.5q40 0 67 -26.5t27 -66.5q0 -37 -27 -64t-67 -27q-39 0 -66 27t-27 64zM1111 1188q0 39 27 66.5t67 27.5q39 0 66 -27.5t27 -66.5q0 -40 -27 -67t-66 -27q-41 0 -67.5 27t-26.5 67zM504 1188q0 39 27 66.5t66 27.5q40 0 67 -27.5t27 -66.5
q0 -40 -27 -67t-67 -27q-39 0 -66 27.5t-27 66.5zM1335 966q0 39 27 66t66 27q40 0 67 -27t27 -66q0 -40 -27 -67t-67 -27q-39 0 -66 27t-27 67zM282 966q0 39 27 66t66 27q40 0 67 -27t27 -66q0 -40 -27 -67t-67 -27t-66.5 26.5t-26.5 67.5zM1415 661q0 40 27 67t67 27
q39 0 66.5 -27t27.5 -67q0 -39 -27.5 -66t-66.5 -27q-40 0 -67 26.5t-27 66.5zM200 661q0 40 27 67t67 27q39 0 66.5 -27t27.5 -67q0 -39 -27.5 -66t-66.5 -27q-40 0 -67 26.5t-27 66.5zM1335 357q0 39 27 66.5t66 27.5q40 0 67 -27.5t27 -66.5q0 -40 -27 -67t-67 -27
q-39 0 -66 27.5t-27 66.5zM282 357q0 39 27 66.5t66 27.5q40 0 67 -27.5t27 -66.5q0 -40 -27 -67t-67 -27t-66.5 27t-26.5 67zM1111 136q0 40 27 67t67 27q39 0 66 -27t27 -67q0 -39 -27 -67t-66 -28q-40 0 -67 28t-27 67zM504 136q0 40 27 67t66 27q40 0 67 -27t27 -67
q0 -39 -27 -67t-67 -28q-37 0 -65 29t-28 66zM807 52q0 40 27 67t66 27q40 0 67 -27t27 -67q0 -39 -27 -66t-67 -27q-39 0 -66 27t-27 66z" />
    <glyph glyph-name="dZerocombiningdigit" unicode="&#xa8e0;" horiz-adv-x="0" 
d="M-327 1937q100 0 167.5 -69t67.5 -163q0 -71 -52.5 -120.5t-125.5 -49.5q-102 0 -170.5 70t-68.5 159q0 68 52 120.5t130 52.5zM-191 1744q0 48 -28 76t-71 28q-49 0 -82 -35.5t-33 -84.5q0 -46 28 -76t69 -30q44 0 80.5 33t36.5 89z" />
    <glyph glyph-name="dOnecombiningdigit" unicode="&#xa8e1;" horiz-adv-x="0" 
d="M-341 1626q59 -40 120.5 -88.5t61.5 -102.5q0 -27 -18.5 -46t-49.5 -19q-30 0 -52 18.5t-29 40.5q20 7 29 17.5t9 20.5q0 23 -50 61t-154 110l-1 9q38 32 68 58.5t55 48.5q-57 33 -93.5 77t-36.5 95q0 52 38 83.5t90 31.5q71 0 125 -53t54 -119q0 -51 -41.5 -113
t-124.5 -130zM-320 1965q-19 0 -34.5 -17.5t-15.5 -48.5q0 -25 12 -47t47 -47q17 24 26 48t9 46q0 34 -13.5 50t-30.5 16z" />
    <glyph glyph-name="dTwocombiningdigit" unicode="&#xa8e2;" horiz-adv-x="0" 
d="M-195 1498q13 0 27 4t36 18q17 -16 25 -35t8 -33q0 -24 -20 -43t-55 -19q-48 0 -104.5 45.5t-93.5 149.5q-49 -5 -98 18t-49 72q0 33 23 50.5t54 17.5q27 0 50.5 -12.5t39.5 -33.5q66 31 97.5 79.5t31.5 97.5q0 45 -23.5 68t-58.5 23q-46 0 -73.5 -34t-24.5 -83
q-49 -6 -77.5 14t-28.5 54q0 46 51 85.5t125 39.5q91 0 152 -62t61 -143q0 -67 -47.5 -136t-143.5 -102q34 -63 59.5 -81.5t56.5 -18.5z" />
    <glyph glyph-name="dThreecombiningdigit" unicode="&#xa8e3;" horiz-adv-x="0" 
d="M-243 1438q19 0 32.5 4.5t33.5 17.5q13 -11 20.5 -26t7.5 -28q0 -24 -20 -41.5t-51 -17.5q-38 0 -78 31.5t-71 94.5q-57 4 -93.5 32t-36.5 65q0 27 20 46.5t53 19.5q32 0 57.5 -19.5t38.5 -47.5q47 7 72 30.5t25 55.5q0 22 -11.5 42t-33.5 33q-25 -8 -57 -14t-69 -8
l-33 89l6 7q99 3 142 29.5t43 70.5q0 32 -19.5 49t-51.5 17q-43 0 -65 -28.5t-20 -71.5q-45 -7 -75.5 11t-30.5 51q0 37 43 72.5t118 35.5q88 0 146 -52t58 -118q0 -30 -14.5 -57t-48.5 -51q37 -28 57.5 -65t20.5 -71q0 -49 -44.5 -93t-135.5 -51q22 -31 37 -37.5t28 -6.5z
" />
    <glyph glyph-name="dFourcombiningdigit" unicode="&#xa8e4;" horiz-adv-x="0" 
d="M-255 1738q55 -54 76 -89t21 -70q0 -63 -43 -89t-82 -26q-60 0 -111 47.5t-51 103.5q0 22 13 50t52 84q-63 51 -115 99.5t-52 99.5q0 37 28.5 64t68.5 27q35 0 55 -21t30 -49q-27 0 -49.5 -12t-22.5 -37q0 -23 23.5 -45t77.5 -68l172 232l86 -59zM-346 1586q0 -19 12 -29
t28 -10q18 0 31 12.5t13 39.5q0 20 -9 38t-30 41q-24 -33 -34.5 -54.5t-10.5 -37.5z" />
    <glyph glyph-name="dFivecombiningdigit" unicode="&#xa8e5;" horiz-adv-x="0" 
d="M-134 1741q0 -18 -6 -37.5t-17 -39.5q39 -54 58 -96.5t19 -73.5q0 -37 -24.5 -64.5t-63.5 -27.5q-29 0 -55 18.5t-36 53.5q44 4 63 17t19 41q0 16 -6.5 33.5t-22.5 38.5q-34 -28 -71.5 -44.5t-75.5 -16.5q-74 0 -137.5 57.5t-63.5 140.5q0 62 38 143.5t94 159.5l88 -54
l1 -8q-60 -87 -89.5 -159t-29.5 -119q0 -37 18.5 -57t53.5 -20q22 0 51 11t63 47q-26 27 -34 48.5t-8 34.5q0 30 22 53t58 23q43 0 68.5 -33t25.5 -70z" />
    <glyph glyph-name="dSixcombiningdigit" unicode="&#xa8e6;" horiz-adv-x="0" 
d="M-146 1609q0 -17 -8.5 -36t-23.5 -32q35 -43 47.5 -70t12.5 -46q0 -27 -19 -48t-53 -21q-32 0 -52.5 19.5t-24.5 50.5q25 0 39 8.5t14 27.5q0 10 -4 21.5t-14 22.5q-22 -10 -42 -14t-40 -4q-89 0 -148.5 59t-59.5 123q0 31 16.5 59t54.5 53q-32 25 -52 56.5t-20 66.5
q0 55 47.5 94.5t117.5 39.5q65 0 98.5 -32t28.5 -72q-16 7 -40 12t-49 5q-50 0 -73.5 -22.5t-23.5 -54.5q0 -18 7.5 -32.5t23.5 -27.5q24 8 55.5 14t65.5 7l39 -80l-5 -8q-116 -9 -153.5 -41t-37.5 -69q0 -36 23 -54.5t59 -18.5q10 0 19 2t24 8q-7 10 -11.5 23t-4.5 23
q0 28 22.5 49t57.5 21q39 0 63 -27t24 -55z" />
    <glyph glyph-name="dSevencombiningdigit" unicode="&#xa8e7;" horiz-adv-x="0" 
d="M-420 1877q0 55 34.5 88.5t85.5 33.5q84 0 138 -82t54 -192q0 -107 -51 -162.5t-130 -55.5q-139 0 -216.5 141.5t-77.5 295.5q0 34 9 58t47 24q5 0 9.5 -0.5t7.5 -1.5q4 -215 63.5 -317t128.5 -102q31 0 58.5 18t41.5 52q-88 13 -145 72.5t-57 129.5zM-271 1912
q-18 0 -31 -16t-13 -47q0 -39 26 -69t84 -39q1 5 1.5 11.5t0.5 10.5q0 61 -18 105t-50 44z" />
    <glyph glyph-name="dEightcombiningdigit" unicode="&#xa8e8;" horiz-adv-x="0" 
d="M-69 1619q0 -34 -57 -83t-144 -49q-81 0 -141.5 51.5t-60.5 122.5q0 34 18.5 73t96.5 119q53 55 107.5 105t67.5 63l81 -50l1 -9q-16 -16 -70 -69t-111 -112q-52 -58 -72 -89t-20 -61q0 -28 19 -44.5t45 -16.5q51 0 92 30t81 91q28 -10 47.5 -31.5t19.5 -40.5z" />
    <glyph glyph-name="dNinecombiningdigit" unicode="&#xa8e9;" horiz-adv-x="0" 
d="M-308 1714q30 -36 47 -56.5t38 -47.5q25 -34 36.5 -58.5t11.5 -48.5q0 -37 -25.5 -62.5t-59.5 -25.5q-26 0 -48 17.5t-32 46.5q23 4 39.5 20.5t16.5 35.5q0 35 -30.5 71t-84.5 96q-54 61 -82.5 106t-28.5 95q0 57 41 96t110 39q73 0 131.5 -55t58.5 -128q0 -51 -35 -91
t-104 -50zM-266 1881q0 36 -19.5 57.5t-46.5 21.5t-48.5 -20.5t-21.5 -63.5q0 -26 6.5 -44.5t19.5 -37.5q57 4 83.5 27t26.5 60z" />
    <glyph glyph-name="dAcombiningletter" unicode="&#xa8ea;" horiz-adv-x="0" 
d="M-144 1710q-16 -4 -28 -5t-20 -1q-11 0 -23 1.5t-19 2.5q10 -22 15.5 -42.5t5.5 -40.5q0 -61 -45.5 -105.5t-126.5 -44.5q-138 0 -199.5 111.5t-61.5 171.5q0 31 14.5 40t42.5 10q22 -131 69 -186t106 -55q43 0 71.5 24.5t28.5 67.5q0 30 -14 55.5t-33 36.5
q-22 -9 -50 -15t-61 -7l-30 89l5 7q75 4 111 28.5t36 71.5q0 37 -19.5 54.5t-50.5 17.5q-40 0 -62 -26t-19 -66q-43 -7 -74 13t-31 50q0 34 41 66.5t116 32.5q90 0 147 -51t57 -123q0 -32 -12 -56t-34 -45q13 -7 28.5 -9.5t28.5 -2.5q37 0 63.5 21t26.5 64v120h-68l-19 73
l5 7h284l17 -73l-5 -7h-102v-530l-6 -5l-106 9v251z" />
    <glyph glyph-name="dUcombiningletter" unicode="&#xa8eb;" horiz-adv-x="0" 
d="M-126 1887q0 -26 -11.5 -50t-38.5 -48q40 -31 62.5 -72t22.5 -84q0 -63 -47.5 -110.5t-130.5 -47.5q-144 0 -209.5 120t-65.5 177q0 25 14.5 43t53.5 14q23 -132 73.5 -195t112.5 -63q42 0 69.5 25t27.5 68q0 34 -16.5 57t-39.5 33q-23 -7 -53.5 -10.5t-62.5 -2.5l-23 91
l5 7q78 -1 116.5 21.5t38.5 61.5q0 24 -14.5 43.5t-45.5 19.5h-274l-20 73l5 7h532l20 -73l-5 -7h-136q22 -27 31 -51.5t9 -46.5z" />
    <glyph glyph-name="dKacombiningletter" unicode="&#xa8ec;" horiz-adv-x="0" 
d="M-524 1723q0 -43 25 -69t62 -26q34 0 62.5 22.5t28.5 61.5v25q0 34 -26 59t-63 25t-63 -27.5t-26 -70.5zM-234 1866q22 10 41 15t38 5q69 0 121.5 -53.5t52.5 -141.5q0 -71 -34 -112.5t-75 -41.5q-26 0 -49.5 15.5t-34.5 35.5q43 25 70 64.5t27 88.5q0 34 -12.5 49.5
t-33.5 15.5q-33 0 -72 -35t-39 -91v-225l-6 -5l-106 9v97q-18 -6 -33 -8.5t-28 -2.5q-77 0 -150.5 64t-73.5 147q0 63 47 109t116 46q27 0 58 -9t64 -28v111h-326l-20 73l5 7h741l17 -73l-5 -7h-300v-119z" />
    <glyph glyph-name="dNacombiningletter" unicode="&#xa8ed;" horiz-adv-x="0" 
d="M-145 1985v-530l-6 -5l-106 9v299h-138v-58q0 -23 -12 -34.5t-33 -11.5q-35 0 -83 52t-48 94q0 30 32.5 40t68.5 10h213v135h-335l-20 73l5 7h550l19 -73l-5 -7h-102z" />
    <glyph glyph-name="dPacombiningletter" unicode="&#xa8ee;" horiz-adv-x="0" 
d="M-155 1450l-106 9v162q-22 -8 -42 -12t-38 -4q-76 0 -136.5 58.5t-60.5 132.5v189h-54l-20 73l5 7h546l19 -73l-5 -7h-102v-530zM-426 1758q0 -41 16.5 -60t41.5 -19q39 0 73 33t34 82v191h-165v-227z" />
    <glyph glyph-name="dRacombiningletter" unicode="&#xa8ef;" horiz-adv-x="0" 
d="M-172 1844q0 -57 -36.5 -107t-135.5 -70q43 -60 95 -102.5t116 -75.5q0 -16 -20.5 -29.5t-41.5 -13.5q-71 0 -172 117.5t-101 186.5q0 25 21 46t60 21q16 0 38.5 -5.5t43.5 -15.5q16 12 24.5 32.5t8.5 48.5q0 24 -6 52t-18 56h-203l-20 73l5 7h437l17 -73l-5 -7h-150
q19 -39 31 -74t12 -67z" />
    <glyph glyph-name="dVicombiningletter" unicode="&#xa8f0;" horiz-adv-x="0" 
d="M-47 1985v-530l-6 -5l-106 9v106q-25 -10 -48 -15t-42 -5q-80 0 -155.5 63.5t-75.5 147.5q0 66 52.5 115t136.5 49q31 0 63 -9t69 -32v106h-391v-530l-6 -5l-106 9v526h-87l-19 73l5 7h78q-20 25 -30.5 48t-10.5 51q0 65 54.5 112.5t156.5 47.5q112 0 231 -65.5
t209 -193.5h117l20 -73l-5 -7h-104zM-172 2065q-71 85 -153.5 126t-163.5 41q-69 0 -102 -26t-33 -69q0 -22 8 -40t23 -32h421zM-373 1725q0 -45 26.5 -71t67.5 -26q43 0 81.5 29t38.5 78v11q0 40 -30 64.5t-73 24.5q-49 0 -80 -30.5t-31 -79.5z" />
    <glyph glyph-name="dAvagrahacombiningsign" unicode="&#xa8f1;" horiz-adv-x="0" 
d="M-132 1985h-151q-51 1 -70 -14t-19 -41q0 -58 89.5 -80.5t149.5 -114.5q17 -26 25 -51t8 -50q0 -57 -41.5 -100t-115.5 -43q-103 0 -162 71t-59 128q0 16 10.5 35.5t45.5 20.5q22 -90 61.5 -127.5t82.5 -37.5q37 0 61.5 23t24.5 60q0 78 -88.5 92.5t-160.5 118.5
q-13 17 -22 37.5t-9 44.5q0 49 43 78.5t109 29.5h174l19 -73z" />
    <glyph glyph-name="dSpacingcandrabindu" unicode="&#xa8f2;" horiz-adv-x="843" 
d="M501 1253q0 -40 -29 -69t-69 -29t-68.5 29t-28.5 69t28.5 68.5t68.5 28.5t69 -28.5t29 -68.5zM100 1208q0 33 11 47.5t30 24.5q46 -146 113 -205.5t146 -59.5q84 0 153 60t100 187q50 -21 70 -44t20 -62q0 -90 -86.5 -182t-220.5 -92q-153 0 -244.5 115t-91.5 211z" />
    <glyph glyph-name="dCandrabinduvirama" unicode="&#xa8f3;" horiz-adv-x="843" 
d="M501 1253q0 -40 -29 -69t-69 -29t-68.5 29t-28.5 69t28.5 68.5t68.5 28.5t69 -28.5t29 -68.5zM100 1208q0 33 11 47.5t30 24.5q46 -146 113 -205.5t146 -59.5q84 0 153 60t100 187q50 -21 70 -44t20 -62q0 -90 -86.5 -182t-220.5 -92q-153 0 -244.5 115t-91.5 211z
M184 542q0 38 39 62t111 24q46 0 107.5 -15t141.5 -64q131 -80 219 -184t88 -141q0 -10 -7.5 -23t-23.5 -20q-153 175 -263 228.5t-198 53.5q-43 0 -81.5 -7t-65.5 -14q-32 24 -49.5 49.5t-17.5 50.5z" />
    <glyph glyph-name="dDoublecandrabinduvirama" unicode="&#xa8f4;" horiz-adv-x="843" 
d="M501 1253q0 -40 -29 -69t-69 -29t-68.5 29t-28.5 69t28.5 68.5t68.5 28.5t69 -28.5t29 -68.5zM100 1208q0 33 11 47.5t30 24.5q46 -146 113 -205.5t146 -59.5q84 0 153 60t100 187q50 -21 70 -44t20 -62q0 -90 -86.5 -182t-220.5 -92q-153 0 -244.5 115t-91.5 211z
M501 653q0 -40 -29 -69t-69 -29t-68.5 29t-28.5 69t28.5 68.5t68.5 28.5t69 -28.5t29 -68.5zM100 608q0 33 11 47.5t30 24.5q46 -146 113 -205.5t146 -59.5q84 0 153 60t100 187q50 -21 70 -44t20 -62q0 -90 -86.5 -182t-220.5 -92q-153 0 -244.5 115t-91.5 211zM184 -18
q0 38 39 62t111 24q46 0 107.5 -15t141.5 -64q131 -80 219 -184t88 -141q0 -10 -7.5 -23t-23.5 -20q-153 175 -263 228.5t-198 53.5q-43 0 -81.5 -7t-65.5 -14q-32 24 -49.5 49.5t-17.5 50.5z" />
    <glyph glyph-name="dCandrabindudigittwo" unicode="&#xa8f5;" horiz-adv-x="843" 
d="M501 1253q0 -40 -29 -69t-69 -29t-68.5 29t-28.5 69t28.5 68.5t68.5 28.5t69 -28.5t29 -68.5zM100 1208q0 33 11 47.5t30 24.5q46 -146 113 -205.5t146 -59.5q84 0 153 60t100 187q50 -21 70 -44t20 -62q0 -90 -86.5 -182t-220.5 -92q-153 0 -244.5 115t-91.5 211z
M622 -108q22 0 42.5 6.5t48.5 24.5q25 -19 36.5 -42t11.5 -44q0 -33 -31 -59.5t-82 -26.5q-69 0 -152 69.5t-164 247.5q-57 -1 -132 32t-75 109q0 39 32 67.5t79 28.5q37 0 73 -20.5t59 -55.5q112 51 164 129t52 154q0 74 -39.5 111.5t-99.5 37.5q-76 0 -121 -54.5
t-42 -128.5q-63 -6 -102.5 22t-39.5 75q0 69 76.5 131.5t186.5 62.5q131 0 225 -91.5t94 -212.5q0 -102 -76 -204t-224 -168q57 -119 103 -160t97 -41z" />
    <glyph glyph-name="dCandrabindudigitthree" unicode="&#xa8f6;" horiz-adv-x="843" 
d="M501 1253q0 -40 -29 -69t-69 -29t-68.5 29t-28.5 69t28.5 68.5t68.5 28.5t69 -28.5t29 -68.5zM100 1208q0 33 11 47.5t30 24.5q46 -146 113 -205.5t146 -59.5q84 0 153 60t100 187q50 -21 70 -44t20 -62q0 -90 -86.5 -182t-220.5 -92q-153 0 -244.5 115t-91.5 211z
M559 -183q22 0 40.5 6t49.5 25q24 -18 36.5 -41.5t12.5 -44.5q0 -34 -31.5 -60t-80.5 -26q-64 0 -127.5 55t-112.5 169q-84 4 -134.5 48t-50.5 93q0 37 29 67t77 30q46 0 83 -29.5t56 -75.5q86 10 127.5 49.5t41.5 90.5q0 35 -19.5 68t-60.5 55q-37 -13 -85.5 -22
t-104.5 -13l-59 124l5 7q169 11 236.5 55.5t67.5 111.5q0 54 -34 82.5t-88 28.5q-70 0 -108 -45.5t-35 -113.5q-63 -5 -102.5 23t-39.5 73q0 54 63 107t179 53q134 0 218.5 -76.5t84.5 -182.5q0 -50 -21.5 -90.5t-78.5 -79.5q57 -41 90.5 -97t33.5 -113q0 -77 -68 -143.5
t-211 -82.5q31 -51 56 -68t65 -17z" />
    <glyph glyph-name="dCandrabinduavagraha" unicode="&#xa8f7;" horiz-adv-x="843" 
d="M501 1253q0 -40 -29 -69t-69 -29t-68.5 29t-28.5 69t28.5 68.5t68.5 28.5t69 -28.5t29 -68.5zM100 1208q0 33 11 47.5t30 24.5q46 -146 113 -205.5t146 -59.5q84 0 153 60t100 187q50 -21 70 -44t20 -62q0 -90 -86.5 -182t-220.5 -92q-153 0 -244.5 115t-91.5 211z
M685 652h-242q-72 0 -107.5 -29t-35.5 -70q0 -96 138.5 -130t228.5 -169q25 -39 36.5 -77.5t11.5 -76.5q0 -90 -61 -153.5t-171 -63.5q-154 0 -243 108t-89 195q0 24 14 51t66 30q17 -138 80.5 -196.5t139.5 -58.5q63 0 103.5 37.5t40.5 96.5q0 121 -140.5 149t-249.5 183
q-18 25 -31.5 55.5t-13.5 67.5q0 76 63.5 120t161.5 44h264l40 -106z" />
    <glyph glyph-name="dPushpika" unicode="&#xa8f8;" horiz-adv-x="1338" 
d="M955 1062q99 0 191 -91.5t92 -276.5q0 -239 -164 -436t-399 -197q-181 0 -301.5 115.5t-120.5 248.5q0 42 13 83t37 76q-104 51 -153.5 124t-49.5 150q0 101 73 165.5t177 64.5q69 0 113.5 -34t76.5 -107q-159 0 -226.5 -41.5t-67.5 -107.5q0 -46 30.5 -81t95.5 -63
q39 29 89.5 48.5t108.5 25.5l111 -129l-4 -10q-148 -24 -220 -89t-72 -142q0 -75 61 -118t150 -43q122 0 232.5 75t182.5 186q-131 102 -191.5 203t-60.5 193q0 100 59 154t137 54zM1058 542q25 56 40.5 118.5t15.5 122.5q0 73 -24 111t-70 38q-52 0 -86.5 -42t-34.5 -99
t39 -119.5t120 -129.5z" />
    <glyph glyph-name="dGapfiller" unicode="&#xa8f9;" horiz-adv-x="1185" 
d="M810 646l-72 -78q-68 74 -100 146.5t-32 139.5q0 100 59 154t137 54q99 0 191 -91.5t92 -276.5q0 -239 -164 -436t-399 -197q-181 0 -301.5 115.5t-120.5 249.5q0 113 87 200.5t230 101.5l111 -129l-4 -10q-148 -24 -220 -89t-72 -142q0 -75 61 -118t153 -43
q214 0 364.5 197t150.5 389q0 73 -24 111t-70 38q-52 0 -86.5 -42t-34.5 -99q0 -37 16 -74.5t48 -70.5z" />
    <glyph glyph-name="dCaret" unicode="&#xa8fa;" horiz-adv-x="926" 
d="M100 1735l144 49l215 -362h8l215 362l144 -49l-287 -410h-152z" />
    <glyph glyph-name="dHeadstroke" unicode="&#xa8fb;" horiz-adv-x="1041" 
d="M0 1577l-56 124l6 9h1091l56 -124l-6 -9h-1091z" />
    <glyph glyph-name="zerowidthjoiner" unicode="&#xfeff;" horiz-adv-x="0" 
d="M103 -492h-103v2548h394v-85h-291v-2463z" />
    <glyph glyph-name="highdef" horiz-adv-x="0" 
d="M-30 2333h60l-30 -55zM0 -752l30 -55h-60z" />
    <glyph glyph-name="dEprishthamatrasign" 
d="M357 -19l-151 38v1311h367l56 -124l-6 -9h-257v-1209z" />
    <glyph glyph-name="dEight.nep" horiz-adv-x="1130" 
d="M403 291q109 0 190.5 60.5t184.5 60.5q110 0 201 -86.5t91 -189.5q0 -63 -35.5 -101.5t-86.5 -38.5q-34 0 -64.5 20t-62.5 62q39 10 79 45t40 78q0 20 -16.5 47.5t-71.5 30.5q-95 5 -178 -59t-205 -64q-143 0 -250.5 115.5t-107.5 267.5q0 79 34 183.5t116 219.5h-145
l-56 124l6 9h923l56 -124l-6 -9h-549q-122 -110 -179.5 -246t-57.5 -237q0 -93 42.5 -130.5t107.5 -37.5z" />
    <glyph glyph-name="dFive.nep" horiz-adv-x="824" 
d="M762 813q-5 -193 -75 -346.5t-177 -260.5q160 -100 247 -172t87 -106q0 -10 -9.5 -25.5t-32.5 -25.5q-96 71 -187.5 129t-208.5 112q-41 -24 -82.5 -36.5t-79.5 -12.5q-82 0 -133 48.5t-51 105.5q0 50 40.5 88t110.5 38q33 0 73.5 -11.5t89.5 -40.5q43 37 81.5 86
t65.5 98q-190 0 -313.5 120t-123.5 297q0 87 28 196t62 213l160 -70q-22 -73 -56 -197t-34 -223q0 -120 56 -169.5t128 -49.5q81 0 131 61.5t50 210.5q0 60 -1 130.5t-6 136.5l146 -40q9 -78 12 -155.5t2 -128.5z" />
    <glyph glyph-name="dZha.nep" horiz-adv-x="1261" 
d="M317 1197q89 -122 122 -199.5t62 -170.5q57 60 118.5 91.5t144.5 31.5q173 0 286.5 -125.5t113.5 -306.5q0 -122 -61 -251.5t-194 -195.5q35 -65 81.5 -87.5t92.5 -22.5q34 0 69 9.5t70 26.5q13 -25 17.5 -45.5t4.5 -35.5q0 -49 -35.5 -82t-95.5 -33t-145.5 50
t-150.5 201q-130 0 -201 52.5t-71 124.5q0 49 35 80.5t88 31.5q46 0 94 -27t85 -81q82 51 129.5 157.5t47.5 210.5q0 116 -54 168t-132 52q-113 0 -191 -84t-146 -183q-81 -119 -135 -176.5t-137 -56.5q-80 1 -115.5 52.5t-35.5 132.5q40 -10 68.5 -13t40.5 -3
q63 0 127.5 65t64.5 197q0 90 -42 197t-143 248h-194l-56 124l6 9h1311l56 -124l-6 -9h-994z" />
    <glyph glyph-name="dJha.nep" horiz-adv-x="1874" 
d="M1226 833q48 47 103 73t124 26q135 0 235.5 -106.5t100.5 -296.5q0 -157 -65 -243t-136 -86q-39 0 -75.5 24.5t-59.5 62.5q103 54 157 149.5t54 189.5q0 85 -41 132t-107 47q-92 0 -191 -86.5t-99 -222.5v-508l-9 -7l-151 38v499h-411v-145q0 -42 -17 -60.5t-38 -18.5
q-57 0 -152.5 99t-95.5 180q0 51 44 69t101 20v407q0 103 -30 147t-86 44q-51 0 -82 -30.5t-31 -81.5t39 -99.5t132 -85.5q-7 -11 -23 -20t-46 -9q-88 0 -170 80t-82 184q0 79 54 134t144 55q134 0 236.5 -120t102.5 -294v-310h411v534h-282l-56 124l6 9h1140l56 -124l-6 -9
h-698v-364z" />
    <glyph glyph-name="dLa.mar" horiz-adv-x="1421" 
d="M1074 897q107 -31 182 -130t76 -259q0 -174 -103 -326t-203 -152q-31 0 -63.5 18t-59.5 59q137 99 220.5 229t83.5 252q1 96 -43 140t-110 43q-84 -1 -177 -78t-166 -252l-10 -3l-133 84q17 47 37.5 88.5t42.5 75.5q-51 52 -102.5 77t-100.5 25q-84 0 -135.5 -61
t-51.5 -153q0 -117 90 -267.5t263 -272.5q-7 -19 -23 -30.5t-35 -11.5q-86 0 -268.5 200.5t-182.5 432.5q0 130 75 214.5t206 84.5q79 0 154.5 -36.5t165.5 -129.5q51 60 109 95t112 48v296h-924l-56 124l6 9h1471l56 -124l-6 -9h-397v-300z" />
    <glyph glyph-name="dSha.mar" horiz-adv-x="1511" 
d="M1304 1197v-1209l-9 -7l-151 38v1178h-518v-159q115 -31 187 -125.5t73 -223.5q0 -122 -86.5 -226t-209.5 -161q96 -109 173 -217.5t77 -150.5q0 -18 -15.5 -36t-44.5 -21q-75 105 -150.5 195.5t-177.5 184.5q-25 -5 -49 -7.5t-45 -2.5q-87 1 -150 54t-63 122
q0 54 38.5 88.5t95.5 34.5q46 0 95.5 -26t100.5 -83q116 48 203 140.5t88 193.5q1 72 -46 112t-129 40q-80 0 -177.5 -41t-160.5 -130q-54 14 -86 40.5t-32 57.5q0 56 97.5 121.5t243.5 78.5v147h-476l-56 124l6 9h1561l56 -124l-6 -9h-257z" />
    <glyph glyph-name="dSha.half.mar" horiz-adv-x="961" 
d="M626 1197v-159q115 -31 187 -125.5t73 -223.5q0 -122 -86.5 -225.5t-210.5 -160.5q97 -110 174 -218.5t77 -150.5q0 -18 -15.5 -36t-44.5 -21q-75 105 -150.5 195.5t-177.5 184.5q-25 -5 -49 -7.5t-44 -2.5q-87 1 -150.5 53.5t-63.5 122.5q0 54 38.5 88.5t95.5 34.5
q46 0 95.5 -26t100.5 -83q116 48 203 140.5t88 193.5q1 72 -46 112t-129 40q-80 0 -177.5 -41t-160.5 -130q-54 14 -86 40.5t-32 57.5q0 56 97.5 121.5t243.5 78.5v147h-476l-56 124l6 9h1061l56 -124l-6 -9h-435z" />
    <glyph glyph-name="dIsign.alt1" 
d="M2143 1296l-116 -27q-384 251 -746.5 364t-648.5 113q-242 0 -336.5 -66t-94.5 -161q0 -54 24.5 -105t66.5 -84h281l56 -124l-6 -9h-257v-1209l-9 -7l-151 38v1178h-206l-56 124l6 9h220q-49 54 -78 115t-29 137q0 134 115.5 229t385.5 95q381 0 825.5 -185t753.5 -425z
" />
    <glyph glyph-name="dIsign.alt2" 
d="M2543 1296l-116 -27q-435 263 -885.5 375t-792.5 112q-304 0 -426 -72t-122 -180q0 -49 22.5 -93t68.5 -81h281l56 -124l-6 -9h-257v-1209l-9 -7l-151 38v1178h-206l-56 124l6 9h220q-46 51 -76.5 113t-30.5 136q0 141 142 239t464 98q284 0 799 -121t1075 -499z" />
    <glyph glyph-name="dIsign.alt3" 
d="M1123 1286l-96 -17q-178 278 -318 377.5t-264 99.5q-116 0 -180 -62t-64 -157q0 -58 24 -109t67 -88h281l56 -124l-6 -9h-257v-1209l-9 -7l-151 38v1178h-206l-56 124l6 9h220q-53 59 -80 121.5t-27 134.5q0 132 91 226t248 94q173 0 345 -143.5t376 -476.5z" />
    <glyph glyph-name="dIsign.alt4" 
d="M1603 1296l-96 -27q-266 263 -505.5 370t-443.5 107q-184 0 -270.5 -69t-86.5 -170q0 -54 23.5 -97.5t67.5 -79.5h281l56 -124l-6 -9h-257v-1209l-9 -7l-151 38v1178h-206l-56 124l6 9h220q-51 57 -79 118.5t-28 133.5q0 134 107.5 229t330.5 95q247 0 521.5 -143.5
t580.5 -466.5z" />
    <glyph glyph-name="dIsign.alt5" 
d="M859 1945q630 0 1195.5 -215t858.5 -429l-107 -32q-458 272 -931 394t-925 122q-420 0 -584.5 -85t-164.5 -199q0 -45 22 -89t69 -82h281l56 -124l-6 -9h-257v-1209l-9 -7l-151 38v1178h-206l-56 124l6 9h220q-49 54 -78 116.5t-29 128.5q0 150 181.5 260t614.5 110z" />
    </font>
</defs>
</svg>
