<?xml version="1.0" standalone="no"?>
<!DOCTYPE svg PUBLIC "-//W3C//DTD SVG 1.1//EN" "http://www.w3.org/Graphics/SVG/1.1/DTD/svg11.dtd" >
<svg xmlns="http://www.w3.org/2000/svg" xmlns:xlink="http://www.w3.org/1999/xlink" version="1.1">
<metadata>
Created by FontForge 20170731 at Mon Jun  8 16:25:35 2015
 By Aleksey,,,
Copyright (c) 2014, Neelakash Kshetrimayum (github.com/Neelakash/sitara). Copyright 2013, Google Corporation.
</metadata>
<defs>
<font id="Sitara-Italic" horiz-adv-x="573" >
  <font-face 
    font-family="Sitara"
    font-weight="400"
    font-style="italic"
    font-stretch="normal"
    units-per-em="2048"
    panose-1="0 0 0 0 0 0 0 0 0 0"
    ascent="1638"
    descent="-410"
    bbox="-1070 -936 4812 2333"
    underline-thickness="0"
    underline-position="0"
    slope="-11"
    unicode-range="U+000D-FEFF"
  />
<missing-glyph horiz-adv-x="1065" 
d="M932 932v-932h-799v932h799zM866 866h-666v-799h666v799z" />
    <glyph glyph-name=".notdef" horiz-adv-x="1065" 
d="M932 932v-932h-799v932h799zM866 866h-666v-799h666v799z" />
    <glyph glyph-name=".null" horiz-adv-x="0" 
 />
    <glyph glyph-name="nonmarkingreturn" horiz-adv-x="682" 
 />
    <glyph glyph-name="NULL" horiz-adv-x="600" 
 />
    <glyph glyph-name="NULL" horiz-adv-x="600" 
 />
    <glyph glyph-name="CR" unicode="&#xd;" horiz-adv-x="600" 
 />
    <glyph glyph-name="space" unicode=" " horiz-adv-x="532" 
 />
    <glyph glyph-name="exclam" unicode="!" horiz-adv-x="682" 
d="M387 412h-94l-72 1050h238zM211 125q0 40 10 66.5t28 42.5q17 16 40.5 23t50.5 7q26 0 49.5 -7t41.5 -23q17 -16 27.5 -42.5t10.5 -66.5q0 -39 -10.5 -66t-27.5 -43q-18 -16 -41.5 -23t-49.5 -7q-27 0 -50.5 7t-40.5 23q-18 16 -28 43t-10 66z" />
    <glyph glyph-name="quotedbl" unicode="&#x22;" horiz-adv-x="836" 
d="M657 981h-94l-61 481h217zM272 981h-94l-61 481h217z" />
    <glyph glyph-name="numbersign" unicode="#" horiz-adv-x="1145" 
d="M758 938h-285l-76 -401h285zM881 938l-76 -401h233v-121h-258l-78 -416h-122l77 416h-284l-78 -416h-123l78 416h-168v121h190l78 401h-244v121h267l73 403h125l-75 -403h284l76 403h123l-76 -403h160v-121h-182z" />
    <glyph glyph-name="dollar" unicode="$" horiz-adv-x="1145" 
d="M354 1090q0 -43 10.5 -75.5t31.5 -57.5t51.5 -45t70.5 -38v429q-40 -9 -71 -28.5t-51 -46.5q-21 -28 -31.5 -63t-10.5 -75zM813 399q0 41 -10 73.5t-33 60.5t-59.5 52t-89.5 48v-455q92 16 142 75t50 146zM518 1556h103v-155q92 -2 156.5 -20.5t105.5 -48.5
q41 -31 59.5 -72t18.5 -89q0 -66 -44 -99.5t-118 -33.5q0 45 -7.5 91t-26.5 83t-54.5 63t-89.5 32v-478q92 -40 163 -80t119 -86t73 -103.5t25 -129.5q0 -153 -99.5 -239t-280.5 -105v-248h-103v244q-51 0 -103 5t-101 15t-95 26t-84 38v315h86q0 -57 21.5 -110.5
t61.5 -95.5q39 -43 93.5 -70.5t120.5 -32.5v506q-96 43 -162.5 85.5t-107.5 88.5t-59.5 100.5t-18.5 120.5q0 69 24.5 125t69.5 98q45 41 109.5 66.5t144.5 34.5v159z" />
    <glyph glyph-name="percent" unicode="%" horiz-adv-x="1835" 
d="M764 1030q0 -102 -21 -186.5t-63 -144.5t-105 -93t-147 -33q-87 0 -151 33t-105 93t-60.5 144.5t-19.5 186.5t19.5 186t60.5 144q41 59 105 91t153 32q84 0 146.5 -32t104.5 -91q41 -60 62 -144t21 -186zM1212 1462h134l-730 -1462h-135zM276 1030q0 -87 8 -157t26 -118
t47 -73t71 -25t71 25t47 73q17 48 24.5 118t7.5 157t-7.5 155t-24.5 116q-18 47 -46 71.5t-70 24.5t-71.5 -24.5t-47.5 -71.5q-19 -48 -27 -116t-8 -155zM1743 436q0 -102 -21 -186.5t-63 -144.5t-105 -92.5t-147 -32.5q-87 0 -151.5 32.5t-104.5 92.5t-60 144.5t-20 186.5
t19.5 186t60.5 144q41 59 105 91t153 32q84 0 146.5 -32t104.5 -91q41 -60 62 -144t21 -186zM1255 436q0 -87 8 -157t26 -118t47 -73t71 -25t71 25t46 73t24.5 118t7.5 157t-7.5 155t-24.5 116q-17 47 -45 71.5t-70 24.5t-71.5 -24.5t-47.5 -71.5q-19 -48 -27 -116t-8 -155z
" />
    <glyph glyph-name="ampersand" unicode="&#x26;" horiz-adv-x="1520" 
d="M813 1190q0 41 -10 76.5t-32 60.5t-59.5 40t-88.5 15q-90 0 -139.5 -53.5t-49.5 -140.5q0 -39 8 -73t26 -67q17 -34 44 -70t66 -79q60 26 104.5 55.5t73.5 63.5t43 76t14 96zM580 94q60 0 111.5 12.5t94.5 34.5t79 52.5t65 66.5l-453 485q-47 -26 -84.5 -57.5
t-63.5 -72.5q-27 -42 -41 -94t-14 -118q0 -75 22.5 -132.5t62.5 -96.5q40 -40 96 -60t125 -20zM1501 86v-86h-327l-170 180q-37 -42 -81.5 -78.5t-98.5 -63.5t-119.5 -42.5t-143.5 -15.5q-122 0 -214 31t-152 88q-60 56 -90.5 135.5t-30.5 175.5q0 87 23.5 151.5t66.5 113.5
q42 49 102.5 86t134.5 68q-39 46 -68.5 88.5t-48.5 84.5t-29.5 86t-10.5 94q0 68 22 123t69 95t121 61.5t175 21.5q98 0 167.5 -23t112.5 -63t62.5 -93t19.5 -112q0 -66 -19 -117t-60 -94q-42 -43 -108 -81.5t-159 -78.5l373 -395q14 46 23 93.5t15 93.5q5 45 7 88.5t2 80.5
v80h369v-86h-19q-34 0 -67 -4t-61 -18q-28 -15 -51 -42.5t-36 -74.5q-18 -66 -41.5 -143t-58.5 -154l190 -203q15 -15 31 -25t38 -16q21 -6 50.5 -8t71.5 -2h18z" />
    <glyph glyph-name="quotesingle" unicode="'" horiz-adv-x="451" 
d="M272 981h-94l-61 481h217z" />
    <glyph glyph-name="parenleft" unicode="(" horiz-adv-x="709" 
d="M330 649q0 -122 9.5 -241t41.5 -225t95 -197t167 -154v-94q-140 56 -240.5 136.5t-163.5 190.5t-92.5 255t-29.5 329t29.5 328t92.5 254t163.5 189.5t240.5 135.5v-92q-104 -63 -167 -153.5t-95 -195.5t-41.5 -224.5t-9.5 -241.5z" />
    <glyph glyph-name="parenright" unicode=")" horiz-adv-x="709" 
d="M379 649q0 122 -9.5 241.5t-41.5 224.5q-33 105 -95.5 195.5t-166.5 153.5v92q140 -56 240.5 -135.5t163.5 -189.5t92.5 -254t29.5 -328t-29.5 -329t-92.5 -255t-163.5 -190.5t-240.5 -136.5v94q104 63 166.5 154t95.5 197q32 106 41.5 225t9.5 241z" />
    <glyph glyph-name="asterisk" unicode="*" horiz-adv-x="1024" 
d="M84 1063l344 102l-344 103l72 162l315 -199l-53 325h178l-57 -323l317 192l72 -159l-346 -101l346 -100l-72 -158l-317 191l57 -324h-178l51 324l-313 -195z" />
    <glyph glyph-name="plus" unicode="+" horiz-adv-x="1145" 
d="M1012 793v-121h-379v-379h-123v379h-377v121h377v378h123v-378h379z" />
    <glyph glyph-name="comma" unicode="," horiz-adv-x="512" 
d="M397 86q0 -65 -18 -126.5t-58 -112.5t-104 -93t-156 -69v86q101 32 148 78t47 106q0 20 -11 34t-28 24q-8 5 -17 10t-19 10q-19 10 -36 24t-28 35q-5 10 -8 22.5t-3 28.5q0 59 38.5 90t95.5 31q32 0 60 -11.5t50 -33.5t34.5 -56t12.5 -77z" />
    <glyph glyph-name="hyphen" unicode="-" horiz-adv-x="635" 
d="M584 635v-154h-533v154h533z" />
    <glyph glyph-name="period" unicode="." horiz-adv-x="586" 
d="M164 125q0 40 10 66.5t28 42.5q17 16 40.5 23t50.5 7q26 0 49.5 -7t41.5 -23q17 -16 27.5 -42.5t10.5 -66.5q0 -39 -10.5 -66t-27.5 -43q-18 -16 -41.5 -23t-49.5 -7q-27 0 -50.5 7t-40.5 23q-18 16 -28 43t-10 66z" />
    <glyph glyph-name="zero" unicode="0" horiz-adv-x="1145" 
d="M1053 733q0 -168 -29.5 -307.5t-89.5 -238.5t-150.5 -153t-210.5 -54q-125 0 -216.5 54t-149.5 153t-86.5 239t-28.5 309t28.5 307.5t86.5 236.5t150 151t218 53q119 0 209 -53t150 -151t89.5 -237t29.5 -309zM305 733q0 -151 14.5 -271t45.5 -202t82.5 -126t125.5 -44
q75 0 126.5 44t82.5 126t44.5 202t13.5 271t-13.5 271t-44.5 201t-82 124t-125 43q-75 0 -126.5 -43t-83.5 -124t-46 -201t-14 -271z" />
    <glyph glyph-name="one" unicode="1" horiz-adv-x="1145" 
d="M977 86v-86h-780v86h137q35 0 66 5t53 21q22 15 35.5 44t13.5 77v1076q-39 -48 -74 -87t-67 -67t-62.5 -43.5t-60.5 -15.5q-45 0 -74 30.5t-29 79.5q31 8 62.5 19.5t67.5 30.5q35 18 76.5 44.5t92.5 63.5l144 106h131v-1237q0 -48 13 -77t36 -44q23 -16 53.5 -21t65.5 -5
h100z" />
    <glyph glyph-name="two" unicode="2" horiz-adv-x="1145" 
d="M944 1141q0 -72 -23 -140t-67 -139q-44 -72 -107.5 -149t-144.5 -166l-346 -383h473q46 0 76 13t49 34t29.5 48.5t17.5 57.5l8 37h86l-10 -354h-881v150l342 395q81 95 137 170.5t90 141.5t49 130t15 133q0 59 -12.5 107t-37.5 82t-65 52.5t-94 18.5q-69 0 -113 -25
t-69 -67t-34 -97.5t-9 -115.5q-37 0 -69 6t-56 22q-24 15 -37.5 40.5t-13.5 64.5q0 59 25.5 109.5t76.5 87.5q50 37 125 57.5t174 20.5q96 0 173.5 -24.5t131.5 -68.5q54 -45 82.5 -108t28.5 -141z" />
    <glyph glyph-name="three" unicode="3" horiz-adv-x="1145" 
d="M508 90q60 0 115.5 17t97.5 56t67 102t25 155q0 65 -25.5 117.5t-73.5 89.5t-117 57.5t-155 20.5h-65v104h65q68 0 127 22.5t102 63.5t68 100t25 131q0 60 -12 107t-38 80q-27 33 -68.5 50t-100.5 17q-69 0 -113.5 -25t-69.5 -67t-34 -97.5t-9 -115.5q-37 0 -69 6t-56 22
q-24 15 -37.5 40.5t-13.5 64.5q0 59 25.5 109.5t76.5 87.5t126 57.5t174 20.5q96 0 175.5 -22t136.5 -63q56 -42 87 -102.5t31 -138.5q0 -69 -24.5 -130t-68.5 -110t-104 -84.5t-131 -52.5q38 -4 81 -13.5t85 -27.5t80.5 -45t68.5 -66q29 -39 46.5 -90.5t17.5 -119.5
q0 -81 -22 -146.5t-60 -113.5q-39 -49 -90.5 -83t-108.5 -55t-118.5 -30.5t-120.5 -9.5q-101 0 -174 18.5t-120 49.5q-48 31 -70.5 72.5t-22.5 86.5q0 62 35 96.5t94 34.5q0 -54 17.5 -99.5t50.5 -78.5t81.5 -51.5t110.5 -18.5z" />
    <glyph glyph-name="four" unicode="4" horiz-adv-x="1145" 
d="M1116 516v-115h-254v-168q0 -48 14 -77t36 -44q22 -16 53 -21t65 -5h27v-86h-617v86h58q35 0 66 5t53 21q22 15 35.5 44t13.5 77v168h-631v84l633 977h194v-946h254zM182 516h484v379q0 45 1.5 99t2.5 110t3.5 111.5t6.5 103.5q-7 -14 -20 -37.5t-29 -52.5t-35 -61
t-37 -62q-10 -16 -18.5 -30t-16.5 -27t-15 -24.5t-13 -20.5z" />
    <glyph glyph-name="five" unicode="5" horiz-adv-x="1145" 
d="M489 100q63 0 116.5 18t93.5 58q39 40 61 107t22 163q0 81 -22 141t-63 100t-98 59.5t-128 19.5q-53 0 -91.5 -4t-67.5 -10q-30 -7 -52 -15t-41 -16l-49 14l66 725h684l10 -309h-86l-8 61q-3 22 -8.5 38t-17.5 26t-32.5 15t-52.5 5h-397l-39 -450q31 11 90 22t149 11
q99 0 184.5 -27t148.5 -81t98.5 -136t35.5 -189q0 -104 -33.5 -190t-96.5 -147t-156 -95t-209 -34q-113 0 -188 19.5t-119 49.5t-62 66.5t-18 70.5q0 57 31.5 89t97.5 32q0 -44 15.5 -82t46.5 -65q30 -28 76.5 -44t108.5 -16z" />
    <glyph glyph-name="six" unicode="6" horiz-adv-x="1145" 
d="M659 1384q-153 0 -232.5 -152t-90.5 -450q25 21 55.5 40.5t66.5 34.5q36 14 78.5 23t92.5 9q93 0 169.5 -29t130.5 -83q53 -54 82 -132t29 -176q0 -107 -29.5 -197.5t-85.5 -154.5q-57 -64 -139 -100.5t-186 -36.5q-101 0 -188.5 43t-150.5 134t-99.5 235t-36.5 345
q0 96 14.5 189.5t43.5 176.5t73 153t104 121q59 50 134 78t165 28q86 0 149.5 -18t105.5 -48t62.5 -69t20.5 -80q0 -59 -40 -91t-117 -32q0 50 -9.5 93.5t-31.5 76.5q-22 32 -56 50.5t-84 18.5zM588 784q-40 0 -77 -10.5t-69 -26.5q-33 -16 -60 -38t-48 -43
q2 -153 21.5 -262.5t54.5 -178.5t85.5 -101t110.5 -32q110 0 167.5 86t57.5 271q0 174 -63 254.5t-180 80.5z" />
    <glyph glyph-name="seven" unicode="7" horiz-adv-x="1145" 
d="M1047 1401l-504 -1401h-154l483 1296h-538q-54 0 -84.5 -26.5t-34.5 -77.5l-8 -102h-86l10 370h916v-59z" />
    <glyph glyph-name="eight" unicode="8" horiz-adv-x="1145" 
d="M94 367q0 74 23.5 130t65.5 99t99.5 78t123.5 67q-57 33 -106.5 71.5t-84.5 84.5t-54.5 101t-19.5 118q0 71 25 137t78 117t138 82t202 31q96 0 171.5 -26.5t126.5 -73.5t78 -111.5t27 -141.5q0 -66 -20 -117.5t-56 -91.5t-87 -73t-113 -64q75 -36 138 -77t108 -89
t69.5 -104.5t24.5 -122.5q0 -96 -35.5 -173t-98.5 -130t-155 -80.5t-203 -27.5q-114 0 -201.5 30.5t-145.5 82.5t-88 122.5t-30 151.5zM805 1135q0 47 -12.5 92t-39.5 81q-28 35 -72.5 56.5t-109.5 21.5q-57 0 -101.5 -18.5t-74.5 -50.5q-30 -33 -45.5 -78t-15.5 -98
q0 -54 18 -98.5t52 -80.5t86 -67.5t120 -63.5q57 29 95 59.5t60 67.5q22 36 31 79.5t9 97.5zM569 74q66 0 121 20.5t94 56.5q38 36 59 86t21 109q0 51 -19 96t-62 87q-43 41 -111.5 80.5t-167.5 82.5q-96 -51 -153.5 -134.5t-57.5 -199.5q0 -63 18 -115.5t52 -89.5t86 -58
t120 -21z" />
    <glyph glyph-name="nine" unicode="9" horiz-adv-x="1145" 
d="M553 684q50 1 91.5 15t73.5 36t55.5 52t37.5 63v4q-2 134 -22 232t-55 161t-83.5 93t-107.5 30q-108 0 -168 -95.5t-60 -275.5q0 -84 15 -144t45 -98t74.5 -55.5t103.5 -17.5zM467 90q169 0 250.5 152.5t91.5 459.5q-22 -27 -51.5 -52t-66.5 -44t-83 -31t-100 -12
q-89 0 -163.5 26.5t-127.5 77.5q-54 51 -83.5 129.5t-29.5 182.5q0 110 30 203.5t87 159.5q56 66 138 103.5t184 37.5q104 0 191.5 -40t150.5 -124t99 -214.5t36 -309.5q0 -107 -13.5 -210t-41.5 -193t-73 -166.5t-106 -131.5t-141.5 -86t-179.5 -31q-87 0 -144.5 15.5
t-90.5 40.5q-34 25 -48 57t-14 64q0 38 19 64t42 34q14 -32 34.5 -61.5t50.5 -51.5q29 -22 67 -35.5t86 -13.5z" />
    <glyph glyph-name="colon" unicode=":" horiz-adv-x="588" 
d="M166 969q0 40 10 66.5t28 42.5q17 16 40.5 23t50.5 7q26 0 49.5 -7t41.5 -23q17 -16 27.5 -42.5t10.5 -66.5q0 -39 -10.5 -66t-27.5 -43q-18 -16 -41.5 -23.5t-49.5 -7.5q-27 0 -50.5 7.5t-40.5 23.5q-18 16 -28 43t-10 66zM166 125q0 40 10 66.5t28 42.5q17 16 40.5 23
t50.5 7q26 0 49.5 -7t41.5 -23q17 -16 27.5 -42.5t10.5 -66.5q0 -39 -10.5 -66t-27.5 -43q-18 -16 -41.5 -23t-49.5 -7q-27 0 -50.5 7t-40.5 23q-18 16 -28 43t-10 66z" />
    <glyph glyph-name="semicolon" unicode=";" horiz-adv-x="512" 
d="M129 969q0 40 10 66.5t28 42.5q17 16 40.5 23t50.5 7q26 0 49.5 -7t41.5 -23q17 -16 27.5 -42.5t10.5 -66.5q0 -39 -10.5 -66t-27.5 -43q-18 -16 -41.5 -23.5t-49.5 -7.5q-27 0 -50.5 7.5t-40.5 23.5q-18 16 -28 43t-10 66zM397 86q0 -65 -18 -126.5t-58 -112.5t-104 -93
t-156 -69v86q101 32 148 78t47 106q0 20 -11 34t-28 24q-8 5 -17 10t-19 10q-19 10 -36 24t-28 35q-5 10 -8 22.5t-3 28.5q0 59 38.5 90t95.5 31q32 0 60 -11.5t50 -33.5t34.5 -56t12.5 -77z" />
    <glyph glyph-name="less" unicode="&#x3c;" horiz-adv-x="1145" 
d="M1012 362v-137l-879 471v72l879 473v-137l-688 -373z" />
    <glyph glyph-name="equal" unicode="=" horiz-adv-x="1145" 
d="M133 872v121h879v-121h-879zM133 469v121h879v-121h-879z" />
    <glyph glyph-name="greater" unicode="&#x3e;" horiz-adv-x="1145" 
d="M1012 768v-72l-879 -471v137l688 369l-688 373v137z" />
    <glyph glyph-name="question" unicode="?" horiz-adv-x="1024" 
d="M522 643v-231h-125v311q89 36 149.5 84t97.5 103q36 55 51.5 116t15.5 121q0 53 -13 96.5t-40 74.5q-27 30 -69.5 47t-101.5 17q-63 0 -107 -21t-71 -57t-39 -83.5t-12 -100.5q-37 0 -68 9t-53 25t-35.5 41t-13.5 58q0 49 22.5 91t70.5 73q47 31 119 48.5t171 17.5
q96 0 178.5 -25t142.5 -72q60 -48 94 -117.5t34 -156.5q0 -84 -26.5 -153t-77.5 -126t-125 -104t-169 -86zM328 125q0 40 10 66.5t28 42.5q17 16 40.5 23t50.5 7q26 0 49.5 -7t41.5 -23q17 -16 27.5 -42.5t10.5 -66.5q0 -39 -10.5 -66t-27.5 -43q-18 -16 -41.5 -23t-49.5 -7
q-27 0 -50.5 7t-40.5 23q-18 16 -28 43t-10 66z" />
    <glyph glyph-name="at" unicode="@" horiz-adv-x="1886" 
d="M1778 803q0 -147 -36.5 -267t-93.5 -204t-129 -129t-143 -45q-90 0 -151 49.5t-90 136.5h-11q-21 -40 -47.5 -74t-59.5 -59q-34 -25 -76 -39t-93 -14q-62 0 -118.5 21t-98.5 64q-43 43 -68.5 109t-25.5 156q0 54 12.5 119t39.5 128q26 63 68 122.5t99 105.5
q57 45 133.5 72.5t169.5 27.5q66 0 113.5 -18t78.5 -43l82 43h49l-104 -522q-1 -12 -3 -24l-4 -24q-3 -20 -5 -44t-2 -45q0 -36 10.5 -62.5t27.5 -43.5q17 -18 39.5 -26t47.5 -8q45 0 92 36.5t85 105.5t62.5 170.5t24.5 230.5q0 134 -43 237t-119 172t-183 104.5t-235 35.5
q-99 0 -196 -28t-183 -82t-159.5 -133t-126.5 -179t-83 -222.5t-30 -262.5q0 -170 49 -291t133 -197q83 -76 194 -111.5t234 -35.5q84 0 159 14.5t141 38.5q65 24 120.5 54.5t99.5 62.5l48 -74q-51 -38 -114 -74.5t-136 -64.5t-158 -46t-180 -18q-164 0 -302.5 45.5
t-237.5 137.5t-155.5 230.5t-56.5 323.5q0 144 31.5 276t91.5 245q59 113 144 205t190 156t230 99t265 35q171 0 301.5 -51t217.5 -139t130.5 -209.5t43.5 -259.5zM727 479q0 -107 43.5 -160t112.5 -53q51 0 89.5 22.5t64.5 58.5t42 82t25 93l78 416q-13 29 -45.5 45
t-69.5 16q-60 0 -110 -26.5t-87 -69.5t-64.5 -99t-44.5 -113q-18 -57 -26 -112.5t-8 -99.5z" />
    <glyph glyph-name="bracketleft" unicode="[" horiz-adv-x="735" 
d="M662 -176v-86h-457v1818h457v-86h-89q-34 0 -64.5 -5t-53.5 -20q-23 -16 -36 -45t-13 -77v-1352q0 -48 13 -77t36 -44q23 -16 53.5 -21t64.5 -5h89z" />
    <glyph glyph-name="backslash" unicode="\" horiz-adv-x="590" 
d="M590 -248h-121l-469 1804h119z" />
    <glyph glyph-name="bracketright" unicode="]" horiz-adv-x="737" 
d="M532 1556v-1818h-456v86h88q35 0 66 5t53 21q22 15 35.5 44t13.5 77v1352q0 48 -13.5 77t-35.5 45q-22 15 -53 20t-66 5h-88v86h456z" />
    <glyph glyph-name="asciicircum" unicode="^" horiz-adv-x="1145" 
d="M242 545h-138l431 917h71l432 -917h-137l-332 729z" />
    <glyph glyph-name="underscore" unicode="_" horiz-adv-x="940" 
d="M-10 -170h960v-121h-960v121z" />
    <glyph glyph-name="grave" unicode="`" horiz-adv-x="1182" 
d="M791 1268v-27h-78q-41 28 -89 69.5t-93 85.5t-82 84.5t-56 67.5v21h219q16 -34 37.5 -74.5t45.5 -80.5t49 -78.5t47 -67.5z" />
    <glyph glyph-name="braceleft" unicode="{" horiz-adv-x="877" 
d="M774 -174v-88h-135q-72 0 -127.5 21t-92.5 59t-56 92.5t-19 122.5v356q0 63 -18.5 104t-51.5 66q-33 24 -77 34.5t-95 12.5v86q51 2 95 12t77 35q33 24 51.5 65t18.5 103v357q0 140 74.5 216t220.5 76h135v-88h-61q-90 0 -129 -54t-39 -161v-350q0 -99 -57 -166t-171 -86
v-2q117 -20 172.5 -86.5t55.5 -167.5v-354q0 -104 39 -159.5t129 -55.5h61z" />
    <glyph glyph-name="bar" unicode="|" horiz-adv-x="1145" 
d="M510 1556h123v-2048h-123v2048z" />
    <glyph glyph-name="braceright" unicode="}" horiz-adv-x="877" 
d="M238 -262h-136v88h62q90 0 129 55.5t39 159.5v354q0 101 55 167.5t172 86.5v2q-113 19 -170 86t-57 166v350q0 107 -39 161t-129 54h-62v88h136q144 0 219 -76t75 -216v-357q0 -62 19 -103t52 -65q32 -25 76 -35t95 -12v-86q-51 -2 -95 -12.5t-76 -34.5q-33 -25 -52 -66
t-19 -104v-356q0 -68 -19 -122.5t-56 -92.5t-92 -59t-127 -21z" />
    <glyph glyph-name="asciitilde" unicode="~" horiz-adv-x="1149" 
d="M776 551q-30 0 -62 12.5t-63 31.5t-60 41.5t-52 43.5t-45 40.5t-43 34.5q-22 15 -44 24t-45 9q-60 0 -89 -58.5t-40 -178.5h-120q6 63 18.5 127.5t40.5 115.5t76 83t123 32q34 0 68 -13t66 -33t60.5 -44t52.5 -45q22 -20 43 -38.5t42 -32.5q20 -14 41 -22.5t42 -8.5
q57 0 84 62t41 175h123q-7 -63 -21 -127.5t-42 -115.5t-75.5 -83t-119.5 -32z" />
    <glyph glyph-name="nbsp" unicode="&#xa0;" horiz-adv-x="532" 
 />
    <glyph glyph-name="cent" unicode="&#xa2;" horiz-adv-x="1145" 
d="M360 741q0 -182 55 -291.5t169 -140.5v897q-49 -9 -90 -37.5t-71 -82.5t-46.5 -139.5t-16.5 -205.5zM686 0h-102v180q-93 10 -170.5 46t-133.5 102t-87 168t-31 243q0 151 33 258t90 174t134.5 100.5t164.5 41.5v149h102v-149q59 -5 118 -19.5t106 -39.5t76.5 -62.5
t29.5 -85.5q0 -71 -46 -100t-136 -29q0 42 -9 80.5t-27 69.5q-18 30 -46 51t-66 28v-909q42 0 84.5 6t81.5 16q39 9 73 20.5t58 22.5v-112q-53 -28 -130 -50t-167 -24v-176z" />
    <glyph glyph-name="multiply" unicode="&#xd7;" horiz-adv-x="1145" 
d="M997 393l-86 -86l-340 340l-340 -340l-86 88l340 340l-340 338l86 86l340 -340l340 342l86 -88l-340 -340z" />
    <glyph glyph-name="divide" unicode="&#xf7;" horiz-adv-x="1145" 
d="M469 1120q0 32 8 54t22 35t33 18.5t41 5.5t41 -5.5t34 -18.5q14 -13 22 -35t8 -54q0 -31 -8 -52.5t-22 -34.5q-15 -13 -34 -19t-41 -6t-41 6t-33 19t-22 34.5t-8 52.5zM133 793h879v-121h-879v121zM469 344q0 32 8 54t22 35t33 18.5t41 5.5t41 -5.5t34 -18.5
q14 -13 22 -35t8 -54q0 -31 -8 -53t-22 -35q-15 -13 -34 -19t-41 -6q-45 0 -74.5 25t-29.5 88z" />
    <glyph glyph-name="slash" unicode="&#x142;" horiz-adv-x="590" 
d="M471 1556h119l-469 -1804h-121z" />
    <glyph glyph-name="dCandraBinduInverted" unicode="&#x900;" horiz-adv-x="0" 
d="M611 1637q0 -52 -13.5 -72t-45.5 -36q-17 146 -72.5 205.5t-134.5 59.5q-84 0 -164.5 -60t-136.5 -187q-38 17 -55 37t-17 49q0 90 108.5 192t254.5 102q137 0 206.5 -99t69.5 -191zM203 1541q0 46 36.5 79.5t82.5 33.5q34 0 57 -24.5t23 -58.5q0 -45 -37 -78.5
t-81 -33.5q-36 0 -58.5 24t-22.5 58z" />
    <glyph glyph-name="dCandraBindu" unicode="&#x901;" horiz-adv-x="0" 
d="M423 1845q0 -46 -37 -79.5t-82 -33.5q-35 0 -57.5 24.5t-22.5 58.5q0 45 37 78.5t81 33.5q36 0 58.5 -24t22.5 -58zM7 1749q0 52 13.5 72t45.5 36q17 -146 73 -205.5t135 -59.5q84 0 164.5 60t136.5 187q38 -17 55 -37t17 -49q0 -90 -108.5 -192t-254.5 -102
q-137 0 -207 99t-70 191z" />
    <glyph glyph-name="dAnusvara" unicode="&#x902;" horiz-adv-x="0" 
d="M204 1540q0 44 36.5 77t80.5 33q34 0 56 -23.5t22 -56.5q0 -45 -36 -78t-79 -33q-35 0 -57.5 23.5t-22.5 57.5z" />
    <glyph glyph-name="dVisarga" unicode="&#x903;" 
d="M356 891q0 51 41.5 88.5t91.5 37.5q40 0 65.5 -27t25.5 -65q0 -51 -42 -88.5t-92 -37.5q-40 0 -65 27t-25 65zM226 221q0 51 41 88.5t91 37.5q40 0 65.5 -27t25.5 -65q0 -51 -41.5 -88.5t-91.5 -37.5q-40 0 -65 27t-25 65z" />
    <glyph glyph-name="dAshort" unicode="&#x904;" horiz-adv-x="1550" 
d="M1593 1330h216l31 -124l-7 -9h-258l-235 -1209l-11 -7l-143 38l114 586q-40 -17 -75 -24.5t-69 -7.5t-70 7t-70 20q13 -34 20.5 -75.5t7.5 -80.5q0 -160 -115 -271t-296 -111q-243 0 -337 197t-94 338q0 93 24 124t75 35q-14 -277 79 -404.5t242 -127.5q128 0 212.5 76.5
t84.5 189.5q0 62 -28.5 115.5t-78.5 77.5q-48 -18 -104.5 -31t-121.5 -20l-51 157l8 10q216 11 313 85t97 192q0 72 -46 110t-122 38q-104 0 -175.5 -59.5t-88.5 -147.5q-59 0 -92.5 27.5t-33.5 72.5q0 77 92.5 147.5t252.5 70.5t254 -86t94 -220q0 -83 -34 -150.5
t-130 -138.5q40 -23 84 -33.5t84 -10.5q96 0 171.5 54.5t94.5 156.5l55 290h-161l-32 124l8 9h225q17 31 26.5 56.5t9.5 44.5q0 60 -71.5 84t-199.5 43q-163 25 -340 78.5t-177 206.5q0 34 9 59.5t28 53.5q49 -121 145.5 -157t262.5 -67q212 -39 330.5 -96.5t118.5 -268.5
q0 -9 -0.5 -18.5t-1.5 -18.5z" />
    <glyph glyph-name="dA" unicode="&#x905;" horiz-adv-x="1550" 
d="M395 1117q0 77 92.5 147.5t252.5 70.5t254 -86t94 -220q0 -83 -34 -150.5t-130 -138.5q40 -23 84 -33.5t84 -10.5q96 0 171.5 54.5t94.5 156.5l55 290h-161l-32 124l8 9h581l31 -124l-7 -9h-258l-235 -1209l-11 -7l-143 38l114 586q-40 -17 -75 -24.5t-69 -7.5t-70 7
t-70 20q13 -34 20.5 -75.5t7.5 -80.5q0 -160 -115 -271t-296 -111q-243 0 -337 197t-94 338q0 93 24 124t75 35q-14 -277 79 -404.5t242 -127.5q128 0 212.5 76.5t84.5 189.5q0 62 -28.5 115.5t-78.5 77.5q-48 -18 -104.5 -31t-121.5 -20l-51 157l8 10q216 11 313 85t97 192
q0 72 -46 110t-122 38q-104 0 -175.5 -59.5t-88.5 -147.5q-59 0 -92.5 27.5t-33.5 72.5z" />
    <glyph glyph-name="dAa" unicode="&#x906;" horiz-adv-x="2033" 
d="M2323 1206l-7 -9h-258l-235 -1209l-11 -7l-143 38l229 1178h-323l-235 -1209l-11 -7l-143 38l114 586q-40 -17 -75 -24.5t-69 -7.5t-70 7t-70 20q13 -34 20.5 -75.5t7.5 -80.5q0 -160 -115 -271t-296 -111q-243 0 -337 197t-94 338q0 93 24 124t75 35q-14 -277 79 -404.5
t242 -127.5q128 0 212.5 76.5t84.5 189.5q0 62 -28.5 115.5t-78.5 77.5q-48 -18 -104.5 -31t-121.5 -20l-51 157l8 10q216 11 313 85t97 192q0 72 -46 110t-122 38q-104 0 -175.5 -59.5t-88.5 -147.5q-59 0 -92.5 27.5t-33.5 72.5q0 77 92.5 147.5t252.5 70.5t254 -86
t94 -220q0 -83 -34 -150.5t-130 -138.5q40 -23 84 -33.5t84 -10.5q96 0 171 54.5t95 156.5l57 290h-163l-32 124l8 9h1064z" />
    <glyph glyph-name="dI" unicode="&#x907;" horiz-adv-x="1006" 
d="M966 885h-405q-86 0 -120 -33.5t-34 -79.5q0 -37 25 -59.5t70 -22.5q46 0 133 15.5t136 15.5q99 0 151 -82t52 -169q0 -134 -128.5 -222t-325.5 -99q31 -78 73.5 -105t113.5 -27q31 0 54 4.5t47 11.5q5 -14 7.5 -29t2.5 -28q0 -55 -44 -87t-104 -32q-78 0 -146.5 68
t-91.5 225q-104 9 -158.5 58t-54.5 111q0 67 45 97.5t89 30.5q51 0 80.5 -36.5t46.5 -99.5q173 -1 283 54t110 131q0 23 -13.5 40.5t-42.5 17.5q-28 0 -121 -11t-137 -11q-122 0 -200 106.5t-78 205.5q0 76 56.5 129t168.5 53h333q4 0 6.5 2t3.5 6l32 163h-648l-32 124l8 9
h1056l31 -124l-7 -9h-254l-59 -304z" />
    <glyph glyph-name="dIi" unicode="&#x908;" horiz-adv-x="1006" 
d="M966 885h-405q-86 0 -120 -33.5t-34 -79.5q0 -37 25 -59.5t70 -22.5q46 0 133 15.5t136 15.5q99 0 151 -82t52 -169q0 -134 -128.5 -222t-325.5 -99q31 -78 73.5 -105t113.5 -27q31 0 54 4.5t47 11.5q5 -14 7.5 -29t2.5 -28q0 -55 -44 -87t-104 -32q-78 0 -146.5 68
t-91.5 225q-104 9 -158.5 58t-54.5 111q0 67 45 97.5t89 30.5q51 0 80.5 -36.5t46.5 -99.5q173 -1 283 54t110 131q0 23 -13.5 40.5t-42.5 17.5q-28 0 -121 -11t-137 -11q-122 0 -200 106.5t-78 205.5q0 76 56.5 129t168.5 53h333q4 0 6.5 2t3.5 6l32 163h-648l-32 124l8 9
h666q-38 43 -59.5 101t-21.5 116q0 119 92 213t227 94q91 0 144 -47.5t53 -107.5q0 -23 -4.5 -33.5t-8.5 -17.5q-35 37 -78.5 52t-83.5 15q-96 0 -154 -61.5t-58 -149.5q0 -49 20.5 -94t57.5 -80h264l31 -124l-7 -9h-254l-59 -304z" />
    <glyph glyph-name="dU" unicode="&#x909;" horiz-adv-x="1118" 
d="M1401 1197h-342q32 -51 47 -101.5t15 -96.5q0 -74 -36.5 -137.5t-131.5 -125.5q63 -51 100 -126t37 -159q0 -154 -118 -267.5t-305 -113.5q-257 0 -357 211.5t-100 358.5q0 78 20 119.5t83 46.5q-10 -287 86 -430.5t256 -143.5q127 0 218 75.5t91 194.5q0 66 -35 113.5
t-92 71.5q-51 -16 -109.5 -24t-123.5 -8l-36 164l8 9q197 1 308 64t111 166q0 51 -35 95t-113 44h-614l-32 124l8 9h1168l31 -124z" />
    <glyph glyph-name="dUu" unicode="&#x90a;" horiz-adv-x="1518" 
d="M1059 1197q32 -51 47 -101.5t15 -96.5q0 -74 -36.5 -137.5t-131.5 -125.5q18 -13 33.5 -26.5t29.5 -27.5q88 77 153 112t133 35q115 0 188 -91.5t73 -230.5q0 -169 -87.5 -275t-176.5 -106q-42 0 -74.5 25t-45.5 62q112 47 189.5 142.5t77.5 211.5q0 61 -28 98.5
t-79 37.5q-54 0 -117.5 -40.5t-138.5 -119.5q4 -18 6 -43t2 -46q0 -156 -118.5 -270t-305.5 -114q-257 0 -357 211.5t-100 358.5q0 78 20 119.5t83 46.5q-10 -287 86 -430.5t256 -143.5q127 0 218 75.5t91 194.5q0 66 -35 113.5t-92 71.5q-51 -16 -109.5 -24t-123.5 -8
l-36 164l8 9q197 1 308 64t111 166q0 51 -35 95t-113 44h-614l-32 124l8 9h1568l31 -124l-7 -9h-742z" />
    <glyph glyph-name="dRvocalic" unicode="&#x90b;" horiz-adv-x="1711" 
d="M1187 1197l-94 -484q84 7 158 30.5t142 64.5q-11 26 -16.5 51.5t-5.5 46.5q0 55 41.5 97t106.5 42q61 0 97 -41t36 -93q0 -46 -29 -90t-80 -86q59 -98 89.5 -180.5t30.5 -150.5q0 -122 -81 -195t-170 -73q-60 0 -92 36.5t-28 97.5q91 0 171 44.5t80 131.5q0 31 -17.5 85
t-66.5 147q-81 -46 -184 -76.5t-211 -34.5l-112 -579l-11 -7l-143 38l97 503q-150 -93 -273 -179.5t-248 -184.5l-99 118l2 12q136 104 281 201.5t316 196.5q-116 103 -186 148t-125 45t-113.5 -40.5t-114.5 -113.5q-37 26 -56.5 57t-19.5 62q0 57 71.5 116t191.5 59
q78 0 158.5 -48.5t261.5 -207.5l85 434h-794l-32 124l8 9h1761l31 -124l-7 -9h-807z" />
    <glyph glyph-name="dLvocalic" unicode="&#x90c;" horiz-adv-x="1411" 
d="M1307 1197l-59 -300q82 -26 133.5 -105t51.5 -186q0 -115 -47 -181.5t-134 -153.5q-95 -95 -172 -162.5t-77 -122.5q0 -25 19.5 -37.5t51.5 -12.5q56 0 137 37t137 114q23 -9 44 -36t21 -62q0 -65 -83 -122t-186 -57q-111 0 -185.5 71.5t-74.5 151.5q0 79 78 160.5
t141 139.5q109 102 164.5 174t55.5 149q0 57 -33 86.5t-86 28.5q-79 -1 -187.5 -75t-219.5 -255l-11 -3l-117 84q27 47 55 88.5t57 75.5q-41 52 -87.5 77t-95.5 25q-97 0 -166 -77.5t-69 -192.5q0 -110 63 -245t192 -239q-10 -19 -29 -30.5t-38 -11.5q-77 0 -206.5 174
t-129.5 384q0 160 97.5 267t250.5 107q78 0 147.5 -37.5t138.5 -129.5q63 59 127.5 95t122.5 49l58 296h-924l-32 124l8 9h1461l31 -124l-7 -9h-387z" />
    <glyph glyph-name="dEcandra" unicode="&#x90d;" horiz-adv-x="1126" 
d="M553 1776q0 52 13.5 72t45.5 36q17 -146 73 -205.5t135 -59.5q84 0 164.5 60t136.5 187q38 -17 55 -37t17 -49q0 -90 -108.5 -192t-254.5 -102q-137 0 -207 99t-70 191zM1141 1197l-96 -490q-15 -75 -56.5 -119t-97.5 -44q-40 0 -72.5 21.5t-57.5 55.5q57 21 93 64.5
t46 95.5l81 416h-464l-103 -526q-19 -99 63.5 -142.5t242.5 -125.5q212 -108 284.5 -186t72.5 -147q0 -94 -61.5 -152.5t-124.5 -58.5q-42 0 -75.5 24.5t-47.5 57.5q93 44 128 86.5t35 88.5q0 30 -37.5 60t-155.5 90q-283 142 -391.5 234t-70.5 287l80 410h-123l-32 124l8 9
h1176l31 -124l-7 -9h-268z" />
    <glyph glyph-name="dEshort" unicode="&#x90e;" horiz-adv-x="1126" 
d="M1153 1330h232l31 -124l-7 -9h-268l-96 -490q-15 -75 -56.5 -119t-97.5 -44q-40 0 -72.5 21.5t-57.5 55.5q57 21 93 64.5t46 95.5l81 416h-464l-103 -526q-19 -99 63.5 -142.5t242.5 -125.5q212 -108 284.5 -186t72.5 -147q0 -94 -61.5 -152.5t-124.5 -58.5
q-42 0 -75.5 24.5t-47.5 57.5q93 44 128 86.5t35 88.5q0 30 -37.5 60t-155.5 90q-283 142 -391.5 234t-70.5 287l80 410h-123l-32 124l8 9h804q17 31 26.5 56.5t9.5 45.5q0 61 -72 83.5t-199 42.5q-162 25 -329.5 79t-167.5 204q0 36 9 61.5t28 53.5q46 -121 138 -158
t250 -66q212 -40 330.5 -97t118.5 -268q0 -9 -0.5 -18.5t-1.5 -18.5z" />
    <glyph glyph-name="dE" unicode="&#x90f;" horiz-adv-x="1126" 
d="M1141 1197l-96 -490q-15 -75 -56.5 -119t-97.5 -44q-40 0 -72.5 21.5t-57.5 55.5q57 21 93 64.5t46 95.5l81 416h-464l-103 -526q-19 -99 63.5 -142.5t242.5 -125.5q212 -108 284.5 -186t72.5 -147q0 -94 -61.5 -152.5t-124.5 -58.5q-42 0 -75.5 24.5t-47.5 57.5
q93 44 128 86.5t35 88.5q0 30 -37.5 60t-155.5 90q-283 142 -391.5 234t-70.5 287l80 410h-123l-32 124l8 9h1176l31 -124l-7 -9h-268z" />
    <glyph glyph-name="dAi" unicode="&#x910;" horiz-adv-x="1126" 
d="M891 544q-40 0 -72.5 21.5t-57.5 55.5q57 21 93 64.5t46 95.5l81 416h-464l-103 -526q-19 -99 63.5 -142.5t242.5 -125.5q212 -108 284.5 -186t72.5 -147q0 -94 -61.5 -152.5t-124.5 -58.5q-42 0 -75.5 24.5t-47.5 57.5q93 44 128 86.5t35 88.5q0 30 -37.5 60t-155.5 90
q-284 143 -392 234.5t-70 286.5l80 410h-123l-32 124l8 9h812q-153 256 -238.5 348.5t-172.5 92.5q-55 0 -99 -26.5t-78 -76.5q-35 13 -56.5 40t-21.5 63q0 58 58.5 104.5t157.5 46.5q101 0 223 -105t344 -487h247l31 -124l-7 -9h-268l-96 -490q-15 -75 -56.5 -119
t-97.5 -44z" />
    <glyph glyph-name="dOcandra" unicode="&#x911;" horiz-adv-x="2033" 
d="M1526 1776q0 52 13.5 72t45.5 36q17 -146 73 -205.5t135 -59.5q84 0 164.5 60t136.5 187q38 -17 55 -37t17 -49q0 -90 -108.5 -192t-254.5 -102q-137 0 -207 99t-70 191zM2323 1206l-7 -9h-258l-235 -1209l-11 -7l-143 38l229 1178h-323l-235 -1209l-11 -7l-143 38
l114 586q-40 -17 -75 -24.5t-69 -7.5t-70 7t-70 20q13 -34 20.5 -75.5t7.5 -80.5q0 -160 -115 -271t-296 -111q-243 0 -337 197t-94 338q0 93 24 124t75 35q-14 -277 79 -404.5t242 -127.5q128 0 212.5 76.5t84.5 189.5q0 62 -28.5 115.5t-78.5 77.5q-48 -18 -104.5 -31
t-121.5 -20l-51 157l8 10q216 11 313 85t97 192q0 72 -46 110t-122 38q-104 0 -175.5 -59.5t-88.5 -147.5q-59 0 -92.5 27.5t-33.5 72.5q0 77 92.5 147.5t252.5 70.5t254 -86t94 -220q0 -83 -34 -150.5t-130 -138.5q40 -23 84 -33.5t84 -10.5q96 0 171 54.5t95 156.5l57 290
h-163l-32 124l8 9h1064z" />
    <glyph glyph-name="dOshort" unicode="&#x912;" horiz-adv-x="2033" 
d="M2323 1206l-7 -9h-258l-235 -1209l-11 -7l-143 38l229 1178h-323l-235 -1209l-11 -7l-143 38l114 586q-40 -17 -75 -24.5t-69 -7.5t-70 7t-70 20q13 -34 20.5 -75.5t7.5 -80.5q0 -160 -115 -271t-296 -111q-243 0 -337 197t-94 338q0 93 24 124t75 35q-14 -277 79 -404.5
t242 -127.5q128 0 212.5 76.5t84.5 189.5q0 62 -28.5 115.5t-78.5 77.5q-48 -18 -104.5 -31t-121.5 -20l-51 157l8 10q216 11 313 85t97 192q0 72 -46 110t-122 38q-104 0 -175.5 -59.5t-88.5 -147.5q-59 0 -92.5 27.5t-33.5 72.5q0 77 92.5 147.5t252.5 70.5t254 -86
t94 -220q0 -83 -34 -150.5t-130 -138.5q40 -23 84 -33.5t84 -10.5q96 0 171 54.5t95 156.5l57 290h-163l-32 124l8 9h712q17 31 26.5 56.5t9.5 44.5q0 60 -71.5 84t-199.5 43q-163 25 -340 78.5t-177 206.5q0 34 9 59.5t28 53.5q49 -121 145.5 -157.5t262.5 -66.5
q217 -40 338 -103t109 -299h212z" />
    <glyph glyph-name="dO" unicode="&#x913;" horiz-adv-x="2033" 
d="M2323 1206l-7 -9h-258l-235 -1209l-11 -7l-143 38l229 1178h-323l-235 -1209l-11 -7l-143 38l114 586q-40 -17 -75 -24.5t-69 -7.5t-70 7t-70 20q13 -34 20.5 -75.5t7.5 -80.5q0 -160 -115 -271t-296 -111q-243 0 -337 197t-94 338q0 93 24 124t75 35q-14 -277 79 -404.5
t242 -127.5q128 0 212.5 76.5t84.5 189.5q0 62 -28.5 115.5t-78.5 77.5q-48 -18 -104.5 -31t-121.5 -20l-51 157l8 10q216 11 313 85t97 192q0 72 -46 110t-122 38q-104 0 -175.5 -59.5t-88.5 -147.5q-59 0 -92.5 27.5t-33.5 72.5q0 77 92.5 147.5t252.5 70.5t254 -86
t94 -220q0 -83 -34 -150.5t-130 -138.5q40 -23 84 -33.5t84 -10.5q96 0 171 54.5t95 156.5l57 290h-163l-32 124l8 9h705q-167 278 -250.5 359.5t-161.5 81.5q-55 0 -99 -26.5t-78 -76.5q-34 12 -56 40t-22 62q0 53 59.5 102.5t160.5 49.5q96 0 218.5 -104t344.5 -488h243z
" />
    <glyph glyph-name="dAu" unicode="&#x914;" horiz-adv-x="2033" 
d="M2323 1206l-7 -9h-258l-235 -1209l-11 -7l-143 38l229 1178h-323l-235 -1209l-11 -7l-143 38l114 586q-40 -17 -75 -24.5t-69 -7.5t-70 7t-70 20q13 -34 20.5 -75.5t7.5 -80.5q0 -160 -115 -271t-296 -111q-243 0 -337 197t-94 338q0 93 24 124t75 35q-14 -277 79 -404.5
t242 -127.5q128 0 212.5 76.5t84.5 189.5q0 62 -28.5 115.5t-78.5 77.5q-48 -18 -104.5 -31t-121.5 -20l-51 157l8 10q216 11 313 85t97 192q0 72 -46 110t-122 38q-104 0 -175.5 -59.5t-88.5 -147.5q-59 0 -92.5 27.5t-33.5 72.5q0 77 92.5 147.5t252.5 70.5t254 -86
t94 -220q0 -83 -34 -150.5t-130 -138.5q40 -23 84 -33.5t84 -10.5q96 0 171 54.5t95 156.5l57 290h-163l-32 124l8 9h698q-119 128 -235 193.5t-189 65.5q-48 0 -86.5 -27.5t-66.5 -73.5q-48 13 -70 39t-22 59q0 61 55.5 103.5t128.5 42.5q99 0 238 -79.5t277 -207.5
q-39 275 -80.5 347t-92.5 72q-36 0 -66.5 -17.5t-55.5 -45.5q-32 13 -53 35t-21 55q0 45 45 88t126 43q91 0 179.5 -122.5t131.5 -569.5h223z" />
    <glyph glyph-name="dKa" unicode="&#x915;" horiz-adv-x="1542" 
d="M856 632q17 84 -38 147.5t-160 63.5q-127 0 -213 -86.5t-86 -202.5q0 -87 54 -141.5t143 -54.5q96 0 182 58.5t105 151.5zM1126 1197l-71 -364q57 47 117.5 73t127.5 26q116 0 193 -83t77 -232q0 -193 -95.5 -305t-180.5 -112q-39 0 -70.5 24.5t-47.5 62.5
q131 62 206.5 172t75.5 210q0 64 -32 100t-87 36q-92 0 -208.5 -86.5t-142.5 -222.5l-98 -508l-10 -7l-143 38l50 260q-53 -33 -100 -46.5t-90 -13.5q-139 0 -257 114t-118 276q0 157 116.5 267.5t275.5 110.5q70 0 147.5 -31t135.5 -110l69 351h-733l-32 124l8 9h1592
l31 -124l-7 -9h-699z" />
    <glyph glyph-name="dKha" unicode="&#x916;" horiz-adv-x="1566" 
d="M1325 651q14 72 -34.5 135.5t-146.5 63.5q-106 0 -175.5 -73t-69.5 -168q0 -81 52 -126t124 -45q85 0 157 53t86 124zM1591 1197l-235 -1209l-11 -7l-143 38l66 343q-47 -25 -84.5 -35.5t-74.5 -10.5q-130 0 -234 103.5t-104 245.5q0 136 97.5 228.5t239.5 92.5
q77 0 141.5 -34t113.5 -103l68 348h-776q16 -61 25.5 -132t9.5 -133q0 -175 -85 -289t-249 -160q87 -160 243 -261.5t381 -135.5q-22 -47 -59 -68.5t-91 -21.5q-201 0 -415 219t-214 403q0 76 43 118.5t117 42.5q30 0 62 -7.5t63 -20.5q29 30 58 83.5t29 184.5
q0 37 -4.5 87.5t-12.5 90.5h-323l-32 124l8 9h1616l31 -124l-7 -9h-258z" />
    <glyph glyph-name="dGa" unicode="&#x917;" horiz-adv-x="1241" 
d="M1267 1197l-235 -1209l-11 -7l-143 38l229 1178h-435l-131 -673q-16 -81 -46 -121t-74 -40q-75 0 -144.5 89t-69.5 147q0 25 22 46t69 21h115l104 531h-284l-32 124l8 9h1291l31 -124l-7 -9h-257z" />
    <glyph glyph-name="dGha" unicode="&#x918;" horiz-adv-x="1261" 
d="M1287 1197l-235 -1209l-11 -7l-143 38l52 270q-63 -34 -125 -51t-124 -17q-151 0 -243.5 91.5t-92.5 212.5q0 58 24.5 113.5t66.5 104.5q-75 52 -118 116t-43 146q0 75 22.5 115t52.5 77h-137l-32 124l8 9h1311l31 -124l-7 -9h-257zM1126 1197h-429q-104 0 -180 -74
t-76 -159q0 -46 25 -84t71 -65q49 36 106.5 63t120.5 40l87 -130l-6 -11q-170 -43 -264.5 -125t-94.5 -170q0 -57 41.5 -94t116.5 -37q98 0 220.5 65.5t147.5 193.5z" />
    <glyph glyph-name="dNga" unicode="&#x919;" horiz-adv-x="1192" 
d="M1058 751q0 44 36 77t80 33q34 0 56.5 -23.5t22.5 -56.5q0 -45 -36.5 -78t-79.5 -33q-34 0 -56.5 23.5t-22.5 57.5zM1075 1197l-59 -304l-10 -8h-375q-95 0 -129.5 -34.5t-34.5 -82.5q0 -40 27.5 -64t81.5 -24q44 0 115.5 10.5t111.5 10.5q93 0 159 -80.5t66 -196.5
q0 -148 -98.5 -236.5t-261.5 -88.5q-236 0 -355 163t-119 260q0 33 15.5 57t43.5 37q55 -182 160.5 -271.5t231.5 -89.5q108 0 197 55.5t89 139.5q0 37 -23.5 63t-66.5 26q-30 0 -103.5 -8.5t-112.5 -8.5q-111 0 -194.5 94t-83.5 208q0 91 56.5 146.5t172.5 55.5h303
q4 0 6.5 2t3.5 6l32 163h-688l-32 124l8 9h1242l31 -124l-7 -9h-400z" />
    <glyph glyph-name="dCa" unicode="&#x91a;" horiz-adv-x="1321" 
d="M1347 1197l-235 -1209l-11 -7l-143 38l60 312q-69 -41 -137 -60.5t-135 -19.5q-163 0 -257 99t-94 225q0 70 29 129.5t92 125.5h-237l-32 124l8 9h678l32 -124l-8 -9h-55q-164 0 -274.5 -94.5t-110.5 -201.5q0 -69 49 -115t139 -46q129 0 242 87t135 200l105 537h-954
l-32 124l8 9h1371l31 -124l-7 -9h-257z" />
    <glyph glyph-name="dCha" unicode="&#x91b;" horiz-adv-x="1371" 
d="M1295 1197l-30 -155q67 -28 101 -99.5t34 -162.5q0 -258 -217 -488.5t-480 -230.5q-163 0 -259.5 100t-96.5 221q0 54 23 106t60 96q-78 43 -115 106.5t-37 128.5q0 116 91 192.5t208 76.5q69 0 107 -34t56 -107q-178 0 -251.5 -48.5t-73.5 -120.5q0 -37 24.5 -68
t75.5 -56q45 29 99 48.5t114 25.5l85 -129l-6 -10q-169 -26 -254 -99t-85 -156q0 -64 51 -100.5t131 -36.5q122 0 247.5 75t218.5 186q-96 88 -138.5 179t-42.5 169q0 94 53 160.5t139 88.5l28 142h-922l-32 124l8 9h1421l31 -124l-7 -9h-359zM1182 539q49 78 78 154t29 139
q0 49 -18.5 74.5t-53.5 25.5q-60 0 -106 -51.5t-46 -117.5q0 -50 28.5 -107.5t88.5 -116.5z" />
    <glyph glyph-name="dJa" unicode="&#x91c;" horiz-adv-x="1421" 
d="M1447 1197l-235 -1209l-11 -7l-143 38l150 771h-333q37 -51 54.5 -112t17.5 -116q0 -149 -104 -242t-245 -93q-205 0 -280 191t-75 328q0 90 17.5 130t89.5 47q-16 -278 50.5 -406t186.5 -128q88 0 161 59.5t73 167.5q0 69 -43 121.5t-130 52.5l-32 124l7 9h610l54 274
h-1054l-32 124l8 9h1471l31 -124l-7 -9h-257z" />
    <glyph glyph-name="dJha" unicode="&#x91d;" horiz-adv-x="1500" 
d="M946 893l-10 -8h-375q-86 0 -120 -34t-34 -80q0 -37 25 -59t72 -22q42 0 130 11.5t134 11.5q35 0 64.5 -9t54.5 -22q36 -21 72 -28.5t69 -7.5q101 0 176.5 55t94.5 156l66 340h-360zM1525 1197l-235 -1209l-11 -7l-143 38l104 539q-40 -19 -72 -27t-67 -8t-70 6.5
t-67 16.5q6 -20 8.5 -41t2.5 -37q0 -136 -128 -221t-327 -98q31 -78 73.5 -105t112.5 -27q32 0 55 4.5t47 11.5q5 -14 7.5 -29t2.5 -28q0 -55 -44 -87t-104 -32q-78 0 -146.5 68t-91.5 225q-104 9 -158.5 58t-54.5 111q0 67 45 97.5t89 30.5q51 0 80.5 -36.5t46.5 -99.5
q168 -1 281 52.5t113 135.5q0 24 -13.5 42t-43.5 18q-26 0 -119.5 -9.5t-135.5 -9.5q-123 0 -202 103t-79 202q0 75 56.5 128t168.5 53h303q4 0 6.5 2t3.5 6l32 163h-618l-32 124l8 9h1550l31 -124l-7 -9h-258z" />
    <glyph glyph-name="dNya" unicode="&#x91e;" horiz-adv-x="1531" 
d="M1557 1197l-235 -1209l-11 -7l-143 38l91 472q-17 -4 -29.5 -6t-23.5 -2q-46 0 -84.5 22t-69.5 60q-36 -163 -145.5 -266.5t-270.5 -103.5q-222 0 -311.5 177.5t-89.5 309.5q0 87 27.5 117.5t71.5 30.5q-9 -242 67 -357.5t213 -115.5q131 0 229.5 88t98.5 225
q0 76 -39.5 124t-108.5 48q-43 0 -96 -24t-105 -95q-42 11 -61.5 39t-19.5 59q0 61 65.5 117t164.5 56q113 0 198.5 -80.5t109.5 -199.5q28 -38 57.5 -53t62.5 -15q44 0 87.5 29.5t59.5 111.5l80 410h-1164l-32 124l8 9h1581l31 -124l-7 -9h-257z" />
    <glyph glyph-name="dTta" unicode="&#x91f;" horiz-adv-x="1058" 
d="M1075 1197l-72 -370l-10 -8h-221q-193 0 -310.5 -102.5t-117.5 -249.5q0 -99 64.5 -172t195.5 -73q118 0 221.5 59t160.5 154q38 -13 56.5 -38.5t18.5 -56.5q0 -95 -126 -172t-283 -77q-201 0 -322.5 136t-121.5 300q0 178 145.5 308.5t391.5 130.5h123q4 0 6 2t3 6
l44 223h-688l-32 124l8 9h1108l31 -124l-7 -9h-266z" />
    <glyph glyph-name="dTtha" unicode="&#x920;" horiz-adv-x="1138" 
d="M1025 1197l-61 -312q80 -58 130 -151.5t50 -198.5q0 -189 -153 -321.5t-353 -132.5q-197 0 -320.5 136.5t-123.5 305.5q0 175 141.5 309t365.5 134h117q4 0 6 2t3 6l44 223h-638l-32 124l8 9h1188l31 -124l-7 -9h-396zM1015 591q0 90 -62 159t-208 69q-192 0 -306.5 -106
t-114.5 -246q0 -104 69.5 -179.5t194.5 -75.5q158 0 292.5 108.5t134.5 270.5z" />
    <glyph glyph-name="dDda" unicode="&#x921;" horiz-adv-x="1052" 
d="M1095 1197l-59 -304l-10 -8h-395q-95 0 -129.5 -34.5t-34.5 -82.5q0 -40 27.5 -64t81.5 -24q44 0 115.5 10.5t111.5 10.5q93 0 159 -80.5t66 -196.5q0 -148 -98.5 -236.5t-261.5 -88.5q-236 0 -355 163t-119 260q0 33 15.5 57t43.5 37q55 -182 160.5 -271.5t231.5 -89.5
q108 0 197 55.5t89 139.5q0 37 -23.5 63t-66.5 26q-30 0 -103.5 -8.5t-112.5 -8.5q-111 0 -194.5 94t-83.5 208q0 91 56.5 146.5t172.5 55.5h323q4 0 6.5 2t3.5 6l32 163h-708l-32 124l8 9h1102l31 -124l-7 -9h-240z" />
    <glyph glyph-name="dDdha" unicode="&#x922;" horiz-adv-x="1058" 
d="M1075 1197l-70 -360l-10 -8h-221q-193 0 -312 -106.5t-119 -257.5q0 -107 69.5 -190t209.5 -83q22 0 49 2.5t52 8.5q-47 60 -68 115t-21 104q0 107 69 170t163 63q96 0 155 -70t59 -166q0 -150 -128.5 -254t-297.5 -104q-192 0 -316 143t-124 319q0 185 146 319t392 134
h118q4 0 6 2t3 6l42 213h-688l-32 124l8 9h1108l31 -124l-7 -9h-266zM986 446q0 38 -22 61.5t-58 23.5q-54 0 -99 -44.5t-45 -112.5q0 -29 10.5 -66t32.5 -74q80 37 130.5 94.5t50.5 117.5z" />
    <glyph glyph-name="dNna" unicode="&#x923;" horiz-adv-x="1421" 
d="M1447 1197l-235 -1209l-11 -7l-143 38l229 1178h-245l-110 -566q-24 -122 -120 -201t-216 -79q-151 0 -251.5 119.5t-68.5 284.5l86 442h-129l-32 124l8 9h1471l31 -124l-7 -9h-257zM522 1197l-103 -527q-19 -98 22 -147.5t113 -49.5q80 0 147.5 59.5t88.5 167.5l97 497
h-365z" />
    <glyph glyph-name="dTa" unicode="&#x924;" horiz-adv-x="1191" 
d="M1217 1197l-235 -1209l-11 -7l-143 38l147 759h-386q-139 0 -195.5 -87t-56.5 -198q0 -113 52 -243.5t148 -229.5q-11 -19 -27.5 -28.5t-32.5 -9.5q-71 0 -175 175t-104 382q0 170 89.5 277t257.5 107h458l54 274h-824l-32 124l8 9h1241l31 -124l-7 -9h-257z" />
    <glyph glyph-name="dTha" unicode="&#x925;" horiz-adv-x="1341" 
d="M304 1151q0 107 84.5 171.5t188.5 64.5q125 0 216 -99t91 -242q0 -151 -109 -267t-328 -188q56 -106 142 -148t165 -42q120 0 223.5 77t128.5 202l101 517h-194l-32 124l8 9h611l31 -124l-7 -9h-257l-235 -1209l-11 -7l-143 38l57 297q-58 -37 -116 -56t-124 -19
q-152 0 -288 108t-226 351l7 10q243 64 356 164t113 232q0 73 -39.5 113.5t-102.5 40.5q-67 0 -118 -39.5t-51 -107.5q0 -45 32 -88t106 -74q-9 -11 -27 -20t-48 -9q-78 0 -141.5 68t-63.5 161z" />
    <glyph glyph-name="dDa" unicode="&#x926;" horiz-adv-x="1058" 
d="M993 819h-221q-193 0 -310.5 -102.5t-117.5 -248.5q0 -98 63 -173.5t191 -75.5q46 0 91 10t84 28q-13 21 -19.5 42.5t-6.5 42.5q0 62 47 109.5t116 47.5q60 0 92 -41t32 -93q0 -51 -30 -96t-72 -79q51 -72 70.5 -125.5t19.5 -92.5q0 -77 -46 -125.5t-104 -48.5
q-42 0 -69 27.5t-37 76.5q62 16 101.5 47.5t39.5 72.5q0 22 -12.5 51.5t-40.5 66.5q-46 -22 -101 -35.5t-115 -13.5q-190 0 -306.5 135.5t-116.5 300.5q0 162 131.5 300.5t403.5 138.5h118q4 0 6 2t3 6l44 223h-688l-32 124l8 9h1108l31 -124l-7 -9h-266l-72 -370z" />
    <glyph glyph-name="dDha" unicode="&#x927;" horiz-adv-x="1315" 
d="M1341 1197l-235 -1209l-11 -7l-143 38l52 268q-63 -34 -123.5 -50t-123.5 -16q-162 0 -259.5 96t-97.5 218q0 66 33 132t86 117q-101 72 -150.5 159t-49.5 168q0 108 83 192t207 84q99 0 157 -60.5t58 -136.5q0 -69 -27 -86t-45 -17q7 90 -32.5 124t-84.5 34
q-66 0 -118 -52.5t-52 -126.5q0 -54 34 -111t109 -106q46 27 99.5 45t110.5 24l86 -129l-6 -11q-178 -26 -276.5 -105t-98.5 -177q0 -63 46 -104t130 -41q101 0 222 63.5t146 195.5l114 587h-194l-32 124l8 9h611l31 -124l-7 -9h-257z" />
    <glyph glyph-name="dNa" unicode="&#x928;" horiz-adv-x="1121" 
d="M1147 1197l-235 -1209l-11 -7l-143 38l134 689h-398l-27 -145q-7 -42 -28 -60.5t-42 -18.5q-53 0 -124.5 90t-71.5 170q0 67 59 88t142 21h518l67 344h-754l-32 124l8 9h1171l31 -124l-7 -9h-257z" />
    <glyph glyph-name="dNnna" unicode="&#x929;" horiz-adv-x="1121" 
d="M1147 1197l-235 -1209l-11 -7l-143 38l134 689h-398l-27 -145q-7 -42 -28 -60.5t-42 -18.5q-53 0 -124.5 90t-71.5 170q0 67 59 88t142 21h518l67 344h-754l-32 124l8 9h1171l31 -124l-7 -9h-257zM319 62q0 44 36 77t80 33q34 0 56.5 -23.5t22.5 -56.5q0 -45 -36.5 -78
t-79.5 -33q-34 0 -56.5 23.5t-22.5 57.5z" />
    <glyph glyph-name="dPa" unicode="&#x92a;" horiz-adv-x="1112" 
d="M1137 1197l-235 -1209l-11 -7l-143 38l78 402q-63 -36 -122 -53t-114 -17q-151 0 -248.5 120.5t-65.5 283.5l86 442h-129l-32 124l8 9h1162l31 -124l-7 -9h-258zM522 1197l-103 -527q-19 -96 18 -146.5t117 -50.5q107 0 210.5 80.5t125.5 196.5l87 447h-455z" />
    <glyph glyph-name="dPha" unicode="&#x92b;" horiz-adv-x="1480" 
d="M522 1197l-105 -537q-17 -87 13 -132t99 -45q92 0 184 69t111 168l93 477h-395zM1248 942q111 0 189 -77t78 -224q0 -188 -95 -299.5t-180 -111.5q-39 0 -70.5 24.5t-47.5 62.5q128 60 204 165.5t76 205.5q0 60 -30.5 93.5t-85.5 33.5q-93 0 -204.5 -83t-136.5 -214
l-103 -530l-11 -7l-143 38l77 398q-56 -29 -106.5 -42.5t-94.5 -13.5q-142 0 -231.5 114t-58.5 270l88 452h-129l-32 124l8 9h1530l31 -124l-7 -9h-686l-68 -348q57 47 116.5 70t122.5 23z" />
    <glyph glyph-name="dBa" unicode="&#x92c;" horiz-adv-x="1160" 
d="M1186 1197l-235 -1209l-11 -7l-143 38l54 278q-72 -43 -138 -60.5t-118 -17.5q-151 0 -272 114.5t-121 275.5q0 166 132 282t310 116q89 0 172 -36.5t143 -115.5l67 342h-793l-32 124l8 9h1210l31 -124l-7 -9h-257zM913 618l7 34q19 90 -49 150.5t-183 60.5
q-34 0 -69.5 -6.5t-65.5 -19.5l247 -395q43 34 73 79.5t40 96.5zM339 554q0 -87 55.5 -145.5t154.5 -58.5q35 0 74.5 8t73.5 24l-251 392q-49 -45 -78 -100.5t-29 -119.5z" />
    <glyph glyph-name="dBha" unicode="&#x92d;" horiz-adv-x="1383" 
d="M502 934q-79 0 -142 68t-63 161q0 92 68.5 158t170.5 66q134 0 213 -120t45 -294l-60 -310h411l104 534h-282l-32 124l8 9h699l31 -124l-7 -9h-257l-235 -1209l-11 -7l-143 38l97 499h-411l-28 -145q-8 -42 -29 -60.5t-42 -18.5q-53 0 -124.5 90t-71.5 170q0 63 51 84.5
t114 23.5l79 407q20 103 -1.5 147t-77.5 44q-59 0 -98.5 -37.5t-39.5 -97.5q0 -45 32 -88t106 -74q-9 -11 -26.5 -20t-47.5 -9z" />
    <glyph glyph-name="dMa" unicode="&#x92e;" horiz-adv-x="1196" 
d="M1222 1197l-235 -1209l-11 -7l-143 38l95 489h-461l-28 -145q-8 -42 -29 -60.5t-42 -18.5q-53 0 -124.5 90.5t-71.5 168.5q0 42 34.5 74.5t130.5 34.5l106 545h-210l-32 124l8 9h1246l31 -124l-7 -9h-257zM956 653l106 544h-461l-106 -544h461z" />
    <glyph glyph-name="dYa" unicode="&#x92f;" horiz-adv-x="1248" 
d="M1039 -12l-11 -7l-143 38l61 315q-59 -37 -116.5 -55t-120.5 -18q-151 0 -277 114t-206 365l7 10q219 58 286.5 134t67.5 193q0 31 -4 64.5t-11 55.5h-339l-32 124l8 9h1298l31 -124l-7 -9h-257zM673 1197q16 -47 26 -103t10 -105q0 -134 -81.5 -221t-238.5 -140
q46 -113 123.5 -160t158.5 -47q113 0 217 74t127 195l99 507h-441z" />
    <glyph glyph-name="dRa" unicode="&#x930;" horiz-adv-x="866" 
d="M1149 1197h-355q13 -57 21.5 -123.5t8.5 -122.5q0 -151 -95.5 -284t-379.5 -183q67 -146 163.5 -243t233.5 -175q-13 -31 -44.5 -49.5t-62.5 -18.5q-125 0 -281.5 233t-156.5 390q0 66 44 112t119 46q37 0 82.5 -13.5t91.5 -42.5q97 47 133 123t36 195q0 31 -3 76.5
t-9 79.5h-462l-32 124l8 9h916l31 -124z" />
    <glyph glyph-name="dRra" unicode="&#x931;" horiz-adv-x="866" 
d="M1149 1197h-355q13 -57 21.5 -123.5t8.5 -122.5q0 -151 -95.5 -284t-379.5 -183q67 -146 163.5 -243t233.5 -175q-13 -31 -44.5 -49.5t-62.5 -18.5q-125 0 -281.5 233t-156.5 390q0 66 44 112t119 46q37 0 82.5 -13.5t91.5 -42.5q97 47 133 123t36 195q0 31 -3 76.5
t-9 79.5h-462l-32 124l8 9h916l31 -124zM89 62q0 44 36 77t80 33q34 0 56.5 -23.5t22.5 -56.5q0 -45 -36.5 -78t-79.5 -33q-34 0 -56.5 23.5t-22.5 57.5z" />
    <glyph glyph-name="dLa" unicode="&#x932;" horiz-adv-x="1411" 
d="M1437 1197l-235 -1209l-11 -7l-143 38l150 774q-143 -37 -236.5 -122.5t-159.5 -229.5l-12 -4l-124 95q22 46 49.5 87.5t59.5 78.5q-40 51 -84 75.5t-92 24.5q-92 0 -157.5 -75t-65.5 -191t66 -258.5t194 -249.5q-10 -19 -28.5 -30.5t-37.5 -11.5q-80 0 -210 189
t-130 407q0 162 93.5 265t239.5 103q76 0 145 -39t137 -138q78 69 175.5 109.5t203.5 49.5l53 269h-1044l-32 124l8 9h1461l31 -124l-7 -9h-257z" />
    <glyph glyph-name="dLla" unicode="&#x933;" horiz-adv-x="1431" 
d="M1307 1197l-61 -310q103 -31 170.5 -131.5t67.5 -222.5q0 -161 -113 -273.5t-258 -112.5q-90 0 -169 53t-151 161q-70 -93 -140 -148.5t-165 -55.5q-134 0 -229.5 110t-95.5 258q0 160 115 272.5t269 112.5q89 0 170.5 -46t159.5 -140q60 74 110.5 115.5t110.5 54.5
l59 303h-924l-32 124l8 9h1481l31 -124l-7 -9h-407zM1353 595q0 76 -40.5 125t-116.5 49q-66 0 -133 -59.5t-207 -260.5q45 -83 98.5 -122t118.5 -39q115 0 197.5 92.5t82.5 214.5zM814 641q-48 63 -105 95.5t-123 32.5q-123 0 -208 -92t-85 -213q0 -77 41 -126.5t115 -49.5
q86 0 155 78.5t210 274.5z" />
    <glyph glyph-name="dLlla" unicode="&#x934;" horiz-adv-x="1431" 
d="M1307 1197l-61 -310q103 -31 170.5 -131.5t67.5 -222.5q0 -161 -113 -273.5t-258 -112.5q-90 0 -169 53t-151 161q-70 -93 -140 -148.5t-165 -55.5q-134 0 -229.5 110t-95.5 258q0 160 115 272.5t269 112.5q89 0 170.5 -46t159.5 -140q60 74 110.5 115.5t110.5 54.5
l59 303h-924l-32 124l8 9h1481l31 -124l-7 -9h-407zM1353 595q0 76 -40.5 125t-116.5 49q-66 0 -133 -59.5t-207 -260.5q45 -83 98.5 -122t118.5 -39q115 0 197.5 92.5t82.5 214.5zM814 641q-48 63 -105 95.5t-123 32.5q-123 0 -208 -92t-85 -213q0 -77 41 -126.5t115 -49.5
q86 0 155 78.5t210 274.5zM659 -41q0 44 36 77t80 33q34 0 56.5 -23.5t22.5 -56.5q0 -45 -36.5 -78t-79.5 -33q-34 0 -56.5 23.5t-22.5 57.5z" />
    <glyph glyph-name="dVa" unicode="&#x935;" horiz-adv-x="1160" 
d="M1186 1197l-235 -1209l-11 -7l-143 38l54 278q-72 -43 -138 -60.5t-118 -17.5q-151 0 -272 114.5t-121 275.5q0 166 132 282t310 116q89 0 172 -36.5t143 -115.5l67 342h-793l-32 124l8 9h1210l31 -124l-7 -9h-257zM920 652q19 90 -49 150.5t-183 60.5q-147 0 -248 -91.5
t-101 -217.5q0 -87 55.5 -145.5t154.5 -58.5q116 0 228.5 76.5t135.5 191.5z" />
    <glyph glyph-name="dSha" unicode="&#x936;" horiz-adv-x="1491" 
d="M904 1045q0 80 -37 120t-99 40q-89 0 -135 -58.5t-46 -134.5q0 -71 49.5 -135.5t156.5 -124.5q54 76 82.5 150t28.5 143zM1030 976q0 -145 -119.5 -333.5t-381.5 -287.5q34 -127 99 -173.5t146 -46.5q43 0 79 10t73 26q4 -14 6.5 -30.5t2.5 -28.5q0 -57 -45.5 -97
t-124.5 -40q-86 0 -178.5 74t-153.5 287q-116 2 -181 54t-65 119q0 60 43.5 98t102.5 38q50 0 94.5 -31t70.5 -97q67 28 126.5 70.5t106.5 89.5q-149 73 -218.5 163.5t-69.5 193.5q0 41 11.5 82t37.5 81h-259l-32 124l8 9h1541l31 -124l-7 -9h-257l-235 -1209l-11 -7
l-143 38l229 1178h-390q31 -48 47 -105t16 -116z" />
    <glyph glyph-name="dSsa" unicode="&#x937;" horiz-adv-x="1112" 
d="M1137 1197l-235 -1209l-11 -7l-143 38l78 402q-63 -36 -122 -53t-114 -17q-151 0 -248.5 120.5t-65.5 283.5l86 442h-129l-32 124l8 9h1162l31 -124l-7 -9h-258zM526 1197l320 -556q16 25 27 52t17 57l87 447h-451zM419 670q-19 -96 18 -146.5t117 -50.5q54 0 110.5 22.5
t103.5 61.5l-278 475z" />
    <glyph glyph-name="dSa" unicode="&#x938;" horiz-adv-x="1360" 
d="M737 1197q16 -61 26 -128.5t10 -125.5q0 -120 -31 -177t-72 -106q50 -17 101 -25.5t91 -8.5q110 0 191.5 57.5t99.5 146.5l72 367h-488zM1385 1197l-235 -1209l-11 -7l-143 38l101 523q-49 -22 -92 -30.5t-84 -8.5q-78 0 -162 25t-158 63q-47 -36 -107.5 -62.5
t-144.5 -44.5q66 -143 163 -241.5t234 -176.5q-13 -31 -44.5 -49.5t-62.5 -18.5q-125 0 -281.5 233t-156.5 390q0 66 44 112t119 46q33 0 74 -11t81 -35q77 49 106.5 121t29.5 171q0 37 -4.5 85.5t-13.5 86.5h-404l-32 124l8 9h1410l31 -124l-7 -9h-258z" />
    <glyph glyph-name="dHa" unicode="&#x939;" horiz-adv-x="1006" 
d="M1035 1197l-61 -314l-10 -8h-415q-87 0 -126 -44t-39 -91q0 -27 11.5 -54t32.5 -49q54 31 116 46.5t121 15.5q142 0 226 -82.5t84 -201.5q0 -114 -61 -179.5t-131 -65.5q-31 0 -58 18.5t-47 69.5q100 41 148 89.5t48 102.5q0 47 -42 76.5t-124 29.5q-154 0 -252.5 -87
t-98.5 -204q0 -123 126.5 -210t368.5 -87q-8 -42 -47.5 -66.5t-124.5 -24.5q-195 0 -330 125t-135 294q0 87 37.5 158.5t95.5 124.5q-49 46 -72 107t-23 115q0 87 61 151t180 64h343q4 0 6.5 2t3.5 6l34 173h-648l-32 124l8 9h1056l31 -124l-7 -9h-254z" />
    <glyph glyph-name="dOesign" unicode="&#x93a;" horiz-adv-x="0" 
d="M305 1251l-128 28l64 329l10 7l128 -28l-63 -329z" />
    <glyph glyph-name="dOoesign" unicode="&#x93b;" 
d="M863 1206l-7 -9h-257l-235 -1209l-11 -7l-143 38l229 1178h-206l-32 124l8 9h265l54 278l10 7l128 -28l-49 -257h215z" />
    <glyph glyph-name="dNukta" unicode="&#x93c;" horiz-adv-x="0" 
d="M-102 -38q0 44 36 77t80 33q34 0 56.5 -23.5t22.5 -56.5q0 -45 -36.5 -78t-79.5 -33q-34 0 -56.5 23.5t-22.5 57.5z" />
    <glyph glyph-name="dAvagraha" unicode="&#x93d;" horiz-adv-x="979" 
d="M1073 1197h-322q-129 0 -197.5 -54t-68.5 -120q0 -122 183 -183.5t264 -233.5q16 -34 23.5 -75t7.5 -78q0 -146 -100 -250t-268 -104q-184 0 -276.5 127.5t-92.5 246.5q0 64 24.5 99.5t73.5 43.5q-11 -192 66 -276.5t190 -84.5q115 0 196 69t81 167q0 149 -187 203.5
t-285 248.5q-12 24 -21.5 57t-9.5 71q0 124 96 191.5t244 67.5h355l31 -124z" />
    <glyph glyph-name="dAasign" unicode="&#x93e;" 
d="M353 -19l-143 38l229 1178h-206l-32 124l8 9h623l31 -124l-7 -9h-257l-235 -1209z" />
    <glyph glyph-name="dIsign" unicode="&#x93f;" 
d="M364 1529q0 151 129 264t366 113q250 0 480 -152.5t369 -448.5l-96 -53q-103 230 -305.5 362t-427.5 132q-184 0 -286 -78t-102 -191q0 -39 14.5 -77.5t45.5 -69.5h281l31 -124l-7 -9h-257l-235 -1209l-11 -7l-143 38l229 1178h-206l-32 124l8 9h220q-31 44 -48 95
t-17 104z" />
    <glyph glyph-name="dIisign" unicode="&#x940;" 
d="M353 -19l-143 38l229 1178h-206l-32 124l8 9h274q-78 250 -186 343t-222 93q-110 0 -171 -60t-61 -142q0 -69 45.5 -141.5t140.5 -125.5l-155 2q-104 80 -143 162.5t-39 149.5q0 125 93.5 212t256.5 87q152 0 300 -119t246 -461h244l31 -124l-7 -9h-257l-235 -1209z" />
    <glyph glyph-name="dUsign" unicode="&#x941;" horiz-adv-x="0" 
d="M-359 -117q0 55 70 101t159 46q107 0 175 -76.5t68 -180.5q0 -130 -95 -209t-232 -79q-222 0 -334.5 175.5t-112.5 252.5q0 27 18 47t41 26q45 -172 134 -263.5t224 -91.5q113 0 183 53.5t70 128.5q0 41 -26 65.5t-70 24.5q-42 0 -85.5 -23.5t-96.5 -77.5q-47 3 -68.5 28
t-21.5 53z" />
    <glyph glyph-name="dUusign" unicode="&#x942;" horiz-adv-x="0" 
d="M-461 -239q0 122 91 197.5t218 75.5q189 0 329 -158.5t140 -212.5q0 -11 -10 -26.5t-30 -22.5q-94 135 -193.5 203.5t-212.5 69.5q-101 1 -164.5 -46.5t-63.5 -119.5q0 -39 23 -64t65 -24q40 1 85 24.5t95 71.5q47 -3 68.5 -28t21.5 -53q0 -52 -70.5 -96.5t-154.5 -44.5
q-105 0 -171 77.5t-66 176.5z" />
    <glyph glyph-name="dRvocalicsign" unicode="&#x943;" horiz-adv-x="0" 
d="M0 -11l-2 -11q-176 -46 -238.5 -101t-62.5 -105q0 -32 24 -61t81 -29q71 0 157 41t140 88q22 -8 39 -33.5t17 -55.5q0 -71 -98.5 -114.5t-194.5 -43.5q-129 0 -201.5 79t-72.5 172q0 90 75 164.5t249 118.5z" />
    <glyph glyph-name="dRrvocalicsign" unicode="&#x944;" horiz-adv-x="0" 
d="M-179 -579q55 0 133.5 37.5t133.5 106.5q25 -10 43.5 -31t18.5 -49q0 -58 -83 -115t-192 -57t-178 65t-69 146q0 25 10.5 56.5t45.5 65.5q-51 28 -77 73.5t-26 93.5q0 71 70 151t263 129l86 -104l-2 -11q-204 -53 -256 -113t-52 -94q0 -25 16.5 -41t48.5 -16
q35 0 82.5 23t145.5 81l68 -99l-5 -11q-193 -84 -246 -134.5t-53 -92.5q0 -28 19.5 -44t54.5 -16z" />
    <glyph glyph-name="dEcandrasign" unicode="&#x945;" horiz-adv-x="0" 
d="M24 1776q0 52 13.5 72t45.5 36q17 -146 73 -205.5t135 -59.5q84 0 164.5 60t136.5 187q38 -17 55 -37t17 -49q0 -90 -108.5 -192t-254.5 -102q-137 0 -207 99t-70 191z" />
    <glyph glyph-name="dEshortsign" unicode="&#x946;" horiz-adv-x="0" 
d="M184 1311l4 19q17 31 26.5 56.5t9.5 45.5q0 61 -72 83.5t-199 42.5q-162 25 -329.5 79t-167.5 204q0 36 9 61.5t28 53.5q46 -121 138 -157.5t250 -66.5q212 -40 330.5 -97t118.5 -268q0 -9 -0.5 -18.5t-1.5 -18.5l-4 -19h-140z" />
    <glyph glyph-name="dEsign" unicode="&#x947;" horiz-adv-x="0" 
d="M202 1330q-167 278 -250.5 359.5t-161.5 81.5q-55 0 -99 -26.5t-78 -76.5q-35 13 -56.5 40t-21.5 63q0 58 58.5 104.5t157.5 46.5q101 0 223 -105t344 -487l-12 -58h-116z" />
    <glyph glyph-name="dAisign" unicode="&#x948;" horiz-adv-x="0" 
d="M-151 1891q0 45 45 88t126 43q91 0 179.5 -122.5t131.5 -569.5l-10 -48h-143l10 48q-119 128 -235 193.5t-189 65.5q-48 0 -86.5 -27.5t-66.5 -73.5q-48 13 -70 39t-22 59q0 61 55.5 103.5t128.5 42.5q99 0 238 -79.5t277 -207.5q-39 275 -80.5 347t-92.5 72
q-36 0 -66.5 -17.5t-55.5 -45.5q-32 13 -53 35t-21 55z" />
    <glyph glyph-name="dOcandrasign" unicode="&#x949;" horiz-adv-x="483" 
d="M-24 1776q0 52 13.5 72t45.5 36q17 -146 73 -205.5t135 -59.5q84 0 164.5 60t136.5 187q38 -17 55 -37t17 -49q0 -90 -108.5 -192t-254.5 -102q-137 0 -207 99t-70 191zM263 -19l-143 38l229 1178h-206l-32 124l8 9h623l31 -124l-7 -9h-257l-235 -1209z" />
    <glyph glyph-name="dOshortsign" unicode="&#x94a;" 
d="M620 1330h212l31 -124l-7 -9h-257l-235 -1209l-11 -7l-143 38l229 1178h-206l-32 124l8 9h271q17 31 26.5 56.5t9.5 44.5q0 60 -71.5 84t-199.5 43q-163 25 -340 78.5t-177 206.5q0 34 9 59.5t28 53.5q49 -121 145.5 -157t262.5 -67q212 -39 330.5 -96.5t118.5 -268.5
q0 -9 -0.5 -18.5t-1.5 -18.5z" />
    <glyph glyph-name="dOsign" unicode="&#x94b;" 
d="M599 1197l-235 -1209l-11 -7l-143 38l229 1178h-206l-32 124l8 9h264q-167 278 -250.5 359.5t-161.5 81.5q-55 0 -99 -26.5t-78 -76.5q-35 13 -56.5 40t-21.5 63q0 58 58.5 104.5t157.5 46.5q101 0 223 -105t344 -487h243l31 -124l-7 -9h-257z" />
    <glyph glyph-name="dAusign" unicode="&#x94c;" 
d="M863 1206l-7 -9h-257l-235 -1209l-11 -7l-143 38l229 1178h-206l-32 124l8 9h257q-119 128 -235 193.5t-189 65.5q-48 0 -86.5 -27.5t-66.5 -73.5q-48 13 -70 39t-22 59q0 61 55.5 103.5t128.5 42.5q99 0 238 -79.5t277 -207.5q-39 275 -80.5 347t-92.5 72
q-36 0 -66.5 -17.5t-55.5 -45.5q-32 13 -53 35t-21 55q0 45 45 88t126 43q91 0 179.5 -122.5t131.5 -569.5h223z" />
    <glyph glyph-name="dVirama" unicode="&#x94d;" horiz-adv-x="0" 
d="M-386 -190q0 43 44.5 70.5t123.5 27.5q46 0 105 -15t129 -64q110 -76 177 -177.5t67 -141.5q0 -11 -10 -26.5t-30 -22.5q-119 175 -218.5 228.5t-187.5 53.5q-43 0 -83 -7t-68 -14q-24 21 -36.5 43.5t-12.5 44.5z" />
    <glyph glyph-name="dAwsign" unicode="&#x94f;" 
d="M599 1197l-235 -1209l-11 -7l-143 38l229 1178h-206l-32 124l8 9h269q10 22 16.5 42t6.5 32q0 48 -80 61t-270 23q-219 12 -338.5 65t-119.5 162q0 33 9 58t28 53q31 -104 121.5 -141t271.5 -54q218 -21 297 -41t130 -101q-5 107 -65.5 146.5t-197.5 75.5
q-138 36 -230 71.5t-92 130.5q0 33 11.5 64t32.5 56q15 -78 76.5 -107t180.5 -66q190 -59 275.5 -123.5t85.5 -261.5q0 -32 -2 -68t-6 -77h213l31 -124l-7 -9h-257z" />
    <glyph glyph-name="dOm" unicode="&#x950;" horiz-adv-x="1788" 
d="M1523 1482q0 -46 -37 -79.5t-82 -33.5q-35 0 -57.5 24.5t-22.5 58.5q0 45 37 78.5t81 33.5q36 0 58.5 -24t22.5 -58zM1107 1387q0 51 14 71t45 36q19 -146 77.5 -205.5t140.5 -59.5q81 0 159 60t132 187q38 -19 55 -41.5t17 -57.5q0 -96 -105 -188.5t-248 -92.5t-215 99
t-72 192zM1304 536q0 18 4 29.5t9 21.5q51 -64 95.5 -84.5t88.5 -20.5q96 0 171 80t75 187q0 60 -30 97t-80 37q-136 0 -250 -176.5t-280 -176.5q-30 0 -59 8.5t-56 24.5q10 -28 15 -61.5t5 -65.5q0 -164 -115.5 -274t-296.5 -110q-242 0 -336 193t-94 338q0 94 20.5 125.5
t78.5 37.5q-7 -277 82.5 -404.5t238.5 -127.5q128 0 212.5 76t84.5 189q0 56 -22.5 105t-62.5 76q-56 -22 -120 -36.5t-132 -21.5l-50 157l7 10q234 13 338.5 92t104.5 204q0 74 -45.5 111.5t-120.5 37.5q-106 0 -177.5 -62t-89.5 -155q-59 0 -92 27t-33 73q0 80 93.5 154
t255.5 74q157 0 251 -86t94 -220q0 -99 -45 -172.5t-123 -127.5q28 -29 63 -38.5t61 -9.5q165 0 267 176t280 176q109 0 194.5 -94t85.5 -234q0 -154 -101.5 -255t-238.5 -101q-113 0 -169 67t-56 130z" />
    <glyph glyph-name="dUdatta" unicode="&#x951;" horiz-adv-x="0" 
d="M351 1481l-129 28l84 429l10 7l129 -28l-84 -429z" />
    <glyph glyph-name="dAnudatta" unicode="&#x952;" horiz-adv-x="0" 
d="M-577 -293l-26 104l8 9h560l26 -104l-8 -9h-560z" />
    <glyph glyph-name="dGrave" unicode="&#x953;" horiz-adv-x="0" 
d="M392 1497l-234 366l4 12l99 55l234 -366l-4 -12z" />
    <glyph glyph-name="dAcute" unicode="&#x954;" horiz-adv-x="0" 
d="M175 1497l-77 55v12l376 366l77 -55v-12z" />
    <glyph glyph-name="dUesign" unicode="&#x956;" horiz-adv-x="0" 
d="M-510 -164q0 24 11.5 37.5t25.5 22.5q55 -102 147 -154.5t199 -52.5q110 0 211.5 52.5t170.5 148.5q31 -12 47.5 -35.5t16.5 -52.5q0 -84 -124.5 -163.5t-292.5 -79.5q-193 0 -302.5 102.5t-109.5 174.5z" />
    <glyph glyph-name="dUuesign" unicode="&#x957;" horiz-adv-x="0" 
d="M-510 -164q0 24 11.5 37.5t25.5 22.5q55 -102 147 -154.5t199 -52.5q110 0 211.5 52.5t170.5 148.5q31 -12 47.5 -35.5t16.5 -52.5q0 -84 -124.5 -163.5t-292.5 -79.5q-193 0 -302.5 102.5t-109.5 174.5zM258 -512q0 -72 -100 -132t-257 -60q-218 0 -338.5 109.5
t-120.5 181.5q0 22 10 35.5t26 23.5q55 -99 160 -159t245 -60q106 0 191 35.5t145 98.5q20 -13 29.5 -32.5t9.5 -40.5z" />
    <glyph glyph-name="dQa" unicode="&#x958;" horiz-adv-x="1542" 
d="M856 632q17 84 -38 147.5t-160 63.5q-127 0 -213 -86.5t-86 -202.5q0 -87 54 -141.5t143 -54.5q96 0 182 58.5t105 151.5zM1126 1197l-71 -364q57 47 117.5 73t127.5 26q116 0 193 -83t77 -232q0 -193 -95.5 -305t-180.5 -112q-39 0 -70.5 24.5t-47.5 62.5
q131 62 206.5 172t75.5 210q0 64 -32 100t-87 36q-92 0 -208.5 -86.5t-142.5 -222.5l-98 -508l-10 -7l-143 38l50 260q-53 -33 -100 -46.5t-90 -13.5q-139 0 -257 114t-118 276q0 157 116.5 267.5t275.5 110.5q70 0 147.5 -31t135.5 -110l69 351h-733l-32 124l8 9h1592
l31 -124l-7 -9h-699zM297 -38q0 44 36 77t80 33q34 0 56 -23.5t22 -56.5q0 -45 -36 -78t-79 -33q-35 0 -57 23.5t-22 57.5z" />
    <glyph glyph-name="dKhha" unicode="&#x959;" horiz-adv-x="1566" 
d="M1325 651q14 72 -34.5 135.5t-146.5 63.5q-106 0 -175.5 -73t-69.5 -168q0 -81 52 -126t124 -45q85 0 157 53t86 124zM1591 1197l-235 -1209l-11 -7l-143 38l66 343q-47 -25 -84.5 -35.5t-74.5 -10.5q-130 0 -234 103.5t-104 245.5q0 136 97.5 228.5t239.5 92.5
q77 0 141.5 -34t113.5 -103l68 348h-776q16 -61 25.5 -132t9.5 -133q0 -175 -85 -289t-249 -160q87 -160 243 -261.5t381 -135.5q-22 -47 -59 -68.5t-91 -21.5q-201 0 -415 219t-214 403q0 76 43 118.5t117 42.5q30 0 62 -7.5t63 -20.5q29 30 58 83.5t29 184.5
q0 37 -4.5 87.5t-12.5 90.5h-323l-32 124l8 9h1616l31 -124l-7 -9h-258zM210 -38q0 44 36 77t80 33q34 0 56 -23.5t22 -56.5q0 -45 -36 -78t-79 -33q-35 0 -57 23.5t-22 57.5z" />
    <glyph glyph-name="dGhha" unicode="&#x95a;" horiz-adv-x="1241" 
d="M1267 1197l-235 -1209l-11 -7l-143 38l229 1178h-435l-131 -673q-16 -81 -46 -121t-74 -40q-75 0 -144.5 89t-69.5 147q0 25 22 46t69 21h115l104 531h-284l-32 124l8 9h1291l31 -124l-7 -9h-257zM429 62q0 44 36 77t80 33q34 0 56.5 -23.5t22.5 -56.5q0 -45 -36.5 -78
t-79.5 -33q-34 0 -56.5 23.5t-22.5 57.5z" />
    <glyph glyph-name="dZa" unicode="&#x95b;" horiz-adv-x="1421" 
d="M1447 1197l-235 -1209l-11 -7l-143 38l150 771h-333q37 -51 54.5 -112t17.5 -116q0 -149 -104 -242t-245 -93q-205 0 -280 191t-75 328q0 90 17.5 130t89.5 47q-16 -278 50.5 -406t186.5 -128q88 0 161 59.5t73 167.5q0 69 -43 121.5t-130 52.5l-32 124l7 9h610l54 274
h-1054l-32 124l8 9h1471l31 -124l-7 -9h-257zM426 -58q0 44 36 77t80 33q34 0 56 -23.5t22 -56.5q0 -45 -36 -78t-79 -33q-35 0 -57 23.5t-22 57.5z" />
    <glyph glyph-name="dDddha" unicode="&#x95c;" horiz-adv-x="1052" 
d="M1095 1197l-59 -304l-10 -8h-395q-95 0 -129.5 -34.5t-34.5 -82.5q0 -40 27.5 -64t81.5 -24q44 0 115.5 10.5t111.5 10.5q93 0 159 -80.5t66 -196.5q0 -148 -98.5 -236.5t-261.5 -88.5q-236 0 -355 163t-119 260q0 33 15.5 57t43.5 37q55 -182 160.5 -271.5t231.5 -89.5
q108 0 197 55.5t89 139.5q0 37 -23.5 63t-66.5 26q-30 0 -103.5 -8.5t-112.5 -8.5q-111 0 -194.5 94t-83.5 208q0 91 56.5 146.5t172.5 55.5h323q4 0 6.5 2t3.5 6l32 163h-708l-32 124l8 9h1102l31 -124l-7 -9h-240zM470 -138q0 44 36.5 77t80.5 33q34 0 56 -23.5t22 -56.5
q0 -45 -36 -78t-80 -33q-34 0 -56.5 23.5t-22.5 57.5z" />
    <glyph glyph-name="dRha" unicode="&#x95d;" horiz-adv-x="1058" 
d="M1075 1197l-70 -360l-10 -8h-221q-193 0 -312 -106.5t-119 -257.5q0 -107 69.5 -190t209.5 -83q22 0 49 2.5t52 8.5q-47 60 -68 115t-21 104q0 107 69 170t163 63q96 0 155 -70t59 -166q0 -150 -128.5 -254t-297.5 -104q-192 0 -316 143t-124 319q0 185 146 319t392 134
h118q4 0 6 2t3 6l42 213h-688l-32 124l8 9h1108l31 -124l-7 -9h-266zM986 446q0 38 -22 61.5t-58 23.5q-54 0 -99 -44.5t-45 -112.5q0 -29 10.5 -66t32.5 -74q80 37 130.5 94.5t50.5 117.5zM480 -138q0 44 36.5 77t80.5 33q34 0 56 -23.5t22 -56.5q0 -45 -36 -78t-80 -33
q-34 0 -56.5 23.5t-22.5 57.5z" />
    <glyph glyph-name="dFa" unicode="&#x95e;" horiz-adv-x="1480" 
d="M522 1197l-105 -537q-17 -87 13 -132t99 -45q92 0 184 69t111 168l93 477h-395zM1248 942q111 0 189 -77t78 -224q0 -188 -95 -299.5t-180 -111.5q-39 0 -70.5 24.5t-47.5 62.5q128 60 204 165.5t76 205.5q0 60 -30.5 93.5t-85.5 33.5q-93 0 -204.5 -83t-136.5 -214
l-103 -530l-11 -7l-143 38l77 398q-56 -29 -106.5 -42.5t-94.5 -13.5q-142 0 -231.5 114t-58.5 270l88 452h-129l-32 124l8 9h1530l31 -124l-7 -9h-686l-68 -348q57 47 116.5 70t122.5 23zM279 62q0 44 36 77t80 33q34 0 56.5 -23.5t22.5 -56.5q0 -45 -36.5 -78t-79.5 -33
q-34 0 -56.5 23.5t-22.5 57.5z" />
    <glyph glyph-name="dYya" unicode="&#x95f;" horiz-adv-x="1248" 
d="M1039 -12l-11 -7l-143 38l61 315q-59 -37 -116.5 -55t-120.5 -18q-151 0 -277 114t-206 365l7 10q219 58 286.5 134t67.5 193q0 31 -4 64.5t-11 55.5h-339l-32 124l8 9h1298l31 -124l-7 -9h-257zM673 1197q16 -47 26 -103t10 -105q0 -134 -81.5 -221t-238.5 -140
q46 -113 123.5 -160t158.5 -47q113 0 217 74t127 195l99 507h-441zM229 62q0 44 36 77t80 33q34 0 56.5 -23.5t22.5 -56.5q0 -45 -36.5 -78t-79.5 -33q-34 0 -56.5 23.5t-22.5 57.5z" />
    <glyph glyph-name="dRrvocalic" unicode="&#x960;" horiz-adv-x="1771" 
d="M1187 1197l-94 -484q84 7 158 30.5t142 64.5q-11 26 -16.5 51.5t-5.5 46.5q0 55 41.5 97t106.5 42q61 0 97 -41t36 -93q0 -49 -33 -96t-90 -90q24 -81 47 -150t47 -129l-4 -8q-163 -87 -213.5 -139.5t-50.5 -98.5q0 -35 24.5 -56t63.5 -21q58 0 138.5 42t131.5 102
q22 -9 43.5 -36t21.5 -62q0 -64 -82 -121.5t-189 -57.5q-123 0 -196 83.5t-73 178.5q0 80 56 141.5t192 134.5l-22.5 67.5t-22.5 73.5q-79 -42 -176.5 -70t-200.5 -32l-112 -579l-11 -7l-143 38l97 503q-150 -93 -273 -179.5t-248 -184.5l-99 118l2 12q136 104 281 201.5
t316 196.5q-116 103 -186 148t-125 45t-113.5 -40.5t-114.5 -113.5q-37 26 -56.5 57t-19.5 62q0 57 71.5 116t191.5 59q78 0 158.5 -48.5t261.5 -207.5l85 434h-794l-32 124l8 9h1821l31 -124l-7 -9h-867z" />
    <glyph glyph-name="dLlvocalic" unicode="&#x961;" horiz-adv-x="1411" 
d="M1122 -291q57 0 139.5 39.5t133.5 104.5q25 -10 43.5 -31t18.5 -49q0 -58 -82.5 -115t-194.5 -57q-110 0 -178 63.5t-68 145.5q0 30 10.5 58t45.5 65q-52 26 -82 71.5t-30 96.5q0 82 61.5 133t159.5 129q123 99 174.5 166.5t51.5 132.5q0 51 -32.5 80t-85.5 29
q-86 0 -194.5 -77.5t-215.5 -252.5l-11 -3l-117 84q25 46 52.5 85.5t56.5 74.5q-40 54 -86 80t-96 26q-95 0 -164 -77t-69 -193q0 -110 63 -245t192 -239q-10 -19 -29 -30.5t-38 -11.5q-77 0 -206.5 174t-129.5 384q0 160 97 267t253 107q77 0 145 -36.5t140 -129.5
q62 60 127 95t122 48l58 296h-924l-32 124l8 9h1461l31 -124l-7 -9h-387l-59 -300q81 -25 134 -103t53 -180q0 -117 -56.5 -183.5t-131.5 -128.5q-121 -99 -186 -151.5t-65 -96.5q0 -17 12.5 -30.5t42.5 -13.5q35 0 90 22.5t149 73.5l68 -99l-5 -11q-199 -90 -250 -145.5
t-51 -89.5q0 -26 19.5 -39t50.5 -13z" />
    <glyph glyph-name="dLvocalicsign" unicode="&#x962;" horiz-adv-x="0" 
d="M-564 -300q0 99 63.5 164.5t164.5 65.5q47 0 91.5 -20.5t90.5 -72.5q51 49 102.5 66t87.5 17q74 0 124 -54.5t50 -141.5q0 -71 -27.5 -112t-84.5 -98q-60 -59 -107 -101.5t-47 -73.5q0 -13 9.5 -20t26.5 -7q34 0 84.5 24.5t84.5 73.5q18 -7 33.5 -26t15.5 -43
q0 -42 -51.5 -77.5t-116.5 -35.5q-75 0 -123.5 50.5t-48.5 102.5q0 47 43.5 94.5t92.5 93.5q66 62 101 105.5t35 90.5q0 30 -17 44.5t-48 14.5q-48 0 -120.5 -47.5t-126.5 -201.5l-12 -6l-88 51q16 48 35.5 87t40.5 69q-26 25 -55 37t-59 12q-59 0 -100.5 -40t-41.5 -104
q0 -63 41.5 -142.5t120.5 -139.5q-7 -16 -22.5 -26t-30.5 -10q-48 0 -129.5 105t-81.5 232z" />
    <glyph glyph-name="dLlvocalicsign" unicode="&#x963;" horiz-adv-x="0" 
d="M-564 -300q0 99 63.5 164.5t164.5 65.5q47 0 91.5 -20.5t90.5 -72.5q51 49 102.5 66t87.5 17q75 0 126 -53t51 -131q0 -60 -30.5 -104.5t-101.5 -97.5q-43 -32 -96 -72t-53 -81q0 -12 7.5 -21.5t26.5 -9.5q22 0 59 16t98 52l38 -79l-7 -11q-125 -51 -158 -85t-33 -56
q0 -19 14.5 -29t37.5 -10q34 0 84.5 22t84.5 68q17 -11 26.5 -29t9.5 -36q0 -43 -51.5 -76t-115.5 -33q-78 0 -124 51t-46 105q0 26 9.5 43t26.5 38q-33 17 -53.5 47.5t-20.5 68.5q0 48 29 83t104 89q66 49 109 84.5t43 92.5q0 29 -17 43.5t-48 14.5q-48 0 -119.5 -45.5
t-125.5 -193.5l-11 -6l-91 41q16 48 35.5 87t40.5 69q-26 25 -55 37t-59 12q-59 0 -100.5 -40t-41.5 -104q0 -63 41.5 -142.5t120.5 -139.5q-7 -16 -22.5 -26t-30.5 -10q-48 0 -129.5 105t-81.5 232z" />
    <glyph glyph-name="dDanda" unicode="&#x964;" horiz-adv-x="860" 
d="M650 -52l-10 -7l-144 38l263 1351l10 7l144 -38z" />
    <glyph glyph-name="dDbldanda" unicode="&#x965;" horiz-adv-x="1230" 
d="M1020 -52l-10 -7l-144 38l263 1351l10 7l144 -38zM650 -52l-10 -7l-144 38l263 1351l10 7l144 -38z" />
    <glyph glyph-name="dZero" unicode="&#x966;" horiz-adv-x="1038" 
d="M680 1046q169 0 278 -124.5t109 -285.5q0 -190 -142.5 -315t-314.5 -125q-169 0 -283 127t-114 286q0 175 143 306t324 131zM948 689q0 96 -61 153t-165 57q-158 0 -268.5 -105.5t-110.5 -240.5q0 -92 58.5 -153.5t165.5 -61.5q143 0 262 98.5t119 252.5z" />
    <glyph glyph-name="dOne" unicode="&#x967;" horiz-adv-x="809" 
d="M390 340q47 -38 110 -93.5t106 -96.5q72 -69 100 -120.5t28 -94.5q0 -69 -45.5 -120.5t-100.5 -51.5q-37 0 -67.5 25.5t-40.5 64.5q59 32 83.5 67t24.5 60q0 19 -16.5 38.5t-59.5 61.5q-96 93 -162 152.5t-154 139.5l3 10q107 84 193 155t148 128q-90 54 -158 132.5
t-68 183.5q0 132 97 214t213 82q119 0 197 -90t78 -215q0 -147 -118.5 -280.5t-390.5 -351.5zM659 1152q-76 0 -134 -58.5t-58 -144.5q0 -52 32.5 -108.5t112.5 -108.5q96 97 129 162t33 128t-32 96.5t-83 33.5z" />
    <glyph glyph-name="dTwo" unicode="&#x968;" horiz-adv-x="1062" 
d="M836 25q34 0 64.5 8.5t68.5 27.5q13 -15 20.5 -37t7.5 -43q0 -54 -43.5 -91.5t-114.5 -37.5q-93 0 -189.5 97t-166.5 357q-9 -1 -16 -1.5t-19 -0.5q-104 0 -154.5 52t-50.5 113q0 63 47 104.5t110 41.5q49 0 89 -30t61 -89q228 87 335 220.5t107 254.5q0 87 -52 134
t-137 47q-122 0 -207.5 -79.5t-105.5 -183.5q-59 0 -92 26.5t-33 75.5q0 101 121.5 193.5t279.5 92.5q155 0 254.5 -104.5t99.5 -251.5q0 -166 -140.5 -327t-392.5 -257q43 -181 102.5 -246.5t146.5 -65.5z" />
    <glyph glyph-name="dThree" unicode="&#x969;" horiz-adv-x="945" 
d="M669 -83q36 0 66.5 8.5t68.5 27.5q13 -15 20.5 -37t7.5 -44q0 -54 -44.5 -91t-110.5 -37q-82 0 -150.5 75.5t-107.5 244.5q-107 -1 -166 49.5t-59 115.5q0 60 44 103.5t107 43.5q57 0 95 -40.5t51 -111.5q169 13 254 85.5t85 162.5q0 44 -24.5 88t-81.5 73
q-56 -18 -122.5 -31t-142.5 -20l-50 157l8 10q260 12 375.5 88t115.5 186q0 66 -47.5 103.5t-125.5 37.5q-110 0 -184 -65t-93 -162q-59 0 -92 27t-33 73q0 83 97.5 160.5t263.5 77.5q160 0 252 -86.5t92 -212.5q0 -92 -45 -164t-158 -135q60 -46 94 -115.5t34 -141.5
q0 -130 -116.5 -232t-338.5 -116q27 -86 60 -120.5t101 -34.5z" />
    <glyph glyph-name="dFour" unicode="&#x96a;" horiz-adv-x="1110" 
d="M1280 1154q-160 -169 -258 -274.5t-237 -256.5q79 -90 117.5 -164t38.5 -147q0 -151 -97.5 -212t-181.5 -61q-107 0 -184.5 82t-77.5 193q0 75 44 140.5t167 199.5q-99 94 -195.5 197.5t-96.5 213.5q0 87 66.5 149.5t142.5 62.5q49 0 75 -30.5t39 -84.5
q-75 -8 -127.5 -49t-52.5 -102q0 -54 55 -112.5t166 -166.5q108 116 206 219t282 298l110 -86zM521 271q0 -46 32 -72.5t78 -26.5q66 0 121 48t55 126q0 49 -24.5 100.5t-69.5 100.5q-122 -131 -157 -181t-35 -95z" />
    <glyph glyph-name="dFive" unicode="&#x96b;" horiz-adv-x="1047" 
d="M1066 673q0 -54 -24.5 -107t-66.5 -106q47 -86 76 -168.5t29 -153.5q0 -108 -67.5 -175t-147.5 -67q-39 0 -68.5 25.5t-39.5 100.5q123 25 167 77.5t44 110.5q0 41 -17.5 84.5t-46.5 88.5q-78 -72 -176 -120.5t-193 -48.5q-130 0 -228 99.5t-98 251.5q0 147 116 331
t278 368l131 -87l-1 -8q-199 -220 -299.5 -389t-100.5 -275q0 -69 41.5 -109t124.5 -40q72 0 150.5 34t174.5 127q-24 40 -37 80t-13 76q0 69 47.5 117t113.5 48q63 0 97 -49.5t34 -115.5z" />
    <glyph glyph-name="dSix" unicode="&#x96c;" horiz-adv-x="981" 
d="M957 365q0 -49 -28.5 -93.5t-71.5 -79.5q46 -75 65.5 -133t19.5 -100q0 -75 -46 -118.5t-103 -43.5q-37 0 -67 26t-39 100q82 14 110.5 45.5t28.5 67.5q0 18 -10 43t-37 62q-46 -23 -99 -36.5t-107 -13.5q-154 0 -249 103.5t-95 228.5q0 92 54.5 166.5t155.5 132.5
q-52 44 -81.5 102t-29.5 124q0 135 111.5 232.5t283.5 97.5q104 0 148.5 -43.5t41.5 -132.5q-15 5 -60.5 13t-94.5 8q-140 0 -217 -68t-77 -151q0 -37 18.5 -72.5t59.5 -64.5q56 20 120.5 33t136.5 18l64 -139l-6 -10q-310 -26 -408.5 -118t-98.5 -177q0 -74 54 -114.5
t131 -40.5q37 0 80 9.5t81 30.5q-10 20 -15.5 41t-5.5 40q0 63 48 111t113 48q57 0 89 -41t32 -93z" />
    <glyph glyph-name="dSeven" unicode="&#x96d;" horiz-adv-x="1035" 
d="M568 883q0 144 92.5 222t193.5 78q125 0 199.5 -128.5t74.5 -316.5q0 -294 -133 -448.5t-329 -154.5q-230 0 -342 225t-112 500q0 239 44.5 309.5t108.5 70.5q-71 -510 22 -726.5t263 -216.5q90 0 167.5 53.5t128.5 155.5q-168 6 -273 121t-105 256zM882 1047
q-58 0 -120 -53.5t-62 -161.5q0 -99 76 -162t208 -69q10 33 21.5 76.5t11.5 115.5q0 110 -35 182t-100 72z" />
    <glyph glyph-name="dEight" unicode="&#x96e;" horiz-adv-x="987" 
d="M999 375q0 -83 -146 -184.5t-310 -101.5q-137 0 -237.5 91.5t-100.5 235.5q0 104 65 192.5t260 257.5q150 131 292.5 240t170.5 133l109 -85v-9q-34 -28 -185.5 -151.5t-305.5 -257.5q-178 -154 -231.5 -219.5t-53.5 -141.5q0 -68 46 -113t130 -45q107 0 218.5 71.5
t215.5 193.5q30 -26 46.5 -52.5t16.5 -54.5z" />
    <glyph glyph-name="dNine" unicode="&#x96f;" horiz-adv-x="865" 
d="M536 589q24 -36 77.5 -118.5t87.5 -143.5q29 -53 43.5 -99.5t14.5 -88.5q0 -99 -59.5 -153.5t-120.5 -54.5q-39 0 -66.5 25.5t-41.5 82.5q60 22 104 59t44 97q0 64 -54 151.5t-140 213.5q-74 108 -117 196t-43 177q0 147 99 242t245 95q137 0 228.5 -93.5t91.5 -230.5
q0 -148 -102.5 -247.5t-290.5 -109.5zM811 981q0 69 -42.5 114.5t-116.5 45.5q-92 0 -169 -66.5t-77 -197.5q0 -39 10.5 -77.5t31.5 -75.5q179 6 271 76.5t92 180.5z" />
    <glyph glyph-name="dAbbsign" unicode="&#x970;" horiz-adv-x="1038" 
d="M741 1326q145 0 235.5 -100.5t90.5 -231.5q0 -153 -115.5 -250.5t-260.5 -97.5t-241 101t-96 231q0 143 117 245.5t270 102.5zM945 1034q0 75 -49 118t-129 43q-118 0 -204 -74.5t-86 -178.5q0 -73 50 -121t132 -48q107 0 196.5 72.5t89.5 188.5z" />
    <glyph glyph-name="dHighspacingdot" unicode="&#x971;" horiz-adv-x="431" 
d="M364 1248q0 44 36 77t80 33q34 0 56 -23.5t22 -56.5q0 -45 -36 -78t-79 -33q-35 0 -57 23.5t-22 57.5z" />
    <glyph glyph-name="dAcandra" unicode="&#x972;" horiz-adv-x="1550" 
d="M1273 1776q0 52 13.5 72t45.5 36q17 -146 73 -205.5t135 -59.5q84 0 164.5 60t136.5 187q38 -17 55 -37t17 -49q0 -90 -108.5 -192t-254.5 -102q-137 0 -207 99t-70 191zM395 1117q0 77 92.5 147.5t252.5 70.5t254 -86t94 -220q0 -83 -34 -150.5t-130 -138.5
q40 -23 84 -33.5t84 -10.5q96 0 171 54.5t95 156.5l57 290h-163l-32 124l8 9h581l31 -124l-7 -9h-258l-235 -1209l-11 -7l-143 38l114 586q-40 -17 -75 -24.5t-69 -7.5t-70 7t-70 20q13 -34 20.5 -75.5t7.5 -80.5q0 -160 -115 -271t-296 -111q-243 0 -337 197t-94 338
q0 93 24 124t75 35q-14 -277 79 -404.5t242 -127.5q128 0 212.5 76.5t84.5 189.5q0 62 -28.5 115.5t-78.5 77.5q-48 -18 -104.5 -31t-121.5 -20l-51 157l8 10q216 11 313 85t97 192q0 72 -46 110t-122 38q-104 0 -175.5 -59.5t-88.5 -147.5q-59 0 -92.5 27.5t-33.5 72.5z
" />
    <glyph glyph-name="dOe" unicode="&#x973;" horiz-adv-x="1550" 
d="M1840 1206l-7 -9h-258l-235 -1209l-11 -7l-143 38l114 586q-40 -17 -75 -24.5t-69 -7.5t-70 7t-70 20q13 -34 20.5 -75.5t7.5 -80.5q0 -160 -115 -271t-296 -111q-243 0 -337 197t-94 338q0 93 24 124t75 35q-14 -277 79 -404.5t242 -127.5q128 0 212.5 76.5t84.5 189.5
q0 62 -28.5 115.5t-78.5 77.5q-48 -18 -104.5 -31t-121.5 -20l-51 157l8 10q216 11 313 85t97 192q0 72 -46 110t-122 38q-104 0 -175.5 -59.5t-88.5 -147.5q-59 0 -92.5 27.5t-33.5 72.5q0 77 92.5 147.5t252.5 70.5t254 -86t94 -220q0 -83 -34 -150.5t-130 -138.5
q40 -23 84 -33.5t84 -10.5q96 0 171 54.5t95 156.5l57 290h-163l-32 124l8 9h222l54 278l10 7l128 -28l-49 -257h216z" />
    <glyph glyph-name="dOoe" unicode="&#x974;" horiz-adv-x="2033" 
d="M2323 1206l-7 -9h-258l-235 -1209l-11 -7l-143 38l229 1178h-323l-235 -1209l-11 -7l-143 38l114 586q-40 -17 -75 -24.5t-69 -7.5t-70 7t-70 20q13 -34 20.5 -75.5t7.5 -80.5q0 -160 -115 -271t-296 -111q-243 0 -337 197t-94 338q0 93 24 124t75 35q-14 -277 79 -404.5
t242 -127.5q128 0 212.5 76.5t84.5 189.5q0 62 -28.5 115.5t-78.5 77.5q-48 -18 -104.5 -31t-121.5 -20l-51 157l8 10q216 11 313 85t97 192q0 72 -46 110t-122 38q-104 0 -175.5 -59.5t-88.5 -147.5q-59 0 -92.5 27.5t-33.5 72.5q0 77 92.5 147.5t252.5 70.5t254 -86
t94 -220q0 -83 -34 -150.5t-130 -138.5q40 -23 84 -33.5t84 -10.5q96 0 171 54.5t95 156.5l57 290h-163l-32 124l8 9h705l54 278l10 7l128 -28l-49 -257h216z" />
    <glyph glyph-name="dAw" unicode="&#x975;" horiz-adv-x="2033" 
d="M1726 1860q190 -59 275.5 -123.5t85.5 -261.5q0 -32 -2 -68t-6 -77h213l31 -124l-7 -9h-258l-235 -1209l-11 -7l-143 38l229 1178h-323l-235 -1209l-11 -7l-143 38l114 586q-40 -17 -75 -24.5t-69 -7.5t-70 7t-70 20q13 -34 20.5 -75.5t7.5 -80.5q0 -160 -115 -271
t-296 -111q-243 0 -337 197t-94 338q0 93 24 124t75 35q-14 -277 79 -404.5t242 -127.5q128 0 212.5 76.5t84.5 189.5q0 62 -28.5 115.5t-78.5 77.5q-48 -18 -104.5 -31t-121.5 -20l-51 157l8 10q216 11 313 85t97 192q0 72 -46 110t-122 38q-104 0 -175.5 -59.5
t-88.5 -147.5q-59 0 -92.5 27.5t-33.5 72.5q0 77 92.5 147.5t252.5 70.5t254 -86t94 -220q0 -83 -34 -150.5t-130 -138.5q40 -23 84 -33.5t84 -10.5q96 0 171 54.5t95 156.5l57 290h-163l-32 124l8 9h710q10 22 16.5 42t6.5 32q0 48 -80 61t-270 23q-219 12 -338.5 65
t-119.5 162q0 33 9 58t28 53q30 -103 120 -140.5t273 -54.5q213 -20 293 -40t125 -97l11 5q-5 100 -66.5 139.5t-198.5 72.5q-140 34 -231 72.5t-91 131.5q0 32 11.5 62.5t32.5 55.5q15 -78 76.5 -107t180.5 -66z" />
    <glyph glyph-name="dUe" unicode="&#x976;" horiz-adv-x="1550" 
d="M395 1117q0 77 92.5 147.5t252.5 70.5t254 -86t94 -220q0 -83 -34 -150.5t-130 -138.5q40 -23 84 -33.5t84 -10.5q96 0 171 54.5t95 156.5l57 290h-163l-32 124l8 9h581l31 -124l-7 -9h-258l-235 -1209l-11 -7l-143 38l114 586q-40 -17 -75 -24.5t-69 -7.5t-70 7t-70 20
q13 -34 20.5 -75.5t7.5 -80.5q0 -160 -115 -271t-296 -111q-243 0 -337 197t-94 338q0 93 24 124t75 35q-14 -277 79 -404.5t242 -127.5q128 0 212.5 76.5t84.5 189.5q0 62 -28.5 115.5t-78.5 77.5q-48 -18 -104.5 -31t-121.5 -20l-51 157l8 10q216 11 313 85t97 192
q0 72 -46 110t-122 38q-104 0 -175.5 -59.5t-88.5 -147.5q-59 0 -92.5 27.5t-33.5 72.5zM409 -164q0 24 11.5 37.5t25.5 22.5q55 -102 147 -154.5t199 -52.5q110 0 211.5 52.5t170.5 148.5q31 -12 47.5 -35.5t16.5 -52.5q0 -84 -124.5 -163.5t-292.5 -79.5
q-193 0 -302.5 102.5t-109.5 174.5z" />
    <glyph glyph-name="dUue" unicode="&#x977;" horiz-adv-x="2033" 
d="M2323 1206l-7 -9h-258l-235 -1209l-11 -7l-143 38l229 1178h-323l-235 -1209l-11 -7l-143 38l114 586q-40 -17 -75 -24.5t-69 -7.5t-70 7t-70 20q13 -34 20.5 -75.5t7.5 -80.5q0 -160 -115 -271t-296 -111q-243 0 -337 197t-94 338q0 93 24 124t75 35q-14 -277 79 -404.5
t242 -127.5q128 0 212.5 76.5t84.5 189.5q0 62 -28.5 115.5t-78.5 77.5q-48 -18 -104.5 -31t-121.5 -20l-51 157l8 10q216 11 313 85t97 192q0 72 -46 110t-122 38q-104 0 -175.5 -59.5t-88.5 -147.5q-59 0 -92.5 27.5t-33.5 72.5q0 77 92.5 147.5t252.5 70.5t254 -86
t94 -220q0 -83 -34 -150.5t-130 -138.5q40 -23 84 -33.5t84 -10.5q96 0 171 54.5t95 156.5l57 290h-163l-32 124l8 9h1064zM331 -164q0 24 11.5 37.5t25.5 22.5q55 -102 147 -154.5t199 -52.5q110 0 211.5 52.5t170.5 148.5q31 -12 47.5 -35.5t16.5 -52.5
q0 -84 -124.5 -163.5t-292.5 -79.5q-193 0 -302.5 102.5t-109.5 174.5zM1099 -512q0 -72 -100 -132t-257 -60q-218 0 -338.5 109.5t-120.5 181.5q0 22 10 35.5t26 23.5q55 -99 160 -159t245 -60q106 0 191 35.5t145 98.5q20 -13 29.5 -32.5t9.5 -40.5z" />
    <glyph glyph-name="dZha" unicode="&#x979;" horiz-adv-x="1421" 
d="M1447 1197l-235 -1209l-11 -7l-143 38l150 771h-333q37 -51 54.5 -112t17.5 -116q0 -149 -104 -242t-245 -93q-205 0 -280 191t-75 328q0 90 17.5 130t89.5 47q-16 -278 50.5 -406t186.5 -128q88 0 161 59.5t73 167.5q0 69 -43 121.5t-130 52.5l-32 124l7 9h610l54 274
h-1054l-32 124l8 9h1471l31 -124l-7 -9h-257zM704 24q0 38 31 67t69 29q30 0 49 -21t19 -49q0 -39 -31.5 -67.5t-68.5 -28.5q-30 0 -49 20.5t-19 49.5zM244 24q0 38 31 67t69 29q30 0 49 -21t19 -49q0 -39 -31.5 -67.5t-68.5 -28.5q-30 0 -49 20.5t-19 49.5zM446 -156
q0 38 31 67t69 29q30 0 49 -21t19 -49q0 -39 -31.5 -67.5t-68.5 -28.5q-30 0 -49 20.5t-19 49.5z" />
    <glyph glyph-name="dYaheavy" unicode="&#x97a;" horiz-adv-x="1248" 
d="M1039 -12l-11 -7l-143 38l61 315q-59 -37 -116.5 -55t-121.5 -18q-150 0 -276 114t-206 365l7 10q219 58 286.5 134t67.5 193q0 31 -4 64.5t-11 55.5h-339l-32 124l8 9h1298l31 -124l-7 -9h-257zM673 1197l314 -593q9 19 16.5 41t11.5 45l99 507h-441zM389 627
q43 -112 122.5 -159t160.5 -47q63 0 126 24.5t114 68.5l-214 396q-29 -108 -104 -172.5t-205 -110.5z" />
    <glyph glyph-name="dGga" unicode="&#x97b;" horiz-adv-x="1241" 
d="M1531 1206l-7 -9h-257l-243 -1250h-896l-26 104l8 9h776l221 1137h-435l-131 -673q-16 -81 -46 -121t-74 -40q-75 0 -144.5 89t-69.5 147q0 25 22 46t69 21h115l104 531h-284l-32 124l8 9h1291z" />
    <glyph glyph-name="dJja" unicode="&#x97c;" horiz-adv-x="1421" 
d="M1711 1206l-7 -9h-257l-243 -1250h-1066l-26 104l8 9h946l142 730h-333q37 -51 54.5 -111.5t17.5 -115.5q0 -150 -104 -243t-245 -93q-205 0 -280 190.5t-75 328.5q0 108 30.5 140.5t76.5 36.5q-16 -278 50.5 -406t186.5 -128q88 0 161 59.5t73 167.5q0 69 -43 121.5
t-130 52.5l-32 124l7 9h610l54 274h-1054l-32 124l8 9h1471z" />
    <glyph glyph-name="dGlottalstop" unicode="&#x97d;" horiz-adv-x="945" 
d="M654 1335q174 0 280 -101t106 -255q0 -186 -123 -296.5t-309 -154.5l-101 -520l-11 -7l-143 38l124 640q218 17 323 111t105 236q0 96 -57.5 147t-147.5 51q-107 0 -178 -59.5t-88 -147.5q-60 0 -93 27.5t-33 72.5q0 77 93 147.5t253 70.5z" />
    <glyph glyph-name="dDdda" unicode="&#x97e;" horiz-adv-x="1052" 
d="M1095 1197l-59 -304l-10 -8h-395q-95 0 -129.5 -34.5t-34.5 -82.5q0 -40 27.5 -64t81.5 -24q44 0 115.5 10.5t111.5 10.5q93 0 159 -80.5t66 -196.5q0 -148 -98.5 -236.5t-261.5 -88.5q-236 0 -355 163t-119 260q0 33 15.5 57t43.5 37q55 -182 160.5 -271.5t231.5 -89.5
q108 0 197 55.5t89 139.5q0 37 -23.5 63t-66.5 26q-30 0 -103.5 -8.5t-112.5 -8.5q-111 0 -194.5 94t-83.5 208q0 91 56.5 146.5t172.5 55.5h323q4 0 6.5 2t3.5 6l32 163h-708l-32 124l8 9h1102l31 -124l-7 -9h-240zM118 -153l-26 104l8 9h860l26 -104l-8 -9h-860z" />
    <glyph glyph-name="dBba" unicode="&#x97f;" horiz-adv-x="1160" 
d="M805 60l46 237q-72 -43 -138 -60.5t-118 -17.5q-151 0 -272 114.5t-121 275.5q0 166 132 282t310 116q89 0 172 -36.5t143 -115.5l67 342h-793l-32 124l8 9h1210l31 -124l-7 -9h-257l-243 -1250h-815l-26 104l8 9h695zM913 618l7 34q19 90 -49 150.5t-183 60.5
q-34 0 -69.5 -6.5t-65.5 -19.5l247 -395q43 34 73 79.5t40 96.5zM339 554q0 -87 55.5 -145.5t154.5 -58.5q35 0 74.5 8t73.5 24l-251 392q-49 -45 -78 -100.5t-29 -119.5z" />
    <glyph glyph-name="zerowidthnonjoiner" unicode="&#x200c;" horiz-adv-x="0" 
d="M396 2056l-496 -2548h-103l496 2548h103z" />
    <glyph glyph-name="endash" unicode="&#x2013;" horiz-adv-x="1024" 
d="M1022 489h-1044l24 121h1044z" />
    <glyph glyph-name="emdash" unicode="&#x2014;" horiz-adv-x="2048" 
d="M2046 489h-2068l24 121h2068z" />
    <glyph glyph-name="quoteright" unicode="&#x2019;" horiz-adv-x="512" 
d="M544 1322q0 -51 -27.5 -127t-99.5 -150q-50 -51 -122 -93t-169 -69l16 86q122 37 177 87t55 107q0 16 -8 27.5t-21 20.5q-7 5 -15 10t-17 10q-16 10 -30.5 24t-21.5 35q-1 5 -2.5 13.5t-1.5 16.5q0 67 47.5 104.5t112.5 37.5q32 0 58 -11.5t43 -33.5q12 -16 19 -41.5
t7 -53.5z" />
    <glyph glyph-name="quoteleft" unicode="&#x201b;" horiz-adv-x="512" 
d="M210 1025q0 54 29 129.5t99 147.5q50 51 122.5 93t168.5 69l-17 -86q-122 -37 -177 -86.5t-55 -106.5q0 -16 8 -27.5t21 -20.5q7 -5 15.5 -10.5t16.5 -10.5q16 -10 31 -24t22 -34q1 -6 2 -14.5t1 -16.5q0 -67 -47.5 -104.5t-112.5 -37.5q-31 0 -57.5 12t-43.5 34
q-13 16 -19.5 41t-6.5 53z" />
    <glyph glyph-name="quotedblleft" unicode="&#x201c;" horiz-adv-x="922" 
d="M619 1027q0 52 29 127.5t99 147.5q50 51 122.5 93t168.5 69l-17 -86q-120 -37 -175.5 -86.5t-55.5 -106.5q0 -16 8.5 -27.5t20.5 -20.5q7 -5 15.5 -10.5t16.5 -10.5q17 -10 31 -24t21 -34q1 -6 2 -14.5t1 -16.5q0 -67 -47 -104.5t-112 -37.5q-31 0 -57.5 12t-43.5 34
q-13 16 -20 41.5t-7 54.5zM210 1025q0 54 29 129.5t99 147.5q50 51 122.5 93t168.5 69l-17 -86q-122 -37 -177 -86.5t-55 -106.5q0 -16 8 -27.5t21 -20.5q7 -5 15.5 -10.5t16.5 -10.5q16 -10 31 -24t22 -34q1 -6 2 -14.5t1 -16.5q0 -67 -47.5 -104.5t-112.5 -37.5
q-31 0 -57.5 12t-43.5 34q-13 16 -19.5 41t-6.5 53z" />
    <glyph glyph-name="quotedblright" unicode="&#x201d;" horiz-adv-x="922" 
d="M954 1321q0 -50 -27.5 -126t-99.5 -150q-50 -51 -122 -93t-169 -69l16 86q120 37 176 87t56 107q0 16 -8 27.5t-21 20.5q-7 5 -15 10t-17 10q-16 10 -30.5 24t-21.5 35q-1 5 -2.5 13.5t-1.5 16.5q0 67 47 104.5t112 37.5q32 0 58.5 -11.5t43.5 -33.5q12 -16 19 -41.5
t7 -54.5zM544 1322q0 -51 -27.5 -127t-99.5 -150q-50 -51 -122 -93t-169 -69l16 86q122 37 177 87t55 107q0 16 -8 27.5t-21 20.5q-7 5 -15 10t-17 10q-16 10 -30.5 24t-21.5 35q-1 5 -2.5 13.5t-1.5 16.5q0 67 47.5 104.5t112.5 37.5q32 0 58 -11.5t43 -33.5
q12 -16 19 -41.5t7 -53.5z" />
    <glyph glyph-name="ellipsis" unicode="&#x2026;" horiz-adv-x="1586" 
d="M1077 91q0 81 41.5 127t118.5 46q51 0 79 -26.5t28 -77.5q0 -82 -41.5 -128t-119.5 -46q-49 0 -77.5 25.5t-28.5 79.5zM577 91q0 81 41.5 127t118.5 46q51 0 79 -26.5t28 -77.5q0 -82 -41.5 -128t-119.5 -46q-49 0 -77.5 25.5t-28.5 79.5zM77 91q0 81 41.5 127t118.5 46
q51 0 79 -26.5t28 -77.5q0 -82 -41.5 -128t-119.5 -46q-49 0 -77.5 25.5t-28.5 79.5z" />
    <glyph glyph-name="inr_currency" unicode="&#x20b9;" horiz-adv-x="1138" 
d="M931 0h-29q-96 0 -156 7t-99 27t-63 56.5t-47 93.5l-188 461h-230l19 96h204q157 0 242.5 65.5t122.5 207.5h-516l19 98h515q18 140 -45.5 196t-221.5 56h-200l19 98h947l-19 -98h-341q50 -43 70 -106.5t10 -145.5h212l-19 -98h-213q-40 -125 -139 -203t-221 -117
l195 -444q36 -81 77 -122.5t106 -41.5h6z" />
    <glyph glyph-name="minus" unicode="&#x2212;" horiz-adv-x="635" 
d="M570 481h-533l30 154h533z" />
    <glyph glyph-name="dottedcircle" unicode="&#x25cc;" horiz-adv-x="1803" 
d="M945 1254q0 44 34.5 75.5t78.5 31.5q34 0 55.5 -22t21.5 -56q0 -42 -34.5 -74t-78.5 -32q-34 0 -55.5 23t-21.5 54zM1233 1171q0 46 35 78.5t79 32.5q34 0 55.5 -23t21.5 -56q0 -45 -35 -77t-78 -32q-36 0 -57 22t-21 55zM626 1173q0 44 35 76.5t78 32.5q35 0 56.5 -23
t21.5 -56q0 -44 -34 -76.5t-80 -32.5q-34 0 -55.5 23t-21.5 56zM1414 950q0 45 34.5 77t78.5 32q35 0 56.5 -22.5t21.5 -55.5q0 -44 -34.5 -76.5t-80.5 -32.5q-34 0 -55 22.5t-21 55.5zM361 949q0 46 34.5 78t78.5 32q34 0 56 -22.5t22 -55.5q0 -45 -35 -77t-80 -32
q-34 0 -55 21.5t-21 55.5zM1435 645q0 46 34.5 78t79.5 32q34 0 55.5 -22.5t21.5 -56.5q0 -44 -35 -76t-79 -32q-35 0 -56 21.5t-21 55.5zM220 645q0 46 34.5 78t79.5 32q34 0 55.5 -22.5t21.5 -56.5q0 -44 -35 -76t-79 -32q-35 0 -56 21.5t-21 55.5zM1296 342
q0 44 34.5 76.5t78.5 32.5q35 0 56 -23t21 -56q0 -44 -34 -76.5t-80 -32.5q-34 0 -55 23t-21 56zM242 340q0 46 35 78.5t79 32.5q34 0 55.5 -23t21.5 -56q0 -45 -34.5 -77t-79.5 -32q-35 0 -56 22t-21 55zM1029 121q0 45 34.5 77t79.5 32q34 0 55 -22.5t21 -55.5
q0 -45 -35 -78t-78 -33q-35 0 -56 23.5t-21 56.5zM422 122q0 44 34.5 76t78.5 32q35 0 56 -22.5t21 -55.5q0 -44 -34 -77.5t-80 -33.5q-33 0 -54.5 24.5t-21.5 56.5zM708 37q0 46 35 77.5t78 31.5q35 0 56.5 -22t21.5 -56q0 -45 -34.5 -77t-79.5 -32q-34 0 -55.5 22.5
t-21.5 55.5z" />
    <glyph glyph-name="dZerocombiningdigit" unicode="&#xa8e0;" horiz-adv-x="0" 
d="M-57 1937q87 0 140.5 -57.5t53.5 -138.5q0 -87 -67 -146.5t-149 -59.5q-90 0 -144 59t-54 137q0 81 66.5 143.5t153.5 62.5zM44 1765q0 38 -22.5 60.5t-59.5 22.5q-54 0 -97.5 -42.5t-43.5 -97.5q0 -37 22 -61.5t57 -24.5q50 0 97 39.5t47 103.5z" />
    <glyph glyph-name="dOnecombiningdigit" unicode="&#xa8e1;" horiz-adv-x="0" 
d="M-132 1626q48 -37 97 -83t49 -96q0 -31 -23.5 -54t-58.5 -23q-30 0 -48.5 18.5t-20.5 40.5q24 7 35 19.5t11 22.5q0 22 -43 60.5t-129 106.5l1 9q45 32 80 58.5t64 48.5q-44 29 -71.5 68t-27.5 83q0 61 47 98.5t106 37.5q63 0 105.5 -45.5t42.5 -104.5q0 -57 -54.5 -123
t-161.5 -142zM-45 1965q-23 0 -44 -22.5t-21 -60.5q0 -19 9.5 -38.5t33.5 -38.5q26 29 41 57t15 56q0 24 -10 35.5t-24 11.5z" />
    <glyph glyph-name="dTwocombiningdigit" unicode="&#xa8e2;" horiz-adv-x="0" 
d="M-11 1498q13 0 27.5 4t39.5 18q11 -13 16 -29t5 -29q0 -28 -24.5 -50t-63.5 -22q-48 0 -96 45.5t-64 149.5q-46 -4 -88.5 15.5t-42.5 62.5q0 38 28 59t64 21q27 0 48 -12.5t33 -33.5q82 36 124 91t42 106q0 35 -18.5 53t-48.5 18q-46 0 -80 -34t-41 -83q-45 -5 -69.5 12
t-24.5 45q0 49 61 92.5t141 43.5q81 0 129 -52t48 -122q0 -74 -62.5 -153t-178.5 -116q21 -63 43 -81.5t53 -18.5z" />
    <glyph glyph-name="dThreecombiningdigit" unicode="&#xa8e3;" horiz-adv-x="0" 
d="M-70 1438q19 0 33 4.5t37 17.5q9 -9 13.5 -21.5t4.5 -24.5q0 -27 -24.5 -47t-58.5 -20q-38 0 -72 31.5t-53 94.5q-51 4 -81.5 29t-30.5 57q0 31 25 54t62 23q32 0 54 -19.5t29 -47.5q54 7 84.5 34.5t30.5 64.5q0 18 -8 35t-24 27q-26 -8 -59.5 -14t-70.5 -8l-16 89l8 7
q112 3 159 33.5t47 79.5q0 25 -16 39t-44 14q-43 0 -70.5 -28.5t-34.5 -71.5q-42 -7 -68.5 8.5t-26.5 44.5q0 39 51.5 78t132.5 39q79 0 126 -45t47 -103q0 -37 -19.5 -68.5t-67.5 -61.5q27 -24 40.5 -55.5t13.5 -61.5q0 -54 -54 -105t-156 -58q16 -31 30 -37.5t27 -6.5z
" />
    <glyph glyph-name="dFourcombiningdigit" unicode="&#xa8e4;" horiz-adv-x="0" 
d="M-24 1738q37 -45 52.5 -78t15.5 -61q0 -74 -53 -104.5t-96 -30.5q-55 0 -95 41.5t-40 92.5q0 35 21.5 65t71.5 86q-49 46 -89.5 92t-40.5 93q0 43 35.5 74t80.5 31q35 0 51.5 -21t20.5 -49q-30 0 -56.5 -13.5t-26.5 -42.5q0 -20 20 -42.5t60 -63.5l217 232l75 -59z
M-146 1579q0 -16 9.5 -24t24.5 -8q21 0 38 16t17 49q0 16 -6 32t-19 34q-35 -38 -49.5 -60t-14.5 -39z" />
    <glyph glyph-name="dFivecombiningdigit" unicode="&#xa8e5;" horiz-adv-x="0" 
d="M99 1758q0 -22 -10.5 -45.5t-29.5 -48.5q24 -44 35.5 -83t11.5 -67q0 -46 -32.5 -79t-75.5 -33q-29 0 -52 18.5t-25 53.5q54 5 74 21t20 51q0 13 -4 27.5t-12 30.5q-40 -28 -80.5 -44.5t-78.5 -16.5q-66 0 -116 49t-50 121q0 67 57 155t137 176l78 -54l-1 -8
q-87 -98 -131 -174.5t-44 -122.5q0 -28 15 -43t44 -15q22 0 53 11t73 47q-16 21 -22 39.5t-6 31.5q0 34 28 61t68 27q37 0 56.5 -27t19.5 -59z" />
    <glyph glyph-name="dSixcombiningdigit" unicode="&#xa8e6;" horiz-adv-x="0" 
d="M61 1619q0 -19 -13 -41t-33 -37q22 -35 30 -61t8 -43q0 -31 -23.5 -56t-62.5 -25q-32 0 -48.5 19.5t-15.5 50.5q29 0 45 11t16 34q0 7 -2.5 17t-7.5 18q-25 -10 -45.5 -14t-40.5 -4q-80 0 -127.5 51t-47.5 110q0 37 21.5 69.5t73.5 63.5q-22 21 -36 48.5t-14 56.5
q0 61 58 106.5t135 45.5q65 0 92.5 -32t14.5 -72q-15 7 -38 12t-48 5q-57 0 -85 -27t-28 -63q0 -13 5 -25t16 -22q25 8 57.5 14t67.5 7l23 -80l-6 -8q-137 -10 -175.5 -48t-38.5 -76q0 -28 19 -43.5t50 -15.5q10 0 19.5 2t25.5 8q-4 7 -6 17.5t-2 18.5q0 31 28 55.5t67 24.5
q34 0 53 -23t19 -49z" />
    <glyph glyph-name="dSevencombiningdigit" unicode="&#xa8e7;" horiz-adv-x="0" 
d="M-165 1852q0 65 43.5 106t103.5 41q69 0 107.5 -63t38.5 -150q0 -133 -67.5 -206t-163.5 -73q-113 0 -167 106.5t-54 233.5q0 99 21.5 139t62.5 40q4 0 8.5 -0.5t7.5 -1.5q-9 -50 -13 -94.5t-4 -81.5q-1 -124 37 -183.5t91 -59.5q31 0 62 18t52 52q-76 11 -121 62.5
t-45 114.5zM-6 1912q-22 0 -40.5 -21.5t-18.5 -59.5q0 -32 21.5 -57.5t69.5 -32.5q4 10 8 26.5t4 48.5q0 40 -11 68t-33 28z" />
    <glyph glyph-name="dEightcombiningdigit" unicode="&#xa8e8;" horiz-adv-x="0" 
d="M139 1625q0 -34 -68 -86t-159 -52q-72 0 -121.5 44.5t-49.5 106.5q0 51 31 93t124 122q64 55 128.5 105t79.5 63l71 -50l-1 -9q-19 -16 -83 -69t-133 -112q-79 -72 -100.5 -101t-21.5 -59q0 -23 15 -37t38 -14q51 0 98 30t99 91q24 -9 38.5 -28.5t14.5 -37.5z" />
    <glyph glyph-name="dNinecombiningdigit" unicode="&#xa8e9;" horiz-adv-x="0" 
d="M-82 1714q23 -36 36 -56.5t29 -47.5q15 -26 22 -48.5t7 -41.5q0 -44 -33.5 -74.5t-70.5 -30.5q-26 0 -44.5 17.5t-23.5 46.5q27 5 48 24t21 44q0 31 -23.5 66t-60.5 89q-36 51 -55.5 93t-19.5 82q0 67 51 114t129 47q66 0 112 -47t46 -111q0 -59 -44.5 -107t-125.5 -59z
M-5 1897q0 28 -15 45.5t-38 17.5q-31 0 -60.5 -27t-29.5 -82q0 -16 3.5 -30t10.5 -27q67 4 98 32.5t31 70.5z" />
    <glyph glyph-name="dAcombiningletter" unicode="&#xa8ea;" horiz-adv-x="0" 
d="M81 1710q-16 -4 -28.5 -5t-20.5 -1q-11 0 -22.5 1.5t-18.5 2.5q4 -13 6 -29t2 -29q0 -69 -57 -122t-147 -53q-120 0 -165 93t-45 159q0 51 16.5 65.5t53.5 15.5q-4 -131 33 -186t96 -55q49 0 84.5 30t35.5 80q0 24 -9 44.5t-23 29.5q-23 -9 -52.5 -15t-62.5 -7l-13 89
l7 7q87 4 127.5 33.5t40.5 83.5q0 28 -15.5 41.5t-42.5 13.5q-40 0 -67 -26t-32 -66q-41 -6 -67 11t-26 44q0 35 48 71t129 36q80 0 126.5 -43t46.5 -105q0 -41 -17 -70t-52 -57q13 -7 27.5 -9.5t27.5 -2.5q37 0 68 21t39 64l23 120h-68l-5 73l6 7h284l3 -73l-6 -7h-102
l-103 -530l-7 -5l-104 9z" />
    <glyph glyph-name="dUcombiningletter" unicode="&#xa8eb;" horiz-adv-x="0" 
d="M136 1907q0 -31 -15.5 -59t-55.5 -59q28 -25 43 -60t15 -70q0 -72 -59.5 -128t-152.5 -56q-127 0 -173.5 102t-46.5 167q0 37 16.5 63t65.5 22q-3 -132 35 -195t100 -63q48 0 83 30.5t35 80.5q0 26 -12 44.5t-29 27.5q-25 -7 -56 -10.5t-63 -2.5l-5 91l6 7
q87 -1 130 25.5t43 69.5q0 20 -12 35.5t-37 15.5h-274l-6 73l6 7h532l6 -73l-6 -7h-136q13 -19 18 -40t5 -38z" />
    <glyph glyph-name="dKacombiningletter" unicode="&#xa8ec;" horiz-adv-x="0" 
d="M-298 1705q0 -34 19.5 -55.5t50.5 -21.5q34 0 67.5 22.5t40.5 61.5l5 25q7 34 -14.5 59t-58.5 25q-43 0 -76.5 -33.5t-33.5 -82.5zM22 1866q24 10 44 15t39 5q59 0 99.5 -43t40.5 -115q0 -86 -47 -138.5t-96 -52.5q-26 0 -46.5 15.5t-27.5 35.5q55 30 92 74.5t37 98.5
q0 22 -10 33.5t-26 11.5q-33 0 -78.5 -35t-56.5 -91l-44 -225l-7 -5l-104 9l18 97q-19 -6 -34.5 -8.5t-28.5 -2.5q-69 0 -127.5 56t-58.5 130q0 72 59.5 126t136.5 54q27 0 56.5 -9t58.5 -28l22 111h-326l-6 73l6 7h741l3 -73l-6 -7h-300z" />
    <glyph glyph-name="dNacombiningletter" unicode="&#xa8ed;" horiz-adv-x="0" 
d="M134 1985l-103 -530l-7 -5l-104 9l58 299h-139l-11 -58q-4 -23 -18 -34.5t-35 -11.5q-33 0 -68.5 47t-35.5 88q0 37 36.5 49t75.5 12h213l26 135h-335l-6 73l6 7h550l5 -73l-6 -7h-102z" />
    <glyph glyph-name="dPacombiningletter" unicode="&#xa8ee;" horiz-adv-x="0" 
d="M20 1450l-104 9l31 162q-24 -8 -44.5 -12t-38.5 -4q-76 0 -125 58.5t-35 132.5l37 189h-54l-6 73l6 7h546l5 -73l-6 -7h-102l-103 -530zM-191 1758q-8 -41 4.5 -60t37.5 -19q39 0 79.5 33t50.5 82l37 191h-165z" />
    <glyph glyph-name="dRacombiningletter" unicode="&#xa8ef;" horiz-adv-x="0" 
d="M83 1874q0 -60 -43 -121t-167 -86q31 -60 75 -102.5t101 -75.5q-3 -16 -26 -29.5t-44 -13.5q-66 0 -140.5 108.5t-74.5 180.5q0 31 26 56.5t69 25.5q16 0 37.5 -5.5t40.5 -15.5q25 16 39 45t14 74q0 15 -1.5 34.5t-5.5 35.5h-203l-6 73l6 7h437l3 -73l-6 -7h-150
q8 -28 13.5 -57t5.5 -54z" />
    <glyph glyph-name="dVicombiningletter" unicode="&#xa8f0;" horiz-adv-x="0" 
d="M232 1985l-103 -530l-7 -5l-104 9l20 106q-28 -10 -51.5 -15t-42.5 -5q-72 0 -132.5 56t-60.5 131t65.5 131.5t158.5 56.5q31 0 61.5 -9t62.5 -32l21 106h-391l-103 -530l-7 -5l-104 9l102 526h-87l-5 73l6 7h78q-11 19 -17.5 38.5t-6.5 39.5q0 70 65.5 125.5t179.5 55.5
q112 0 218 -65.5t171 -193.5h117l6 -73l-6 -7h-104zM122 2065q-54 85 -128.5 126t-155.5 41q-78 0 -117 -31.5t-39 -79.5q0 -16 5 -31t14 -25h421zM-147 1706q0 -36 21 -57t56 -21q43 0 87.5 29t53.5 78l2 11q7 40 -17.5 64.5t-67.5 24.5q-56 0 -95.5 -37t-39.5 -92z" />
    <glyph glyph-name="dAvagrahacombiningsign" unicode="&#xa8f1;" horiz-adv-x="0" 
d="M147 1985h-151q-64 0 -82.5 -19t-18.5 -44q0 -52 80 -76t122 -111q9 -19 13 -38.5t4 -37.5q0 -66 -52 -117t-136 -51q-93 0 -139 62t-46 117q0 22 13 48.5t56 27.5q5 -90 37 -127.5t75 -37.5t73.5 27.5t30.5 69.5q0 66 -80.5 82.5t-129.5 114.5q-7 13 -12 30t-5 35
q0 56 51.5 90.5t123.5 34.5h174l5 -73z" />
    <glyph glyph-name="dSpacingcandrabindu" unicode="&#xa8f2;" horiz-adv-x="843" 
d="M746 1268q0 -46 -36.5 -79.5t-81.5 -33.5q-35 0 -57.5 24.5t-22.5 58.5q0 45 36.5 78.5t80.5 33.5q36 0 58.5 -24t22.5 -58zM331 1172q0 52 13.5 72t45.5 36q17 -146 72.5 -205.5t134.5 -59.5q84 0 164.5 60t136.5 187q38 -17 55 -37t17 -49q0 -90 -108.5 -192
t-254.5 -102q-137 0 -206.5 99t-69.5 191z" />
    <glyph glyph-name="dCandrabinduvirama" unicode="&#xa8f3;" horiz-adv-x="843" 
d="M746 1268q0 -46 -36.5 -79.5t-81.5 -33.5q-35 0 -57.5 24.5t-22.5 58.5q0 45 36.5 78.5t80.5 33.5q36 0 58.5 -24t22.5 -58zM331 1172q0 52 13.5 72t45.5 36q17 -146 72.5 -205.5t134.5 -59.5q84 0 164.5 60t136.5 187q38 -17 55 -37t17 -49q0 -90 -108.5 -192
t-254.5 -102q-137 0 -206.5 99t-69.5 191zM288 530q0 43 44.5 70.5t123.5 27.5q46 0 105 -15t129 -64q110 -76 177 -177.5t67 -141.5q0 -11 -10 -26.5t-30 -22.5q-119 175 -218.5 228.5t-187.5 53.5q-43 0 -83 -7t-68 -14q-24 21 -36.5 43.5t-12.5 44.5z" />
    <glyph glyph-name="dDoublecandrabinduvirama" unicode="&#xa8f4;" horiz-adv-x="843" 
d="M746 1268q0 -46 -36.5 -79.5t-81.5 -33.5q-35 0 -57.5 24.5t-22.5 58.5q0 45 36.5 78.5t80.5 33.5q36 0 58.5 -24t22.5 -58zM331 1172q0 52 13.5 72t45.5 36q17 -146 72.5 -205.5t134.5 -59.5q84 0 164.5 60t136.5 187q38 -17 55 -37t17 -49q0 -90 -108.5 -192
t-254.5 -102q-137 0 -206.5 99t-69.5 191zM630 668q0 -46 -37 -79.5t-82 -33.5q-35 0 -57.5 24.5t-22.5 58.5q0 45 37 78.5t81 33.5q35 0 58 -24t23 -58zM214 572q0 52 13.5 72t45.5 36q17 -146 73 -205.5t135 -59.5q84 0 164.5 60t136.5 187q38 -17 55 -37t17 -49
q0 -90 -108.5 -192t-254.5 -102q-137 0 -207 99t-70 191zM179 -30q0 43 44.5 70.5t123.5 27.5q46 0 105 -15t129 -64q110 -76 177 -177.5t67 -141.5q0 -11 -10 -26.5t-30 -22.5q-119 175 -218.5 228.5t-187.5 53.5q-43 0 -83 -7t-68 -14q-24 21 -36.5 43.5t-12.5 44.5z" />
    <glyph glyph-name="dCandrabindudigittwo" unicode="&#xa8f5;" horiz-adv-x="843" 
d="M746 1268q0 -46 -36.5 -79.5t-81.5 -33.5q-35 0 -57.5 24.5t-22.5 58.5q0 45 36.5 78.5t80.5 33.5q36 0 58.5 -24t22.5 -58zM331 1172q0 52 13.5 72t45.5 36q17 -146 72.5 -205.5t134.5 -59.5q84 0 164.5 60t136.5 187q38 -17 55 -37t17 -49q0 -90 -108.5 -192
t-254.5 -102q-137 0 -206.5 99t-69.5 191zM601 -108q22 0 43.5 6.5t53.5 24.5q17 -15 25 -35t8 -38q0 -38 -37.5 -68.5t-93.5 -30.5q-69 0 -139 69.5t-116 247.5q-53 -1 -117.5 28t-64.5 95q0 47 40.5 80.5t91.5 33.5q37 0 69.5 -20.5t48.5 -55.5q140 58 207.5 146.5
t67.5 169.5q0 57 -32 86.5t-83 29.5q-76 0 -131.5 -54.5t-66.5 -128.5q-57 -5 -91 18.5t-34 63.5q0 72 91.5 140.5t210.5 68.5q116 0 191 -78t75 -183q0 -113 -98.5 -227t-279.5 -188q34 -119 72 -160t89 -41z" />
    <glyph glyph-name="dCandrabindudigitthree" unicode="&#xa8f6;" horiz-adv-x="843" 
d="M746 1268q0 -46 -36.5 -79.5t-81.5 -33.5q-35 0 -57.5 24.5t-22.5 58.5q0 45 36.5 78.5t80.5 33.5q36 0 58.5 -24t22.5 -58zM331 1172q0 52 13.5 72t45.5 36q17 -146 72.5 -205.5t134.5 -59.5q84 0 164.5 60t136.5 187q38 -17 55 -37t17 -49q0 -90 -108.5 -192
t-254.5 -102q-137 0 -206.5 99t-69.5 191zM523 -183q22 0 42 6t54 25q17 -15 25.5 -35t8.5 -39q0 -39 -38.5 -68.5t-91.5 -29.5q-64 0 -116.5 55t-79.5 169q-75 4 -117.5 42.5t-42.5 83.5q0 42 37 77t90 35q46 0 77 -29.5t41 -75.5q99 12 149 57.5t50 102.5q0 29 -14 57
t-44 46q-40 -13 -90 -22t-107 -13l-35 124l6 7q194 13 266.5 64t72.5 124q0 43 -28 66.5t-75 23.5q-70 0 -117 -45.5t-57 -113.5q-57 -4 -91 19.5t-34 62.5q0 57 75 115.5t200 58.5q119 0 188 -64.5t69 -156.5q0 -50 -20.5 -100t-116.5 -108q41 -34 63.5 -82.5t22.5 -97.5
q0 -85 -81.5 -162t-244.5 -94q22 -51 43 -68t61 -17z" />
    <glyph glyph-name="dCandrabinduavagraha" unicode="&#xa8f7;" horiz-adv-x="843" 
d="M746 1268q0 -46 -36.5 -79.5t-81.5 -33.5q-35 0 -57.5 24.5t-22.5 58.5q0 45 36.5 78.5t80.5 33.5q36 0 58.5 -24t22.5 -58zM331 1172q0 52 13.5 72t45.5 36q17 -146 72.5 -205.5t134.5 -59.5q84 0 164.5 60t136.5 187q38 -17 55 -37t17 -49q0 -90 -108.5 -192
t-254.5 -102q-137 0 -206.5 99t-69.5 191zM812 652h-242q-81 0 -122.5 -34t-41.5 -79q0 -85 125 -120.5t185 -164.5q12 -26 17.5 -56t5.5 -56q0 -104 -76.5 -181.5t-202.5 -77.5q-139 0 -207.5 94t-68.5 178q0 47 23 78t76 34q-10 -138 42 -196.5t128 -58.5q71 0 122 45
t51 111q0 102 -126.5 133t-201.5 177q-10 20 -17 44.5t-7 51.5q0 88 75.5 139.5t184.5 51.5h264l19 -106z" />
    <glyph glyph-name="dPushpika" unicode="&#xa8f8;" horiz-adv-x="1338" 
d="M1161 1062q85 0 153.5 -71.5t68.5 -212.5q0 -257 -216.5 -487t-479.5 -230q-163 0 -259.5 100t-96.5 221q0 55 23 105.5t63 96.5q-80 43 -117.5 106.5t-37.5 128.5q0 116 91 192.5t208 76.5q69 0 107 -34t56 -107q-178 0 -251.5 -48.5t-73.5 -120.5q0 -37 24.5 -68
t75.5 -56q45 29 99 48.5t114 25.5l85 -129l-6 -10q-169 -26 -254 -99t-85 -156q0 -64 51 -100.5t131 -36.5q122 0 247.5 75t218.5 186q-93 87 -137 177.5t-44 170.5q0 122 76.5 189t165.5 67zM1163 542q48 73 79 148.5t31 141.5q0 49 -18.5 74.5t-53.5 25.5
q-60 0 -106 -51.5t-46 -117.5q0 -50 28.5 -107t85.5 -114z" />
    <glyph glyph-name="dGapfiller" unicode="&#xa8f9;" horiz-adv-x="1185" 
d="M936 646l-88 -78q-42 58 -62 120.5t-20 117.5q0 122 76.5 189t165.5 67q85 0 153.5 -71.5t68.5 -212.5q0 -257 -216.5 -487t-479.5 -230q-163 0 -259.5 100t-96.5 221q0 128 109 229t272 117l85 -129l-6 -10q-169 -26 -254 -99t-85 -156q0 -64 51.5 -100.5t133.5 -36.5
q236 0 436 222.5t200 412.5q0 49 -18.5 74.5t-53.5 25.5q-60 0 -106 -51.5t-46 -117.5q0 -29 10 -60.5t30 -56.5z" />
    <glyph glyph-name="dCaret" unicode="&#xa8fa;" horiz-adv-x="926" 
d="M437 1735l154 49l144 -362h8l286 362l134 -49l-366 -410h-152z" />
    <glyph glyph-name="dHeadstroke" unicode="&#xa8fb;" horiz-adv-x="1041" 
d="M307 1577l-32 124l7 9h1091l32 -124l-7 -9h-1091z" />
    <glyph glyph-name="zerowidthjoiner" unicode="&#xfeff;" horiz-adv-x="0" 
d="M-100 -492h-103l496 2548h394l-17 -85h-291z" />
    <glyph glyph-name="highdef" horiz-adv-x="0" 
d="M336 2278l-20 55h63zM-253 -752l20 -55h-63z" />
    <glyph glyph-name="dEprishthamatrasign" 
d="M353 -19l-143 38l255 1311h367l31 -124l-7 -9h-257l-235 -1209z" />
    <glyph glyph-name="dEight.nep" horiz-adv-x="1130" 
d="M460 291q109 0 202 60.5t196 60.5q99 0 170.5 -75t71.5 -168q0 -77 -47 -125t-106 -48q-34 0 -60.5 20t-50.5 62q44 10 94.5 49t50.5 87q0 19 -14.5 41t-60.5 24q-93 5 -189 -59t-218 -64q-125 0 -207.5 96.5t-82.5 227.5q0 86 53.5 203t181.5 259h-145l-32 124l8 9h923
l32 -124l-8 -9h-549q-165 -128 -251 -278t-86 -250q0 -67 35 -95t89 -28z" />
    <glyph glyph-name="dFive.nep" horiz-adv-x="824" 
d="M920 813q-43 -193 -142.5 -346.5t-227.5 -260.5q135 -96 208 -167.5t73 -105.5q0 -11 -12.5 -27.5t-40.5 -28.5q-81 71 -161.5 129t-187.5 112q-46 -24 -90 -36.5t-82 -12.5q-73 0 -114.5 42t-41.5 93q0 56 50 100.5t128 44.5q33 0 71 -11.5t82 -40.5q50 37 98 86t84 98
q-166 0 -265 99.5t-99 248.5q0 104 57 228.5t121 249.5l146 -70q-42 -85 -110 -228t-68 -247q0 -89 44 -126.5t104 -37.5q81 0 143 61.5t91 210.5q12 60 25 130.5t20 136.5l138 -40q-6 -78 -18 -155.5t-23 -128.5z" />
    <glyph glyph-name="dZha.nep" horiz-adv-x="1261" 
d="M560 1197q65 -122 83 -199.5t29 -170.5q69 60 136.5 91.5t150.5 31.5q149 0 237 -102t88 -252q0 -136 -89 -291.5t-262 -233.5q22 -65 64 -87.5t88 -22.5q34 0 71 9.5t75 26.5q5 -15 7 -31.5t2 -27.5q0 -57 -43.5 -97t-112.5 -40q-60 0 -135.5 50t-111.5 201
q-118 0 -179 46t-61 109q0 59 43.5 96.5t103.5 37.5q46 0 89 -27t69 -81q109 60 182.5 186t73.5 238q0 85 -42 124.5t-108 39.5q-113 0 -207.5 -84t-181.5 -183q-104 -119 -169.5 -176.5t-148.5 -56.5q-79 1 -105 52.5t-10 132.5q39 -10 66.5 -13t39.5 -3q75 0 163.5 83
t88.5 251q0 74 -25.5 169.5t-81.5 203.5h-194l-32 124l8 9h1311l31 -124l-7 -9h-994z" />
    <glyph glyph-name="dJha.nep" horiz-adv-x="1874" 
d="M1388 833q57 47 117 73t129 26q115 0 192 -83.5t77 -232.5q0 -193 -95.5 -304.5t-180.5 -111.5q-39 0 -70.5 24.5t-47.5 62.5q131 62 206.5 172t75.5 210q0 64 -32 100t-87 36q-92 0 -208 -86.5t-142 -222.5l-99 -508l-10 -7l-143 38l97 499h-411l-28 -145
q-8 -42 -29 -60.5t-42 -18.5q-53 0 -124.5 90t-71.5 170q0 63 51 84.5t114 23.5l79 407q20 103 -1.5 147t-77.5 44q-59 0 -98.5 -37.5t-39.5 -97.5q0 -45 32 -88t106 -74q-9 -11 -26.5 -20t-47.5 -9q-79 0 -142 68t-63 161q0 92 68.5 158t170.5 66q134 0 213 -120t45 -294
l-60 -310h411l104 534h-282l-32 124l8 9h1140l31 -124l-7 -9h-698z" />
    <glyph glyph-name="dLa.mar" horiz-adv-x="1421" 
d="M1248 897q101 -31 156.5 -130t26.5 -259q-34 -174 -166.5 -326t-232.5 -152q-31 0 -60 18t-48 59q156 99 265 229t133 252q19 96 -16.5 140t-101.5 43q-84 -1 -192 -78t-215 -252l-11 -3l-117 84q27 47 55 88.5t57 75.5q-41 52 -87.5 77t-95.5 25q-97 0 -166 -77.5
t-69 -192.5q0 -110 63 -245t192 -239q-10 -19 -29 -30.5t-38 -11.5q-77 0 -206.5 174t-129.5 384q0 160 97.5 267t250.5 107q79 0 147 -36.5t140 -129.5q63 60 127.5 95t121.5 48l58 296h-924l-32 124l8 9h1471l31 -124l-7 -9h-397z" />
    <glyph glyph-name="dSha.mar" horiz-adv-x="1511" 
d="M1537 1197l-235 -1209l-11 -7l-143 38l229 1178h-518l-31 -159q109 -31 162.5 -125.5t29.5 -223.5q-24 -122 -130.5 -226t-240.5 -161q71 -103 125 -208t54 -151q0 -21 -19.5 -42t-52.5 -24q-54 105 -112 195.5t-142 184.5q-26 -5 -50.5 -7.5t-45.5 -2.5q-79 0 -130 46.5
t-51 108.5t48.5 103t111.5 41q46 0 90.5 -26t84.5 -83q125 48 230 140.5t126 193.5q15 72 -24.5 112t-121.5 40q-80 0 -185 -41t-186 -130q-47 13 -73.5 37t-26.5 52q0 57 113 126.5t268 82.5l29 147h-476l-32 124l8 9h1561l31 -124l-7 -9h-257z" />
    </font>
</defs>
</svg>
